<svg xmlns="http://www.w3.org/2000/svg" width="480" viewBox="0 0 480 320"><path fillRule="evenodd" clipRule="evenodd" fill="#1F1E2B" d="M329.792 121.268c.604.278 1.188.612 1.814.825 8.694 2.95 9.046 3.447 8.743 12.838-.085 2.631.549 5.195.158 7.896-.769 5.303-2.043 6.886-7.256 7.751-1.17.195-2.314.55-3.47.831-1.542 1.08-3.193 1.858-5.123 1.873-.785.094-1.562.246-2.335.421-1.325.579-2.679-.766-4.002.067l-.004.005c-1.383 1.424-3.321 1.25-5.02 1.764-.38.084-.767.137-1.15.185-1.138.075-2.211.495-3.335.64-.9.121-1.797.266-2.667.543-1.044.271-2.106.463-3.14.786-.7.202-1.415.323-2.135.426-1.44.147-2.858.392-4.202.97-.353.103-.714.157-1.079.185-1.629.17-3.247.39-4.82.868-.525.167-1.063.288-1.603.394l-2.681.635c-1.263.2-2.559.205-3.787.619-1.064.272-2.153.434-3.2.777-.352.112-.709.189-1.071.249-1.083.131-2.165.266-3.21.607-.534.158-1.079.26-1.63.332-1.298.125-2.542.533-3.821.75-.367.067-.739.105-1.111.136-1.864.118-3.621.729-5.41 1.189-.357.115-.722.194-1.09.259-1.292.154-2.572.363-3.808.793-.911.283-1.813.602-2.748.799-.763.147-1.535.189-2.31.213-1.147.006-2.283.114-3.382.479-1.308.341-2.685.335-3.963.816-1.311.372-2.593.859-3.952 1.044-1.312.154-2.655.058-3.93.504-.904.251-1.803.521-2.696.81-.546.17-1.105.271-1.671.337-.562.079-1.127.134-1.691.201-1.855.386-3.735.653-5.568 1.147-1.114.297-2.26.451-3.362.803-1.324.33-2.702.399-4.001.854-.384.119-.773.202-1.167.273-2.976.491-5.925 1.12-8.883 1.701-1.003.076-1.958.402-2.941.589-.595.122-1.196.179-1.801.2-1.199.029-2.398.025-3.593-.103-.388-.044-.771-.125-1.148-.224-1.26-.465-2.606-.476-3.911-.709-.739-.161-1.403-.496-2.053-.866-1.25-.729-2.639-1.11-3.998-1.57-.86-.303-1.691-.675-2.534-1.025-1.22-.514-2.483-.896-3.747-1.287-2.487-1.007-5.016-1.897-7.508-2.9-4.638-1.664-6.857-4.946-6.765-9.877.076-4.045-.101-8.096.08-12.139.146-3.275 1.643-5.364 5.194-5.435 3.378.479 6.343 2.157 9.489 3.312 1.362.671 2.802 1.141 4.255 1.574.352.1.691.236 1.025.383 1.552.866 3.248 1.39 4.898 2.021.327.116.646.256.964.394.952.409 1.982.542 2.972.812.821.241 1.655.404 2.514.427 1.555-.037 3.069.522 4.635.285.342-.09.686-.161 1.028-.24.879-.222 1.733-.525 2.623-.697 1.297-.205 2.629-.216 3.866-.746.371-.152.75-.266 1.135-.366 3.555-.979 7.296-.933 10.829-2.011 1.541-.431 3.053-.988 4.666-1.103 1.122-.075 2.261-.028 3.348-.411.352-.127.71-.226 1.07-.324.902-.246 1.789-.545 2.705-.746 1.309-.21 2.602-.501 3.893-.806.754-.146 1.519-.211 2.279-.302 1.701-.282 3.374-.68 5.032-1.15 1.31-.323 2.623-.641 3.937-.956.564-.122 1.139-.178 1.716-.203 1.125-.031 2.246-.11 3.327-.476.545-.158 1.103-.262 1.665-.337 1.872-.245 3.683-.752 5.492-1.264.359-.113.727-.188 1.097-.246 1.436-.201 2.915-.037 4.321-.495 1.448-.575 3.041-.49 4.507-.995.835-.206 1.67-.405 2.488-.672 1.186-.335 2.438-.32 3.609-.726.343-.123.691-.216 1.043-.3 1.445-.261 2.845-.738 4.304-.936 1.105-.102 2.211-.203 3.272-.566 1.095-.293 2.217-.462 3.3-.801 1.472-.378 3.021-.296 4.48-.75.36-.112.73-.188 1.104-.25 1.106-.14 2.215-.268 3.287-.608.538-.157 1.089-.258 1.646-.328 1.483-.125 2.891-.614 4.338-.917.727-.157 1.435-.396 2.166-.536 1.097-.191 2.206-.316 3.27-.673.541-.159 1.09-.263 1.645-.34 1.439-.234 2.913-.369 4.01-1.506 1.41-2.757-.316-5.97 1.279-8.687 1.342-.929 1.616.25 1.9 1.063.491 1.408.412 2.915.34 4.373-.143 2.858 1.103 3.596 3.642 2.603 1.812-.435 3.001-1.436 3.399-3.362.169-.812.33-1.92 1.684-1.664z"/><path fill-rule="evenodd" clip-rule="evenodd" fill="#74716E" d="M175.127 142.43c-3.76-.431-5.087 1.449-4.958 4.987.128 3.495.321 7.025-.015 10.491-.521 5.365 1.834 8.615 6.632 10.462-.838 14.58-.274 29.173-.366 43.761-.1 15.806-.049 31.612.015 47.415-2.733 4.739-5.98 5.568-9.92 2.264-1.452-1.22-3.382-1.599-4.628-3.052 3.212-.356 3.695-2.339 3.688-5.233-.09-40.184-.037-80.367-.084-120.551-.023-19.076-.186-38.152-.286-57.228 3.565.419 7.36-.651 10.648 1.634.642 1.697.549 3.47.55 5.226.018 17.879.027 35.758-.014 53.637-.003 2.117.408 4.382-1.262 6.187z"/><path fill-rule="evenodd" clip-rule="evenodd" fill="#1F1E2B" d="M318.3 39.092c5.487 2.168 10.927 4.472 16.482 6.445 2.653.942 4.896 2.05 4.676 5.169-.202 2.857-2.661 3.332-4.956 3.768-1.565.298-3.12.645-4.681.971-.675.275-.986-.173-1.294-.64-3.946-3.173-7.239-2.267-8.717 2.407-.177.35-.438.621-.774.816l-.572.004-.498-.274c-3.356-3.073-5.597-3.117-8.182-.151-.217.929-.333 1.89-.935 2.683-.499.395-1.059.473-1.663.324-.357-.162-.674-.386-.951-.662-3.774-3.282-6.892-2.559-8.278 1.936-.14.372-.349.699-.619.988-.545.307-1.107.335-1.686.109-.489-.326-.821-.789-1.117-1.279-2.533-1.814-4.898-2.356-6.786.863-.235.718-.478 1.433-1.071 1.953-2.566.302-4.427-2.399-7.146-1.638-1.223.342-2.817-.161-3.166 1.731-.155.77-.372 1.513-.855 2.15-.488.412-1.048.505-1.656.362-.355-.157-.67-.378-.944-.651-4.468-2.699-7.069-2.023-8.486 2.214-.191.343-.461.604-.814.772-.386.036-.749-.041-1.09-.223-3.845-3.075-5.199-3.094-8.122-.102-.208.935-.329 1.898-1.009 2.65-.783.442-1.498.27-2.176-.234-3.468-2.965-5.312-2.967-8.204.005-.326 1.054-.325 2.308-1.678 2.724-2.998-1.386-5.891-4.354-9.227-.618-.666.896-.725 2.109-1.528 2.933-.609.228-1.099-.017-1.559-.384-3.521-2.762-5.627-2.719-8.125.179-.365 1.136-.763 2.237-2.256 2.21-3.005-1.211-6.022-3.826-8.991.067-.207.731-.448 1.443-.919 2.053-.748.678-1.69.954-2.608 1.283-.556.192-1.125.332-1.701.446-1.524.332-3.031.781-4.616.731-.583.005-1.159-.053-1.731-.161-.927-.192-1.821-.511-2.732-.768-.364-.09-.718-.209-1.07-.337-2.084-.803-4.254-1.376-6.292-2.308-1.392-.619-2.859-1.021-4.306-1.49-2.128-.665-4.168-1.533-6.121-2.612-.952-.505-2.002-.768-2.969-1.228-2.255-1.073-3.856-2.74-3.242-5.345.632-2.677 2.883-3.266 5.364-3.116.805.048 1.589.218 2.344.498 1.719.536 3.415 1.151 5.079 1.848.845.384 1.696.761 2.583 1.05l3.065 1.037c1.278.596 2.576 1.141 3.973 1.406.687.176 1.337.447 1.975.749.777.365 1.541.758 2.342 1.069.819.291 1.651.352 2.502.143 1.787-.573 3.692-.464 5.479-1.017 1.31-.321 2.671-.38 3.958-.809.567-.16 1.144-.264 1.726-.342 1.368-.147 2.68-.551 4.009-.874 4.289-.836 8.341-2.787 12.817-2.735 1.704-.297 3.44-.412 5.104-.931 1.295-.357 2.556-.843 3.891-1.052.562-.092 1.129-.138 1.695-.19 1.123-.067 2.179-.497 3.288-.641.912-.128 1.814-.306 2.701-.565 1.258-.302 2.556-.395 3.798-.77.539-.151 1.087-.247 1.641-.31.922-.094 1.828-.266 2.711-.562.548-.182 1.105-.324 1.67-.443 1.922-.525 3.909-.731 5.822-1.292 3.878-.646 7.684-1.605 11.485-2.584 1.37-.2 2.784-.041 4.125-.495.368-.117.747-.202 1.126-.276 1.497-.228 2.945-.69 4.426-1.005.736-.157 1.453-.4 2.195-.542 1.116-.193 2.243-.331 3.324-.699.561-.167 1.129-.282 1.704-.372 2.294-.548 4.661-.677 6.945-1.259 2.844-.903 5.764-1.457 8.706-1.913 3.752-.753 7.529-1.356 11.25-2.24 1.675-.809 3.416-1.226 5.302-.731-2.421-.365-4.604-1.374-6.881-2.082-.636-.251-1.254-.524-1.875-.792-2.368-1.025-4.293-2.407-4.11-5.364.114-1.856 1.221-2.977 2.942-3.444 2.576-.7 5.116-1.072 6.76 1.806z"/><path fill-rule="evenodd" clip-rule="evenodd" fill="#75726F" d="M218.331 289.684c.015-2.655-.881-5.401.795-7.889.353-.572.907-.789 1.536-.883.608-.054 1.207.014 1.798.15 3.729 1.387 6.064-2.002 9.186-2.7 11.802-3.115 23.838-5.104 35.772-7.581 5.425-1.126 10.908-1.999 16.225-3.633 2.883-.32 5.74-2.081 8.663-.163 2.601-.61 5.246-1.078 7.785-1.882 1.742-.549 3.475-.732 5.172-.393 3.176.633 3.777 3.097 1.712 6.395-13.533 3.665-27.393 5.801-41.075 8.77-15.822 3.433-31.711 6.553-47.569 9.809z"/><path fill-rule="evenodd" clip-rule="evenodd" fill="#515051" d="M179.341 67.438l-1.15-.322c-2.346-.67-4.982-.999-5.904 1.71-1.023 3.005 1.461 4.2 3.911 5.016.748.25 1.457.613 2.185.924-.742 1.326-1.934 1.769-3.376 1.72-3.41 1.641-6.64.906-9.801-.74-2.256-1.215-3.133-3.188-3.138-5.657-.006-3.221.021-6.442-.053-9.662-.151-6.558-1.626-12.752-5.126-18.394-1.916-3.087-2.119-6.149.905-8.684 3.042-2.551 6.24-1.912 9.326.01 1.531.954 2.513 2.892 4.734 2.578-.261 3.229 1.977 4.798 4.231 6.356-.086 1.654.437 3.139 1.096 4.641 2.891 6.593 3.036 13.499 2.16 20.504z"/><path fill-rule="evenodd" clip-rule="evenodd" fill="#1F1E2B" d="M175.92 42.323c-4.093-.796-6.03-3.837-4.068-6.387 9.998-2.145 19.984-4.338 29.994-6.424 20.788-4.332 41.585-8.624 62.386-12.894 10.139-2.082 20.294-4.078 30.442-6.112.95-.788 1.995-1.375 3.237-1.559 2.356-.348 4.382.2 5.42 2.505.99 2.199-.029 3.907-1.783 5.272-.641.499-1.344.899-2.077 1.246-1.704.747-3.453 1.164-5.314.672-1.087-.35-1.651-1.195-2.053-2.187-2.184-2.535-4.427-2.208-6.7-.131-.299 1.276-.134 2.644-.794 3.841-.395.528-.936.681-1.561.624-.381-.103-.705-.304-.972-.594-.898-2.028-2.346-3.078-4.679-2.883-2.369.199-3.545 1.449-3.917 3.726-.153.936-.857 1.629-1.582 2.241-3.088 1.597-6.448 1.901-9.842 2.06-.976-.077-1.904-.265-2.512-1.146-2.478-2.906-5.081-2.878-7.554.092-.204.918-.332 1.863-.946 2.632-.779.517-1.468.345-2.175-.205-4.929-3.836-7.11-3.231-9.132 2.514-.292.275-.634.441-1.034.485-.876-.053-1.378-.629-1.82-1.289-3.021-2.776-4.324-2.73-6.909.255-.177 1.208-.225 2.45-1.057 3.455-3.991 2.066-8.24 2.875-12.709 2.596-.59-.278-.945-.774-1.222-1.336-.963-2.249-2.871-2.09-4.773-1.807-2.432.361-3.193 2.145-3.468 4.291-.142.373-.357.695-.638.977-.561.29-1.129.3-1.705.047-.479-.361-.796-.847-1.061-1.372-2.806-2.497-3.976-2.462-6.796.216-.281 1.094-.334 2.317-1.605 2.848-1.394.234-2.091-.894-3.06-1.532-3.056-2.009-5.598-1.091-7.003 2.484-.516 1.62-1.908 2.167-3.3 2.72-1.879.492-3.757 1.617-5.658.059z"/><path fill-rule="evenodd" clip-rule="evenodd" fill="#515051" d="M298.629 17.24c.836-.435 1.72-.798 2.498-1.317 1.491-.993 2.291-2.387 1.506-4.144-.748-1.674-2.249-2.252-4.023-2-1.319.187-2.624.481-3.936.727.132-3.102.771-6.017 4.152-7.095 4.199-1.34 7.85.038 10.322 3.517 6.853 9.644 10.381 20.225 9.151 32.164-1.857-.644-3.539-1.766-5.756-1.046-1.465.475-2.919.537-3.116 2.494-.187 1.852.596 3.182 2.176 3.967 1.188.589 2.609.715 3.521 1.841.269.844-.248 1.329-.816 1.793-2.956 1.477-6.013 1.172-9.094.517-3.158-1.338-4.864-3.769-4.998-7.15-.297-7.478.466-15.042-1.997-22.329-.214-.634.186-1.308.41-1.939z"/><path fill-rule="evenodd" clip-rule="evenodd" fill="#73716E" d="M315.972 231.991c-.398.021-.879-.095-1.181.087-4.6 2.75-8.216 1.404-11.219-2.622.303-4.742.201-9.499.542-14.251-.529-15.266 2.519-30.385 1.678-45.668-.243-4.419-.521-8.911.31-13.339.728-.943 1.725-.497 2.633-.509 1.304 1.461 1.02 3.274 1.037 4.987.056 4.967-.029 9.932.051 14.898.021 1.43-.413 2.977.679 4.241.294.267.595.536.906.785.849.779 2.171.784 2.916 1.744-.014 15.05-.046 30.099-.019 45.147.004 1.643-.371 3.555 1.667 4.5z"/><path fill-rule="evenodd" clip-rule="evenodd" fill="#AFB1B1" d="M314.323 182.345c-1.079-.266-2.395.373-3.225-.845 1.317-1.408 1.247-3.175 1.27-4.92.097-7.245.183-14.493.303-21.739l5.647-1.064c-.014 7.324-.218 14.655.047 21.969.123 3.381-.982 5.442-4.042 6.599z"/><path fill-rule="evenodd" clip-rule="evenodd" fill="#777471" d="M205.228 284.932c2.248-.333 3.607.218 3.381 2.914-.095 1.141.382 2.328.599 3.495-5.311 1.547-10.706 2.683-16.197 3.358-.726-2.463-2.387-4.611-2.459-7.296 4.721-1.834 9.396-3.946 14.676-2.471z"/><path fill-rule="evenodd" clip-rule="evenodd" fill="#21202D" d="M319.114 278.54c.28-.72.44-2 1.402-1.604 4.646 1.912 9.588 3.114 13.945 5.719.176.105.185.491.271.748-1.732 3.729-4.593 5.396-8.685 4.584-4.224-.841-6.383-3.846-6.933-9.447z"/><path fill-rule="evenodd" clip-rule="evenodd" fill="#21212D" d="M179.944 308.599c.124-1.7-.285-3.492 2.733-2.135 4.109 1.85 8.514 3.043 12.793 4.518-1.246 4.567-3.583 6.348-7.99 6.089-4.065-.241-6.924-3.455-7.536-8.472z"/><path fill-rule="evenodd" clip-rule="evenodd" fill="#201F2C" d="M142.391 293.266l.435-2.866 14.449 5.95c-1.313 3.445-4.179 4.361-7.367 3.934-4-.535-6.826-2.737-7.517-7.018z"/><path fill-rule="evenodd" clip-rule="evenodd" fill="#ABADAD" d="M324.063 152.382l5.72-.973c-1.586 2.943-.185 6.067-.565 9.062-.352 2.771.604 6.677-4.348 6.434-2.151-4.736-1.097-9.651-.807-14.523z"/><path fill-rule="evenodd" clip-rule="evenodd" fill="#AEB0B0" d="M318.322 153.771c1.26-.9 2.757-.471 4.131-.74 1.91 4.6 1.965 9.193-.053 13.778-2.328-.359-2.908-1.854-2.76-3.993.165-2.364.118-4.742.231-7.11.058-1.164-.522-1.698-1.549-1.935z"/><path fill-rule="evenodd" clip-rule="evenodd" fill="#D3D4D4" d="M322.4 166.81c.019-4.593.035-9.185.053-13.778.425-.492.934-.779 1.609-.649 1.753 4.758.434 9.689.807 14.523l-2.469-.096z"/><path fill-rule="evenodd" clip-rule="evenodd" fill="#ADAFAF" d="M243.441 262.213c-2.032-1.063-1.515-3.011-1.521-4.69-.05-12.038-.021-24.075-.077-36.114-.006-1.225.602-2.651-.901-3.932-1.072 1.375-.679 2.864-.682 4.223-.016 15.573.002 31.148.003 46.722 0 1.871.333 3.865-1.712 5.049-1.815.992-2.778.162-3.323-1.555-.334-1.055-.278-2.144-.279-3.225-.014-31.55-.002-63.1-.011-94.65 0-1.086.058-2.164.233-3.236.694-.811 1.733-.386 2.562-.713 2.869-1.067 3.277.703 3.29 2.879.039 6.238.01 12.476.016 18.714.007 6.187-.01 12.374.01 18.562-.008-12.205-.012-24.407.01-36.61.002-1.46-.312-3.015.82-4.273l4.004-.913.335.642c-.072 28.747 0 57.496.078 86.247.005 1.618.138 3.256-.223 4.848-.304 1.338-.655 2.781-2.632 2.025z"/><path fill-rule="evenodd" clip-rule="evenodd" fill="#ABADAD" d="M275.211 66.705l.054-2.375c3.488-1.827 6.869-2.081 10.048.677 1.165 3.392.672 6.932.77 10.394.259 9.211.28 18.447-.064 27.643-.354 9.433.272 18.834.077 28.249-.028 1.377-.081 2.721-1.112 3.792l-4.751.978c-1.436-3.636-.457-7.445-.673-11.16-.476-8.236.316-16.506.135-24.745-.235-10.665.007-21.322-.229-32.015-.581 1.332-.583 2.767-.584 4.167-.018 12.322-.083 24.643.215 36.966.183 7.567-.268 15.146-.095 22.721.033 1.464-.229 3.033 1.242 4.063-1.249.984-2.736.656-4.147.752-2.702-.874-1.955-3.214-1.966-5.045-.084-14.469-.043-28.939-.044-43.408-.001-5.544-.02-11.088.011-16.633.006-1.746-.167-3.55 1.113-5.021z"/><path fill-rule="evenodd" clip-rule="evenodd" fill="#848586" d="M193.815 174.926c-.073 18.238-.166 36.479-.21 54.716-.028 11.47-.022 22.938.062 34.405.02 2.731-.896 4.437-3.752 4.758-2.228.038-1.703-1.665-1.729-2.881-.335-15.655.104-31.313.049-46.969-.037-10.347-1.164-20.741.219-31.115.403-3.026-.863-6.144-.599-9.28.159-1.88.018-3.851 1.875-5.097 1.534.006 2.835.662 4.085 1.463z"/><path fill-rule="evenodd" clip-rule="evenodd" fill="#ADAFAF" d="M252.487 207.428c-1.682 1.21-.906 2.993-.915 4.494-.071 15.332-.105 30.664-.009 45.995.02 2.937-.858 4.672-3.919 4.917-1.738-1.78-1.271-4.042-1.28-6.16-.131-28.24.042-56.48-.036-84.719-.004-1.076.141-2.167-.234-3.217l-.211-.29c1.205-.907 2.697-.468 4.013-.855 2.931-.705 2.728 1.571 2.778 3.183.235 7.544.243 15.103-.15 22.634-.245 4.69 1.013 9.357-.037 14.018z"/><path fill-rule="evenodd" clip-rule="evenodd" fill="#ADB0B0" d="M262.264 165.343c.072 19.233.165 38.465.208 57.697.019 7.963-.251 15.93-.028 23.885.096 3.383-1.108 4.71-4.3 4.617-1.402-1.578-1.229-3.523-1.19-5.405.34-16.906-.222-33.814.21-50.729.202-7.945 0-15.952-.212-23.926-.05-1.88-.214-3.826 1.184-5.408 1.289-.727 2.68-.886 4.128-.731z"/><path fill-rule="evenodd" clip-rule="evenodd" fill="#808283" d="M204.487 176.727c0 9.343-.029 18.685.005 28.026.054 14.908.274 29.818.134 44.726-.032 3.398 1.279 7.277-1.885 10.188-2.136 1.051-3.001-.168-3.435-1.989-.316-1.324-.181-2.695-.182-4.047-.006-23.683-.015-47.366.015-71.048.002-1.981-.463-4.108 1.155-5.789l4.193-.067z"/><path fill-rule="evenodd" clip-rule="evenodd" fill="#ADAFAF" d="M274.305 182.525c-1.186 1.413-.68 3.104-.684 4.672-.038 15.56-.037 31.119-.011 46.678.005 2.23.056 4.396-2.432 5.482-2.003.784-2.288-.812-2.652-2.045-.384-1.301-.201-2.689-.201-4.038-.006-21.238-.019-42.475.013-63.714.003-1.986-.431-4.105 1.158-5.794 1.322-.471 2.615-1.07 4.078-.897 1.156 1.166 1.152 2.662 1.148 4.143-.017 4.963.091 9.925-.004 14.89l-.413.623z"/><path fill-rule="evenodd" clip-rule="evenodd" fill="#ACAEAE" d="M306.94 59.469c.073.211.125.429.156.65 1.175 1.513 1.03 3.305 1.032 5.05.016 20.111.016 40.223 0 60.334-.003 1.876.187 3.819-1.265 5.364l-4.778.844c-.539-1.159-.379-2.397-.379-3.607-.004-21.021-.011-42.041 0-63.061.002-1.487-.099-2.992.504-4.417 1.182-1.99 2.744-2.443 4.73-1.157zM273.486 66.082l.118.664c1.053 1.281.802 2.822.803 4.29.018 20.72.019 41.441-.003 62.162-.002 1.457.306 3.014-.854 4.255l-3.893 1.063-.57-.522c-.669-1.082-.749-2.293-.745-3.515.073-21.727-.225-43.454.105-65.175.064-.477.2-.94.388-1.383 1.112-1.71 2.561-2.586 4.651-1.839zM240.183 143.986c-1.218.812-2.555 1.124-4.008.957-1.233-1.142-1.22-2.661-1.217-4.153.031-22.104-.127-44.208.072-66.313 1.987-1.856 3.958-2.707 5.862.106.647 1.553.476 3.195.477 4.807.021 19.603.035 39.206-.009 58.809-.005 1.983.419 4.106-1.177 5.787z"/><path fill-rule="evenodd" clip-rule="evenodd" fill="#ABAEAE" d="M251.557 141.47c-1.123.859-2.316 1.491-3.804 1.175l-.668-.296c-.941-.754-1.118-1.772-1.065-2.906.964-20.625-.316-41.263.347-61.89.063-2.006-.282-4.079.885-5.924.789-.755 1.735-.875 2.759-.679 2.139.848 2.492 2.6 2.428 4.638-.593 18.521.425 37.048-.294 55.57-.135 3.444 1.209 6.962-.588 10.312z"/><path fill-rule="evenodd" clip-rule="evenodd" fill="#ADB0B0" d="M285.826 168.272c-2.38 2.459-1.03 5.617-1.075 8.269-.249 14.464.026 28.937.183 43.404.036 3.318-1.124 5.174-4.743 4.639-1.354-2.04-1.243-4.489-1.081-6.626.902-11.862.034-23.716.242-35.564.121-6.884.759-13.747-.323-20.604l3.415-.715c1.808-.741 2.308.451 2.635 1.819.33 1.381.201 2.858.895 4.163.127.428.078.833-.148 1.215z"/><path fill-rule="evenodd" clip-rule="evenodd" fill="#AEB0B0" d="M232.035 272.8c-2.501-2.304-1.391-5.462-1.292-8.004.429-10.958.205-21.891-.125-32.836-.048-1.601-.259-3.254.646-4.738-1.529-2.311-1.175-4.944-1.181-7.476-.03-14.591.208-29.182-.125-43.771-.044-1.934.104-3.842 2.168-4.864l1.602-.125c1.011 1.064 1.192 2.392 1.193 3.774.014 31.455.044 62.91-.052 94.366-.006 1.704.182 4.061-2.834 3.674z"/><path fill-rule="evenodd" clip-rule="evenodd" fill="#D3D5D5" d="M232.035 272.8c2.649-.642 1.636-2.805 1.639-4.347.058-32.488.049-64.979.053-97.468l1.445-.182c1.586 1.238.956 2.997.957 4.536.033 31.396.012 62.795.05 94.193.002 1.661-.933 4.151 2.373 3.937-2.372 1.716-4.483.891-6.517-.669z"/><path fill-rule="evenodd" clip-rule="evenodd" fill="#818384" d="M185.569 267.932c-2.143-1.045-1.417-2.996-1.418-4.668-.022-29.933-.021-59.866-.033-89.801 0-.812-.1-1.622-.153-2.434 1.166.407 2.479.494 3.352 1.541 1.196 4.381.601 8.894.554 13.289-.153 14.439.038 28.866.25 43.302.157 10.621-.339 21.252-.199 31.888.031 2.241 1.134 5.551-2.353 6.883z"/><path fill-rule="evenodd" clip-rule="evenodd" fill="#9C9D9E" d="M185.569 267.932c1.747-2.175 1.685-5.146 1.377-7.286-1.271-8.818.126-17.601-.146-26.397-.314-10.168-.381-20.415-.087-30.635.279-9.749-.096-19.515-.186-29.272-.007-.716.199-1.327.79-1.771l2.413.893c-1.072 3.838-1.065 7.686-.306 11.592.878 4.514-.379 9.033-.382 13.569-.002 4.228.773 8.412.32 12.723-.937 8.926.164 17.925-.086 26.923-.226 8.12-.883 16.377.222 24.494.277 2.04-1.964 4.238.416 6.041-1.687.901-3.036.113-4.345-.874z"/><path fill-rule="evenodd" clip-rule="evenodd" fill="#AFB1B1" d="M267.085 239.324c-2.457-.182-2.536-1.913-2.568-3.789-.237-13.879-.402-27.751-.265-41.637.088-8.941.424-17.889.316-26.838-.015-1.231-.543-1.69-1.6-1.863 1.846-.764 3.683-1.557 5.757-1.345-.431 1.993-.422 4.015-.425 6.042-.021 21.211.016 42.425-.006 63.639-.001 2 .318 4.096-1.209 5.791z"/><path fill-rule="evenodd" clip-rule="evenodd" fill="#ACAEAE" d="M247.753 142.645l-5.051 1.299c-1.806-.705-1.65-2.288-1.646-3.767.071-20.827-.029-41.654-.006-62.482.004-2.462.9-4.6 2.336-6.545.456-.1.911-.072 1.354.081 1.747 2.637 1.64 5.709 1.38 8.559-.739 8.089-.222 16.176-.13 24.244.133 11.607-.457 23.21-.024 34.813.051 1.362-.199 2.758 1.397 3.458l.39.34z"/><path fill-rule="evenodd" clip-rule="evenodd" fill="#AFB1B1" d="M295.591 158.691c.028 15.79.019 31.582.119 47.371.019 3.002-.92 4.966-4.074 5.431-.976-.888-1.302-2.047-1.295-3.302.099-16.251-.362-32.503.231-48.75 1.597-.762 3.296-.83 5.019-.75z"/><path fill-rule="evenodd" clip-rule="evenodd" fill="#D4D5D5" d="M258.135 166.073l.009 85.469-2.525-.097c-1.317-1.454-1.131-3.258-1.131-5.004-.01-24.866-.009-49.731-.004-74.598.002-1.758-.11-3.544 1.207-4.984.727-.529 1.476-.999 2.444-.786z"/><path fill-rule="evenodd" clip-rule="evenodd" fill="#9D9E9F" d="M200.294 176.793c.013 26.294.015 52.59.062 78.884.003 1.701-.854 4.131 2.385 3.989-1.893 1.35-3.812 1.091-5.741.089-.2-1.473-.334-2.945-.333-4.441.016-24.481.006-48.967.017-73.449.001-1.213-.107-2.447.292-3.623.411-1.212.894-2.372 2.563-1.606.262.006.514.056.755.157z"/><path fill-rule="evenodd" clip-rule="evenodd" fill="#ACAEAE" d="M255.69 166.859c-.023 28.195-.048 56.391-.072 84.586-2.941-.244-2.328-2.514-2.335-4.287-.048-13.124-.041-26.248-.05-39.374-1.692-3.868-.973-8.04-.932-11.968.084-8.342-.02-16.689.147-25.031.027-1.331-.182-2.725.838-3.844l2.404-.082z"/><path fill-rule="evenodd" clip-rule="evenodd" fill="#818384" d="M199.54 176.635c-2.667.655-1.583 2.833-1.587 4.354-.071 24.731-.044 49.461-.086 74.192-.003 1.544.621 3.282-.866 4.574-2.339-1.092-1.583-3.248-1.586-5.018-.044-26.279-.031-52.559-.031-78.839 1.441-.069 2.904-.258 4.156.737z"/><path fill-rule="evenodd" clip-rule="evenodd" fill="#ACADAD" d="M308.455 60.072l.332-2.901c1.743-1.354 3.416-1.871 4.845.421l-.222.299c-1.343 1.903-1.218 4.111-1.135 6.243.485 12.534-.407 25.067-.014 37.594.29 9.297-.031 18.58-.206 27.867-1.031.779-2.24.504-3.393.566-1.161-1.246-.843-2.807-.845-4.264-.023-20.486-.02-40.972-.008-61.458.004-1.48-.174-3 .646-4.367z"/><path fill-rule="evenodd" clip-rule="evenodd" fill="#D4D5D5" d="M267.085 239.324c.003-23.628.006-47.257.011-70.884.001-1.72-.351-3.569 1.63-4.588.239-.187.497-.215.771-.086.012 23.762.001 47.522.078 71.283.006 1.508-1.118 3.705 1.604 4.308-1.378 1.661-2.729-.128-4.094-.033z"/><path fill-rule="evenodd" clip-rule="evenodd" fill="#848687" d="M206.231 245.814c-.075-23.045-.15-46.09-.226-69.134l2.55-.646c1.203 12.604-.323 25.205-.063 37.815.233 11.296.049 22.6.049 34.002-1.667.52-1.378-1.532-2.31-2.037z"/><path fill-rule="evenodd" clip-rule="evenodd" fill="#AFB1B1" d="M230.412 76.436c.343-1.052-.383-2.389.852-3.204 1.483-.301 2.587.157 3.203 1.598.654 1.558.453 3.203.454 4.816.015 20.041.019 40.081-.004 60.122-.003 1.994.398 4.109-1.166 5.807-.254.092-.517.154-.786.186-1.943.747-2.179-.621-2.641-1.979-1.271-3.737-.146-7.512-.144-11.239.01-14.433-.497-28.875.017-43.296.152-4.275-.823-8.567.215-12.811z"/><path fill-rule="evenodd" clip-rule="evenodd" fill="#D0D1D1" d="M279.028 161.79c1.471.281 1.795 1.168 1.818 2.626.122 7.506-.353 14.992-.519 22.483-.117 5.343.737 10.747.573 16.146-.219 7.181-.473 14.358-.711 21.538l-2.583-.014c-1.383-2.652-1.107-5.564-1.086-8.366.124-16.132-.07-32.261-.026-48.391.006-2.122-.369-4.451 2.002-5.786.138-.17.315-.249.532-.236z"/><path fill-rule="evenodd" clip-rule="evenodd" fill="#ABAEAE" d="M286.418 64.177l.217-2.322c1.604-.672 3.308-1.773 4.105.968-.573 1.289-.444 2.661-.444 4.011-.015 20.623-.019 41.246.008 61.87.002 1.583-.401 3.304 1.027 4.588l.268.3c-.922.898-2.107.743-3.237.811-2.394.711-2.341-1.04-2.507-2.52-.379-3.374-.009-6.752-.034-10.129-.138-18.687-.001-37.374.082-56.06.095-.532.266-1.038.515-1.517z"/><path fill-rule="evenodd" clip-rule="evenodd" fill="#ADAEAE" d="M304.783 216.618c-.086-5.657-.161-11.312-.27-16.967-.021-1.141.63-2.459-.737-3.308-2.017-.368-2.002-2.048-2.017-3.468-.104-10.831-.073-21.663-.035-32.497.005-1.266.389-2.393 1.168-3.387.885-1.011 2.199-.289 3.209-.794 1.395 1.168.813 2.769.819 4.179.055 10.138 1.221 20.458-.317 30.355-1.349 8.681-.197 17.353-1.82 25.887z"/><path fill-rule="evenodd" clip-rule="evenodd" fill="#D4D5D5" d="M300.491 131.953c-.007-22.694-.019-45.389-.007-68.082.001-1.298-.403-2.75.916-3.748.531-.378 1.037-.326 1.521.093-.002 22.136 0 44.273-.019 66.411-.002 1.727.351 3.535-.816 5.085l-1.595.241z"/><path fill-rule="evenodd" clip-rule="evenodd" fill="#D4D6D6" d="M233.75 145.575l.021-71.352c.508-.555 1.01-.56 1.506.016 1.234 1.524.874 3.341.875 5.066.021 21.88.019 43.759.022 65.639-.755.41-1.466.994-2.424.631z"/><path fill-rule="evenodd" clip-rule="evenodd" fill="#D4D5D5" d="M312.056 129.596c-1.685-1.543-.924-3.566-.932-5.368-.063-13.837-.199-27.678.035-41.513.112-6.666-.072-13.323.047-19.978.031-1.624-1.218-4.5 2.205-4.847.704 23.801-.031 47.603.054 71.404l-1.409.302z"/><path fill-rule="evenodd" clip-rule="evenodd" fill="#858788" d="M230.412 76.436c1.227 2.85.824 5.854.826 8.816.01 16.491-.024 32.982.036 49.474.012 3.058-.965 6.089-.06 9.19.311 1.067.664 1.7 1.751 1.845-.973 1.018-2.236.543-3.385.66-1.478-4.43-.76-9.041-.542-13.477.27-5.465-.203-10.873-.123-16.298.161-10.925-.604-21.853.366-32.799.183-2.069 1.264-5.778-2.136-7.426.425-1.615 1.314-1.438 2.371-.615l.896.63z"/><path fill-rule="evenodd" clip-rule="evenodd" fill="#AEB0B0" d="M278.497 162.027c-1.882 5.416-.719 11.012-.659 16.474.158 14.162-.724 28.335.308 42.49.086 1.173-.347 2.385-.537 3.579-2.781-.626-2.299-2.88-2.306-4.792-.04-11.028-.025-22.058-.037-33.087-.002-1.457.281-2.99-.96-4.166l.207-.375c-.173-5.189-.063-10.382-.08-15.573-.004-1.319-.146-2.684.758-3.831.965-.864 2.122-.854 3.306-.719z"/><path fill="#ADAFAF" d="M262.277 136.25c.075-18.198.146-36.396.25-54.593.022-4.103-.698-8.237.453-12.299l.182-.121-.08-.203c-3.184-1.356-6.438-1.418-9.742-.523l-.17 2.995c-1.19 1.506-1.055 3.298-1.06 5.047-.066 19.994-.015 39.988.009 59.981.003 1.729-.246 3.559 1.197 4.958 1.104-.117 2.278.138 3.263-.616-1.405-1.159-.861-2.767-.863-4.183-.033-20.871-.02-41.741-.017-62.612 0-.406-.038-.817.009-1.219.113-.997-.403-2.517 1.127-2.612 1.601-.098 1.278 1.437 1.308 2.438.13 4.273.42 8.557.248 12.821-.366 9.121.046 18.22.214 27.332.173 9.259-.316 18.532-.515 27.799 2.04-.116 4.048-.384 5.916-1.287-1.941-.273-1.734-1.76-1.729-3.103z"/><path fill="#ACAEAE" d="M268.321 133.601c-.02-20.464-.036-40.928-.004-61.39.003-1.594-.335-3.304 1.117-4.555l.261-.369c-.984-1.946-2.795-1.945-4.439-1.504-1.627.436-.837 1.976-1.003 3.111.153.018.288.129.401.349-.241 13.475-.422 26.946-.12 40.426.22 9.806.058 19.62.065 29.43 1.721.108 3.429.1 5.058-.584l-.311-.327c-1.418-1.287-1.023-3.003-1.025-4.587z"/><path fill="#D4D5D5" d="M258.604 112.841c-.168-9.112-.58-18.211-.214-27.332.172-4.264-.118-8.548-.248-12.821-.029-1.001.293-2.536-1.308-2.438-1.53.095-1.014 1.615-1.127 2.612-.047.401-.009.813-.009 1.219-.003 20.871-.017 41.742.017 62.612.002 1.417-.542 3.024.863 4.183l1.511-.237c.199-9.266.688-18.538.515-27.798z"/><path fill-rule="evenodd" clip-rule="evenodd" fill="#828485" d="M232.125 171.11c-1.089 1.364-1.205 3.093-1.145 4.627.669 17.159.053 34.324.283 51.484l-2.434-.919c.007-8.326.017-16.649.022-24.976.005-8.482-.038-16.967.044-25.449.02-2.018-.193-3.538-2.683-3.461 1.972-.434 3.943-.869 5.913-1.306z"/><path fill-rule="evenodd" clip-rule="evenodd" fill="#808283" d="M251.557 141.47c-.694-9.505.106-19.015-.372-28.553-.606-12.1.214-24.27.375-36.409.024-1.817.588-3.893-1.632-5.014.191-1.144.743-1.353 1.651-.636l1.591.648.146 69.987-1.759-.023z"/><path fill-rule="evenodd" clip-rule="evenodd" fill="#D4D5D5" d="M290.572 159.441c1.566 1.253.926 2.994.933 4.544.067 15.836.093 31.673.13 47.509-1.185.08-2.431.518-3.416-.582-.896-9.727-.08-19.474-.342-29.21-.152-5.68-.065-11.37-.006-17.056.019-1.751-.15-3.558 1.242-4.968l1.459-.237z"/><path fill-rule="evenodd" clip-rule="evenodd" fill="#ADAFAF" d="M289.113 159.678c-.011 15.542-.003 31.086-.059 46.628-.004 1.551.589 3.282-.836 4.604-2.334-1.399-1.698-3.704-1.697-5.771.005-11.563.051-23.125.088-34.688.003-.828-.058-1.617-.783-2.178l-.007-.584c-.308-2.498-.912-5.027.831-7.289.699-.661 1.524-.884 2.463-.722z"/><path fill-rule="evenodd" clip-rule="evenodd" fill="#7F8182" d="M286.492 65.014c.043 21.687.066 43.375.171 65.063.009 1.545-.968 3.722 1.698 4.326-.974.985-2.223.602-3.379.681-.004-23.313-.008-46.625-.011-69.938.467-.521.982-.466 1.521-.132z"/><path fill="#ADB0B0" d="M295.67 128.677c-.061-22.028-.06-44.057-.072-66.085l-.096-1.406c-2.233-.355-3.866.456-4.855 2.5-.302.913-.332 1.86-.332 2.811-.02 20.864-.011 41.729-.004 62.594 0 1.356-.021 2.72.721 3.941l.567.561c1.653-.185 3.397.202 4.919-.792-1.551-1.107-.844-2.742-.848-4.124z"/><path fill="#B1B3B3" d="M301.716 60.724c-.105-1.569-1.078-2.027-2.47-1.909-1.931.166-1.301 2.06-2.027 3.041-.145.175-.158.36-.045.556.106 9.873.271 19.747.309 29.62.047 12.322-.001 24.644-.032 36.966-.003 1.202-.179 2.403-.274 3.605l3.315-.649c1.468-1.721 1.188-3.809 1.191-5.823.028-21.802-.033-43.604.033-65.407z"/><path fill-rule="evenodd" clip-rule="evenodd" fill="#7F8182" d="M244.32 71.592c-2.921 1.437-2.412 4.28-2.383 6.637.11 8.375-.047 16.747.28 25.133.427 10.988-.217 22.017-.294 33.028-.018 2.523-.628 5.158.778 7.554l-2.52.042.132-69.982c.271-.354.52-.338.746.044 1.46-.676.545-2.099.974-3.099 1.059-.839 1.949-1.086 2.287.643z"/><path fill-rule="evenodd" clip-rule="evenodd" fill="#B2B4B4" d="M299.614 196.311c-2.18-1.083-2.332-3.001-2.32-5.143.051-9.668.023-19.335-.025-29.004-.006-1.272.479-2.769-1.045-3.641 1.175-1.333 2.891-.701 4.299-1.185 1.203 1.167 1.151 2.691 1.153 4.181.02 10.174.053 20.348-.031 30.521-.014 1.636.417 3.698-2.031 4.271z"/><path fill-rule="evenodd" clip-rule="evenodd" fill="#7E8081" d="M273.55 137.452c.018-23.568.036-47.138.055-70.706l1.606-.041c.006 21.555-.007 43.111.047 64.666.005 1.821-.662 3.82.837 5.441-.691.838-1.631.69-2.545.64z"/><path fill-rule="evenodd" clip-rule="evenodd" fill="#73706D" d="M308.455 60.072c.058 18.636.117 37.272.174 55.908.014 4.728.021 9.455.034 14.182l-1.799.706c.024-22.231.046-44.464.08-66.696.003-1.351.099-2.702.152-4.052l1.359-.048z"/><path fill-rule="evenodd" clip-rule="evenodd" fill="#D4D5D5" d="M299.614 196.311c1.369-1.332.826-3.052.835-4.604.064-11.455.059-22.912.073-34.368l2.37-.347c.007 11.586-.005 23.171.049 34.759.006 1.55-.556 3.267.835 4.593-1.395.962-2.782.956-4.162-.033z"/><path fill-rule="evenodd" clip-rule="evenodd" fill="#7F8182" d="M241.879 169.361v46.67c-2.053-1.067-1.628-2.571-1.632-3.911-.035-12.838-.033-25.677-.016-38.515.003-1.814.221-3.682-2.498-3.515 1.219-1.171 2.747-.583 4.146-.729zM253.287 166.941c-.018 13.614-.037 27.229-.054 40.843l-.746-.354c-1.829-4.057-1.229-8.481-1.165-12.607.131-8.301.135-16.605.259-24.907.018-1.251-.402-2.07-1.686-2.322.996-.929 2.251-.496 3.392-.653z"/><path fill-rule="evenodd" clip-rule="evenodd" fill="#D1D2D2" d="M312.671 154.841c3.03 3.455.354 7.445.947 11.19.66 4.152-.063 8.513-.057 12.783.003 1.796-.474 2.857-2.463 2.686l-.025.016c-.986-1.391-1.196-2.969-1.222-4.631-.097-6.097.142-12.19.169-18.286.007-1.524.164-3.02 1.876-3.7.25-.15.507-.17.775-.058z"/><path fill-rule="evenodd" clip-rule="evenodd" fill="#A9ABAB" d="M311.896 154.899c-1.841 3.531-.296 7.295-.676 10.955-.539 5.172-.145 10.438-.147 15.662-2.029-.591-2.528-1.996-2.493-4.003.13-7.273.115-14.549.154-21.824l3.162-.79z"/><path fill-rule="evenodd" clip-rule="evenodd" fill="#41414B" d="M199.534 164.245c-.496-2.341.725-4.92.849-7.616.034-.735.468-1.42 1.198-1.403.722.018 1.109.721 1.167 1.448.426 5.334.49 10.668-.009 16.002-.068.725-.356 1.318-1.213 1.322-.874.005-1.084-.669-1.262-1.332-.709-2.624-.687-5.316-.73-8.421z"/><path fill-rule="evenodd" clip-rule="evenodd" fill="#7D7F80" d="M275.19 162.746c.022 5.354.073 10.705.042 16.057-.007 1.135.469 2.442-.721 3.348-1.82-3.172-.678-6.622-.884-9.939-.191-3.104-.05-6.227-.054-9.342l1.617-.124z"/><path fill-rule="evenodd" clip-rule="evenodd" fill="#848687" d="M286.65 160.4c-.379 2.417.842 5.018-.831 7.289-1.665-.738-1.64-2.207-1.588-3.684.049-1.373.035-2.701-1.788-2.931 1.262-1.108 2.796-.509 4.207-.674z"/><path fill-rule="evenodd" clip-rule="evenodd" fill="#050317" d="M319.127 117.271c.076.205.123.415.137.634-.04 2.543-.064 5.086-.129 7.627-.029 1.156.32 2.495-1.224 3.059.155-3.814.311-7.63.467-11.446.295-.227.545-.185.749.126z"/><path fill="#525152" d="M196.84 301.556c-1.762-2.031-3.981-3.771-3.83-6.856.877-2.841-1.448-5.003-1.627-7.618-.455-1.688-.907-3.393-1.519-5.021-1.985-5.282-3.136-10.904-6.011-15.817-1.753-2.998-3.732-6.008-7.951-5.737-1.003.008-1.718.551-2.426 1.201-2.232 2.045-4.533 1.743-6.15-.553-1.448-2.054-3.271-2.412-5.438-2.396-2.583.769-4.344 2.417-5.68 4.768-2.723 4.792-5.699 9.44-8.411 14.237-1.122 1.984-2.125 3.301-4.816 3.421-3.299.147-4.519 2.543-2.918 5.385 1.211 2.152 1.606 4.451 2.328 6.697.812-.433.293-2.385 2.672-1.14 3.754 1.964 7.454 4.884 12.212 4.224 5.86 2.362 11.647 4.937 17.611 6.997 2.817.971 4.529 2.38 5.058 5.252.751-1.939.699-1.805 2.916-.942 2.901 1.131 5.779 2.343 8.753 3.276 1.258.395 2.561 1.072 3.857.049 4.468-2.877 4.86-5.405 1.37-9.427zm-33.083-13.491c-1.836-.71-3.672-1.417-5.825-2.247l6.583-9.034c3.873-4.795 6.433-4.544 8.975.896.783 1.675 1.529 3.366 2.292 5.05.612 2.202 1.333 4.358 2.689 6.239 1.02 1.332.766 2.943 1.366 4.593-5.589-2.017-12.764 1.894-16.08-5.497z"/><path fill="#74716E" d="M175.98 290.653c-1.316-.211-.96-1.448-.889-2.245.167-1.896-.628-3.924.69-5.678-.763-1.684-1.509-3.375-2.292-5.05-2.542-5.44-5.102-5.691-8.975-.896 1.867 3.536.805 7.258.626 10.916-.007.143-.903.244-1.384.365 3.316 7.391 10.491 3.479 16.079 5.497-.6-1.649-.346-3.261-1.366-4.593-.094 1.645-1.262 1.882-2.489 1.684z"/><path fill-rule="evenodd" clip-rule="evenodd" fill="#22212D" d="M283.323 267.872c-1.616-1.54-1.71-3.542-1.689-5.578 1.893-1.167 10.115 2.447 10.673 4.691-3.042-.176-5.892 1.579-8.984.887z"/><path d="M303.688 248.167c-2.087 2.875-4.175 5.751-6.262 8.623l7.105 2.815c.27-3.852 1.436-7.774-.843-11.438z" fill="none"/><path fill="#515051" d="M336.21 272.645c-1.793-1.777-2.717-3.762-3.486-6.026-2.984-8.78-6.039-17.535-9.094-26.29-1.35-3.869-3.858-6.705-7.658-8.337-4.356-.021-8.952.892-12.263-3.165-4.859-.588-7.462 2.569-9.663 6.074-2.515 4.006-4.729 8.197-7.163 12.257-1.289 2.153-2.688 3.819-5.407 4.43-3.205.722-4.199 3.073-3.087 6.251.575 1.644 1.218 3.313 2.729 4.418 4.176 1.083 8.26 2.345 11.608 5.233 2.787.604 5.212-.813 7.781-1.413 5.102-1.191 6.551-.082 6.467 5.029 2.537 2 5.754 2.469 8.611 3.749 1.797.806 3.031 1.803 3.528 3.686 1.38-.327 2.619.232 3.926.535 4.09.947 7.693 3.166 11.693 4.327.413-.67.736-1.419 1.254-1.996 2.702-3.018 3.01-5.998.224-8.762zm-21.75-9.779c-4.738 1.716-6.655 1.089-9.928-3.261l-7.105-2.815c2.087-2.872 4.175-5.748 6.262-8.623 4.186-6.2 8.171-4.542 9.33 1.506.31 1.607 2.101 2.496 2.132 4.257 1.377 3.401 2.754 6.802 4.262 10.521-2.033.057-3.499-.742-4.953-1.585z"/><path fill="#75726F" d="M315.15 253.93c-.031-1.761-1.822-2.649-2.132-4.257-1.159-6.048-5.145-7.706-9.33-1.506 2.278 3.664 1.112 7.586.844 11.438 3.272 4.35 5.189 4.977 9.928 3.261-.012-2.998-.891-6.062.69-8.936z"/><path fill="#818384" d="M282.76 20.355l-.076-.204c-1.518-2.815-3.29-2.317-5.146-.634l.104.072c.278 2.639.872 5.291.778 7.917-.308 8.561.734 17.141-.521 25.7-.251 1.712 1.115 3.614-.221 5.384l4.965-.889c-.019-12.405-.038-24.812-.056-37.217l.173-.129zM293.287 51.536c.138-9.86.011-19.722.006-29.584 0-1.343-.02-2.718.767-3.92-.919-.577-.8-1.585-1.013-2.454-1.558-.362-2.631.33-3.573 1.294.12.093.239.197.358.319-1.282 5.001-.642 10.101-.714 15.156-.114 7.913-.052 15.828-.063 23.743 2.441-.636 5.112-.082 7.413-1.437-2.424.347-3.216-.564-3.181-3.117z"/><path fill="#858788" d="M275.842 57.164c.145-12.527.173-25.056.233-37.583l.111-.075c-1.588-1.439-2.884-1.93-2.986 1.456-.021.662-.282 1.258-.472 1.874l.042 36.554c1.469-.059 2.968.101 4.342-.617-.799-.238-1.284-.452-1.27-1.609z"/><path fill="#7F8182" d="M286.658 52.213c-.036-11.712-.022-23.423-.024-35.135.172-.14.342-.251.512-.349-.542-.94-1.4-1.42-2.807-1.113l-.149 4.745c-.006 12.197-.013 24.394-.02 36.59 1.191.017 2.446.394 3.451-.623-1.458-1.101-.958-2.7-.963-4.115z"/><path fill="#9C9D9F" d="M289.118 32.348c.072-5.056-.568-10.155.714-15.156-.119-.122-.238-.227-.358-.319-.757-.587-1.534-.599-2.328-.143-.17.098-.34.209-.512.349.002 11.712-.012 23.423.024 35.135.005 1.415-.495 3.013.963 4.115l1.434-.238c.011-7.915-.051-15.83.063-23.743z"/><path fill="#9A9B9C" d="M277.897 53.206c1.256-8.56.214-17.14.521-25.7.094-2.626-.5-5.277-.778-7.917l-.104-.072c-.447-.358-.898-.36-1.351-.012l-.111.075c-.061 12.528-.089 25.057-.233 37.583-.014 1.158.471 1.371 1.271 1.609.214.017.401-.044.564-.183 1.337-1.769-.03-3.671.221-5.383z"/><path fill-rule="evenodd" clip-rule="evenodd" fill="#777472" d="M304.649 52.971c.554-1.613-.424-3.406.584-4.967 3.028-.25 6.162.695 9.081-.803.945 1.03 1.676 2.222 2.491 3.349l-12.156 2.421z"/><path fill-rule="evenodd" clip-rule="evenodd" fill="#555658" d="M323.339 55.272c-3.146-2.513-2.899 1.396-4.266 2.253-.018-2.598.528-5.133 3.589-5.256 2.226-.09 5.458-1.815 6.382 2.244l-4.177.892c-.55.43-1.056.352-1.528-.133z"/><path fill-rule="evenodd" clip-rule="evenodd" fill="#545557" d="M264.654 69.243l-.852-.172c.162-1.997-.622-4.444 2.66-4.803 2.613-.287 5.33-1.316 7.023 1.815l-3.791 1.205c-1.787.372-5.11-3.212-5.04 1.955z"/><path fill-rule="evenodd" clip-rule="evenodd" fill="#555659" d="M263.082 69.034c-3.26.063-6.553.721-9.742-.523 3.136-3.755 6.692-3.565 9.742.523z"/><path fill-rule="evenodd" clip-rule="evenodd" fill="#555658" d="M229.516 75.806c-.885-.161-1.741-.211-2.37.615l-3.227.215c-.514.41-1.03.359-1.547.005-.721-.457-1.421-.977-2.359-.788 2.061-3.694 6.655-3.717 9.503-.047z"/><path fill-rule="evenodd" clip-rule="evenodd" fill="#57585A" d="M213.297 79.14l-1.558-.177-3.086-.625c2.587-3.624 6.21-3.759 9.647-.359l-5.003 1.161z"/><path fill-rule="evenodd" clip-rule="evenodd" fill="#595A5D" d="M241.061 74.049c-.251.015-.5 0-.746-.044l-5.037.234-1.506-.016-2.507-.991c3.138-3.545 6.865-3.234 9.796.817z"/><path fill-rule="evenodd" clip-rule="evenodd" fill="#595A5C" d="M286.492 65.014l-1.521.131c-3.128-1.563-6.479-.448-9.707-.815 1.568-2.838 6.825-3.664 9.34-1.371.57.52.83 1.356 1.813 1.218l.075.837z"/><path fill-rule="evenodd" clip-rule="evenodd" fill="#535457" d="M244.32 71.592c-.577-.878-1.433-.758-2.286-.643 3.177-3.612 6.604-3.645 9.545-.091-.653-.052-1.251.035-1.651.637l-2.442.3c-.789.554-1.569.594-2.341-.036l-.825-.167z"/><path fill-rule="evenodd" clip-rule="evenodd" fill="#5D5E60" d="M302.921 60.216l-1.521-.093c-2.253-1.497-3.31-.102-4.182 1.732-.253-2.281.402-4.18 2.841-4.608 2.58-.454 5.486-1.268 6.881 2.222-1.41-.136-2.757.075-4.019.747z"/><path fill-rule="evenodd" clip-rule="evenodd" fill="#565759" d="M313.632 57.593c-1.548-.916-3.214-.47-4.845-.421 2.612-4.032 7.174-3.875 9.721.335-1.644-1.031-3.242.572-4.876.086z"/><path fill-rule="evenodd" clip-rule="evenodd" fill="#595A5C" d="M290.832 62.554c-1.285-.92-2.786-.535-4.197-.699 2.723-3.299 6.056-3.552 8.867-.67-1.272.646-2.42 1.629-3.985 1.486-.283.279-.51.24-.685-.117z"/><path fill="#808283" d="M215.804 34.143l-.109-1.478c-1.782-.667-3.433-.599-4.865.692l.082.052.022.719v.001c1.104.94.786 2.227.786 3.407.002 11.579-.019 23.158-.033 34.737l4.226-.762c-.037-12.455-.074-24.912-.109-37.368z"/><path fill="#87898A" d="M209.306 69.07c-.022-10.474-.031-20.947.005-31.421.005-1.356-.612-3.133 1.622-3.52v-.001l-.022-.719-.082-.052c-2.993-1.99-4.189-.392-4.75 2.473-.087.216-.103.438-.048.665.19 12.009.464 24.018-.06 36.025.105.321.191.646.246.98 1.287-.396 2.792.02 3.894-1.057-1.147-.912-.802-2.205-.805-3.373z"/><path fill="#9D9E9F" d="M210.934 34.129c-2.234.387-1.617 2.163-1.622 3.52-.036 10.475-.027 20.948-.005 31.421.002 1.168-.342 2.461.806 3.373l1.575-.17c.015-11.579.035-23.158.033-34.737-.002-1.181.317-2.467-.787-3.407z"/><path fill="#808283" d="M205.949 73.146c-2.025-.033-1.436-1.488-1.44-2.634-.031-11.304-.068-22.608-.103-33.912l-.045-1.549c-1.807-.475-3.183-.082-4.145 1.136l.156.37-.084 38.154 5.929-1.211c-.054-.334-.141-.66-.246-.98l-.022.626z"/><path fill="#868788" d="M189.653 38.599c.042.134.083.271.108.442-1.108 7.666-.502 15.343.021 22.999.2 2.931-.962 5.825-.027 8.729 1.118 1.04 2.379 1.757 3.961 1.749-.235-11.144-.381-22.288.145-33.429l.135-.185-.02-.078c-1.446-1.452-2.888-1.644-4.323-.227z"/><path fill="#9D9EA0" d="M200.216 36.188c-.633-1.333-1.472-1.136-2.375-.432l.106.147-.071 38.195c.616.945 1.505.814 2.412.614l.084-38.154-.156-.37z"/><path fill="#818384" d="M197.841 35.755c-.567-.789-1.269-1.168-2.271-.635-.386 1.045.221 2.363-.88 3.212-.089.179-.137.365-.181.552l.087.051c.949.442.778 1.3.776 2.095-.022 10.685-.045 21.369-.068 32.054l2.573 1.014c.023-12.732.047-25.464.071-38.195l-.107-.148z"/><path fill="#9B9C9D" d="M189.782 62.04c-.523-7.656-1.13-15.333-.021-22.999-.025-.171-.066-.309-.108-.442-.383-1.222-1.418-.968-2.463-.69l-.141.115.314.338c-1.268 7.068-.533 14.203-.805 21.301-.13 3.403 1.113 6.782.029 10.158v.001c.887.88 1.98 1.072 3.167.948-.934-2.905.228-5.799.028-8.73z"/><path fill="#828485" d="M186.558 59.663c.271-7.098-.463-14.233.805-21.301l-.314-.338c-1.392-1.474-2.314-.935-2.892 1.085.216 1.975-1.955 1.293-2.586 2.324 2.564-.246 2.625 1.325 2.597 3.276-.117 8.139-.117 16.279-.16 24.419l2.58.693v-.001c1.083-3.375-.16-6.754-.03-10.157z"/><path fill-rule="evenodd" clip-rule="evenodd" fill="#535456" d="M277.641 19.589l-1.565-.009c-3.667-1.537-1.686 2.731-3.347 3.255l-1.562-.057c.61-.82 1.727-1.226 1.67-2.581-.147-3.45 2.396-3.687 4.901-3.942 2.925-.299 4.675.848 4.945 3.896-1.483-1.95-3.329-.651-5.042-.562z"/><path fill-rule="evenodd" clip-rule="evenodd" fill="#595A5D" d="M250.808 27.683l-1.598-.003c-1.105-1.662-2.688-.84-4.123-.794-.244-.043-.49-.073-.738-.09-3.219-2.469-3.812.671-5.076 2.376.226-2.337-.172-5.072 3.194-5.554 2.893-.414 5.951-1.102 7.114 2.887.048.166.727.148 1.111.216l.116.962z"/><path fill-rule="evenodd" clip-rule="evenodd" fill="#555658" d="M194.596 38.936c-.234.103-.479.154-.735.154-1.354-1.04-2.722-.945-4.1-.049-.608-.899-1.507-.778-2.398-.68-1.221-.407-2.408-.66-3.206.748-.505-2.256.845-3.328 2.697-3.749 2.056-.468 4.295-1.104 5.965.941.588.719.909 1.66 1.87 2.032l-.093.603z"/><path fill-rule="evenodd" clip-rule="evenodd" fill="#535456" d="M210.912 33.409c-2.156-.281-4.102-.143-4.832 2.421-.312-2.596.379-4.663 3.277-5.024 2.303-.288 5.083-1.644 6.338 1.859-1.497.876-3.163.666-4.783.744z"/><path fill-rule="evenodd" clip-rule="evenodd" fill="#545457" d="M197.947 35.903l-2.378-.783c2.378-3.324 6.208-3.354 8.792-.068l-3.989 1.506c-.646-.818-1.52-.796-2.425-.655z"/><path fill-rule="evenodd" clip-rule="evenodd" fill="#565759" d="M233.767 29.176c-1.376-1.258-3.391-.272-4.813-1.368 3.162-3.33 5.828-3.335 8.718-.016l-3.905 1.384zM289.832 17.191l-3.198-.113-2.295-1.463c3.126-2.56 6.127-2.574 8.708-.038-1.071.539-2.143 1.077-3.215 1.614z"/><path fill-rule="evenodd" clip-rule="evenodd" fill="#57585A" d="M255.706 24.377c-1.453-1.32-3.225-.591-4.856-.752 1.508-3.594 4.667-2.407 7.322-2.409 1.313-.001 2.244.801 1.545 2.382l-4.011.779z"/><path fill="#ADAFAF" d="M329.275 105.165c-.442-15.277-.151-30.55-.239-45.825-.008-1.389.014-2.699.785-3.896l-.777-.931c-1.809-.915-3.247-.471-4.434.87l.257.022c.011 22.715.024 45.43.024 68.146 0 1.076-.128 2.152-.198 3.227l.311.325c4.783.671 3.374-3.74 4.788-5.834-1.543-5.331-.361-10.737-.517-16.104z"/><path fill="#AEB1B1" d="M318.378 117.146c-.964-2.92-.05-5.869-.056-8.797-.037-16.857-.552-33.715.064-50.571l.121-.271c-1.971-1.724-3.769-1.147-5.482.413-.25.414-.426.859-.513 1.333-.371 2.55-.361 5.134-.179 7.681.548 7.651.398 15.337.218 22.959-.275 11.613.021 23.221-.243 34.827-.037 1.61-.112 3.274 1.156 4.574l4.446-.702c1.61-.864.837-2.349.777-3.525-.135-2.616-.007-5.195.429-7.757l-.01-.042c-.244-.029-.487-.07-.728-.122z"/><path fill="#ADAFAF" d="M322.483 123.217c-.048-21.39-.029-42.781.001-64.171.002-1.292-.454-2.751.854-3.774l.278.024c-.342-1.251-1.342-1.535-2.569-1.341-2.133.338-.833 2.642-1.975 3.57l.126.264c.77 1.048.75 2.239.749 3.477-.015 17.694.008 35.389-.003 53.083 0 1.022.374 2.209-.818 2.922l-.02-.003.01.042c.031.2.067.4.146.596 1.16 1.727.56 3.666.581 5.5.057 4.98-.002 4.981 5.159 3.697l-.311-.325c-3.193.355-2.205-2.082-2.208-3.561z"/><path fill="#D4D6D6" d="M322.484 59.046c-.03 21.39-.049 42.781-.001 64.171.003 1.479-.985 3.916 2.21 3.56.07-1.075.198-2.151.198-3.227 0-22.715-.014-45.431-.024-68.146l-.257-.022-.993-.086-.278-.024c-1.309 1.023-.853 2.482-.855 3.774z"/><path fill-rule="evenodd" clip-rule="evenodd" fill="#D4D6D6" d="M246.094 168.738c1.986.148 1.403 1.695 1.401 2.773-.038 18.714-.175 37.429-.168 56.145.003 11.725.204 23.451.317 35.178-1.427-.03-2.956.635-4.203-.621 2.438-.546 1.628-2.532 1.6-3.977-.211-10.387-.328-20.796-.215-31.159.129-11.542-.21-23.091.187-34.637.215-6.252-.373-12.529-.36-18.794.003-1.642.043-3.546 1.441-4.908z"/><path fill-rule="evenodd" clip-rule="evenodd" fill="#D0D1D1" d="M280.242 136.059c-1.849.017-2.569-.826-2.563-2.739.077-21.918.093-43.837.106-65.754.001-1.128-.149-2.286 1.456-2.323 1.544-.036 1.742 1.092 1.646 2.229-.621 7.363-.341 14.776-.337 22.119.005 8.159.234 16.344.002 24.514-.208 7.319 1.123 14.66-.321 21.957l.011-.003z"/><path fill="#ADAFAF" d="M218.217 277.278c-.056-27.312-.058-54.621-.047-81.932.002-7.016.084-14.029.13-21.043-3.347.021-6.518 1.033-9.745 1.73-1.183 1.051-1.024 2.485-.906 3.792.71 7.835-.351 15.64-.306 23.46.074 12.98.083 25.96.062 38.939-.003 1.637.011 3.184-1.753 3.994 1.515 5.024 1.807 10.165 1.679 15.39-.122 4.984-.25 9.985.141 14.964.233 2.978-.27 5.618-2.404 7.818 2.361 1.733 1.762 5.229 4.14 6.949l.872.158c2.504-3.747 1.465-8.055 1.508-12.041.106-9.843.155-19.69-.258-29.551-.427-10.229.602-20.515.273-30.753-.42-13.104.28-26.185.168-39.275-.01-1.232-.934-3.589 1.173-3.49 1.77.083 1.188 2.41 1.192 3.817.038 11.872.031 23.743.03 35.615-.001 19.896-.013 39.794-.007 59.69.002 5.553.052 11.108.081 16.661v.001c1.829-.064 2.954-1.288 4.091-2.49 1.567-2.485 1.174-5.262 1.255-7.966l-.46.077c-1.638-1.226-.906-3.001-.909-4.514z"/><path fill="#D4D5D5" d="M214.165 215.821c0-11.872.008-23.743-.03-35.615-.004-1.407.578-3.734-1.192-3.817-2.106-.099-1.183 2.258-1.173 3.49.112 13.091-.588 26.171-.168 39.275.329 10.238-.7 20.524-.273 30.753.413 9.86.364 19.708.258 29.551-.043 3.986.996 8.294-1.508 12.041 1.228 1.206 2.746.624 4.16.677v-.003c-.029-5.553-.079-11.108-.081-16.661-.006-19.897.006-39.794.007-59.691z"/><path fill="#AEB0B0" d="M229.185 277.364c.16-7.433-.113-14.874-.173-22.313-.023-2.955.016-5.914.139-8.865.278-6.636.472-13.267-.321-19.883 1.632-1.156 1.239-2.872 1.191-4.46-.245-8.243.515-16.484.091-24.727-.362-7.032.325-14.068-.156-21.097-.158-2.313-.414-4.564-3.743-3.603-1.02.492-2.322-.148-3.228.805l.276.323v-.001c2.211.208 1.484 1.944 1.485 3.113.041 33.934.04 67.866.035 101.801 0 1.59.335 3.514-2.354 3.092l-.264.297c3.907 2.296 6.151-1.5 9.16-2.5-1.04-.287-2.183.109-2.138-1.982z"/><path fill="#AFB1B1" d="M222.595 234.082c.233-18.194-.144-36.398-.282-54.596-.016-2.048.003-4.061.948-5.941l-.276-.323c-1.366.166-2.795.055-4.007.902 1.495 1.116.878 2.736.879 4.134l.026 97.329c.001 2.003-.369 4.071.67 5.968l1.611.292.264-.297c-.042-15.822-.036-31.643.167-47.468z"/><path fill="#D4D6D6" d="M222.313 179.486c.138 18.197.515 36.401.282 54.596-.203 15.825-.209 31.646-.167 47.468 2.689.422 2.354-1.502 2.354-3.092.005-33.935.006-67.867-.035-101.801-.001-1.169.726-2.905-1.485-3.113v.001c-.945 1.881-.964 3.893-.949 5.941z"/><path d="M188.036 79.077l.026.031.15-.272-.176.241z" fill="none"/><path fill="#ADB0B0" d="M224.55 147.126c-3.265.388-2.156-2.103-2.161-3.546-.061-20.285-.043-40.57-.042-60.855 0-2.028.017-4.056.025-6.084l.429-.001c-.648-.988-1.403-1.696-2.788-.786-.11 1.08.155 2.462-1.713 2.125-1.936-.593-3.696-.52-5.045 1.114l.042.048c1.556 2.608.735 5.505.762 8.215.167 16.864.301 33.734-.06 50.591-.084 3.92 1.249 8.021-.632 11.87 3.83-.792 7.659-1.584 11.489-2.375l-.306-.316zm-5.153.618l-.881.001v-68.447l.881-.003v68.449z"/><path fill="#818384" d="M193.588 113.385c-.131-9.713-.012-19.429-.049-29.144-.004-1.206-.487-2.49 1.179-2.991l-6.504-2.418v.001l-.002.003-.15.272c1.38 1.454 1.538 2.958 1.306 5.082-.537 4.927-.896 10.014-.257 14.896.857 6.547-.545 13.008.084 19.464.625 6.411-.169 12.806.26 19.21.212 3.175-.324 6.4-.521 9.602 1.423 1.263 3.216 1.748 4.952 2.354-.828-12.104-.134-24.221-.298-36.331z"/><path fill="#ADAFAF" d="M230.342 84.732c.102-3.081 1.208-7.262-3.127-9.145-1.313-.131-2.563-.057-3.508 1.047v.001l.212-.001c.781 1.027.879 2.205.877 3.448-.03 21.95-.04 43.899-.063 65.849 0 .398-.119.796-.183 1.193l.307.315 4.723-1.021c.89-8.144 1.001-16.352.793-24.498-.317-12.403-.442-24.781-.031-37.188z"/><path fill="#808283" d="M204.536 139.01c-.261-13.256 0-26.521.027-39.783.012-5.917-.05-11.835-.08-17.753l-4.975.898c.976 1.296.831 2.807.83 4.294-.015 21.539-.028 43.077-.042 64.615 1.675-.179 3.288.957 4.989.238-1.99-4.052-.667-8.363-.749-12.509z"/><path fill="#ACAEAE" d="M211.454 135.858c.174-9.409-.362-18.808-.207-28.171.158-9.566.235-19.152.492-28.725l.194-.124c-.928-.924-1.882-1.712-3.28-.502l-.121 2.341c.043 9.137-.122 18.279.195 27.407.271 7.832.402 15.7.216 23.488-.149 6.275.16 12.594-.415 18.869 1.438.172 2.876.333 4.192-.509-2.316-4.505-1.353-9.432-1.266-14.074z"/><path fill="#818384" d="M186.512 138.274c-.058-5.348.027-10.708.128-16.041.242-12.845-.803-25.707.43-38.523.144-1.499-2.433-3.789.966-4.632l.176-.241.002-.003c-1.288-.759-2.615-1.412-4.14-1.527l-.021 68.389c1.209.913 2.564 1.445 4.079 1.56-2.069-2.719-1.587-5.896-1.62-8.982z"/><path fill="#848687" d="M208.943 131.573c.186-7.789.055-15.656-.216-23.488-.316-9.127-.151-18.27-.195-27.407-.845.227-1.861-.223-2.542.647.098 11.026.279 22.053.271 33.078-.009 12.313-.188 24.624-.294 36.935l2.561-.896c.575-6.275.266-12.593.415-18.869z"/><path fill="#D3D4D4" d="M214 137.946c.361-16.857.227-33.727.06-50.591-.027-2.71.793-5.607-.762-8.215l-.042-.048c-.395-.488-.841-.525-1.322-.253l-.194.124c-.257 9.573-.334 19.159-.492 28.725-.155 9.363.381 18.762.207 28.171-.086 4.642-1.049 9.568 1.267 14.075l.338.021.309-.139c1.88-3.849.546-7.95.631-11.87z"/><path fill="#9B9C9D" d="M189.455 137.761c-.429-6.405.365-12.8-.26-19.21-.629-6.456.773-12.917-.084-19.464-.639-4.882-.28-9.969.257-14.896.232-2.124.074-3.628-1.306-5.082l-.026-.031c-3.399.843-.822 3.134-.966 4.632-1.232 12.817-.188 25.679-.43 38.523-.101 5.333-.186 10.693-.128 16.041.033 3.086-.449 6.263 1.619 8.981l.803.108c.197-3.202.733-6.427.521-9.602z"/><path fill="#808283" d="M195.37 81.477c.026 21.845.056 43.688.062 65.533 0 1.011.402 2.214-.857 2.882.917.942 2.161.588 3.257.818l.078-68.458-2.54-.775z"/><path fill="#9D9E9F" d="M199.509 82.372l-1.6-.119-.078 68.458c.682.795 1.57.7 2.465.571.014-21.539.027-43.077.042-64.615.002-1.488.146-3-.829-4.295z"/><path fill="#D4D5D5" d="M222.348 82.726c-.001 20.285-.019 40.57.042 60.855.004 1.443-1.104 3.934 2.161 3.546.064-.397.183-.795.183-1.193.023-21.95.033-43.899.063-65.849.002-1.244-.096-2.421-.877-3.448l-.212.001-.906.003-.429.001c-.009 2.027-.025 4.055-.025 6.084z"/><path fill-rule="evenodd" clip-rule="evenodd" fill="#D4D5D5" d="M290.832 62.554c.234.004.462.043.685.118l-.185 70.621c-3.244.418-2.211-2.081-2.217-3.528-.068-15.152-.039-30.304-.037-45.456 0-6.088-.014-12.176.004-18.264.005-1.429-.412-3.121 1.75-3.491z"/><path fill-rule="evenodd" clip-rule="evenodd" fill="#D3D4D4" d="M269.347 138.188c-1.924.343-2.276-.727-2.274-2.348.027-21.956.032-43.912.008-65.868-.002-1.701.532-2.599 2.356-2.317-.032 23.512-.061 47.022-.09 70.533z"/><path fill-rule="evenodd" clip-rule="evenodd" fill="#D5D6D6" d="M245.145 71.758l2.341.036c-.15 10.846-.779 21.714-.311 32.532.444 10.289-.032 20.563.421 30.831.107 2.415-1.396 4.737-.23 7.147-4.455-.493-2.601-4.451-2.661-6.292-.296-9.163.239-18.35.349-27.529.118-9.89-.8-19.788.091-29.666.214-2.382-1.664-4.721 0-7.059z"/><path fill="#848586" d="M262.3 24.521c-.878-.258-2.059.33-2.583-.922-1.626-1.146-2.929-.553-4.137.531l.126.248-.095.144h.001c.028 11.784.049 23.567.101 35.35.005 1.251-.14 2.425-.833 3.49l5.781-1.306c-.924-.735-.511-1.76-.511-2.653-.005-9.255.211-18.507-.007-27.768-.053-2.305-1.113-5.551 2.157-7.114z"/><path fill="#808182" d="M237.833 33.254c.002-1.142-.513-2.459.757-3.338l.013-.564-.932-1.56c-1.71-.539-3.031-.094-4.061 1.071l.156.313-.106.175-.037 38.103.236.271 3.978-1.036c-.006-11.144-.025-22.289-.004-33.435z"/><path fill="#7F8182" d="M249.463 27.505c-1.279-1.917-2.74-2.415-4.48-.715l.104.096.018 38.207c1.353-.282 2.876.38 4.078-.737l.027-36.675.253-.176z"/><path fill="#848687" d="M244.349 26.795l.039-.021c.063-.435-.065-.829-.479-1.041-2.453-1.259-3.481-.484-4.636 3.438-.229.042-.451.102-.669.181l-.013.564c.349.179 1.005.359 1.005.537-.053 12.063-.158 24.125-.258 36.188l3.363-.84c-.008-11.836-.026-23.674-.01-35.51.001-1.379-.559-3.125 1.658-3.496z"/><path fill="#7E8081" d="M231.265 65.166c.026-11.171.031-22.343-.008-33.514-.006-1.741.674-2.504 2.404-2.301l.106-.175-.156-.313c-1.078-2.02-2.875-1.51-4.656-1.054l-.137 4.059c-.044 12.39-.089 24.781-.134 37.171l5.177-1.313-.236-.271c-1.827.307-2.364-.618-2.36-2.289z"/><path fill="#7F8182" d="M253.277 28.031c.004-1.604-.682-3.837 2.334-3.51l.095-.144-.126-.248c-1.229-2.411-2.99-1.392-4.73-.504l-.158 3.095c-.129.213-.237.436-.332.663.149.061.299.153.448.3-.026 12.177-.054 24.353-.081 36.529.884-.08 1.839.106 2.539-.673-.003-11.836-.021-23.672.011-35.508z"/><path fill="#9B9C9D" d="M244.982 26.79c-.181-.153-.379-.161-.595-.016l-.039.021c-2.217.371-1.656 2.117-1.658 3.496-.017 11.836.002 23.674.01 35.51.89.061 1.742 0 2.404-.709l-.018-38.207-.104-.095z"/><path fill="#9B9C9E" d="M255.612 24.521c-3.017-.327-2.331 1.906-2.335 3.51-.032 11.836-.015 23.671-.012 35.507l1.614-.177c.693-1.065.838-2.239.833-3.49-.051-11.783-.071-23.566-.1-35.35zM231.257 31.652c.039 11.171.034 22.343.008 33.514-.004 1.671.534 2.596 2.359 2.288.012-12.7.024-25.401.037-38.103-1.73-.204-2.41.56-2.404 2.301z"/>
</svg>