<svg xmlns="http://www.w3.org/2000/svg" width="480" height="320" viewBox="0 0 480 320"><g fill-rule="evenodd" clip-rule="evenodd"><path fill="#27272B" d="M139.34 219.996c-5.254-5.539-10.019-11.472-13.831-18.099-4.415-7.677-7.912-15.845-7.492-24.808.477-10.177 1.201-11.178 12.067-13.487-2.637-4.088-5.339-7.97-7.724-12.038-4.87-8.312-9.657-16.677-10.675-26.562-.776-7.541 4.37-12.788 10.646-13.953 5.167-.959 4.911-.713 2.87-5.807-2.838-7.085-5.818-14.131-6.004-22.042-.206-8.756 3.72-14.857 11.825-16.727 5.242-1.21 9.66 1.667 13.789 4.078 2.891 1.688 2.637.593 3.011-1.54 1.194-6.821 2.111-13.662 8.476-18.287 5.469-3.975 11.782-3.191 17.315-.727 4.537 2.021 8.036 5.457 10.949 9.146 8.728 11.055 16.503 22.754 21.017 36.292-1.452 1.608-3.376 1.175-5.19 1.214-9.473-1.307-16.212 5.676-16.85 14.644-.363 5.109-1.188 5.661-5.779 3.763-6.393-2.643-10.918-.796-13.777 5.645-2.43 5.476-3.312 11.101-1.625 16.98.381 1.328.748 2.67.935 4.041.492 3.604-.512 4.818-4.074 5.026-9.636.563-13.184 5.165-11.69 14.676.905 5.763 2.182 11.335 4.549 16.719 2.037 4.634 1.234 5.767-3.633 7.007-3.723.948-7.231 5.871-8.095 10.715-.965 5.403-.523 10.736.121 16.099.08 2.05.976 3.969.982 6.018.005 1.35.102 2.931-2.113 2.014z"/><path fill="#C42518" d="M254.746 80.634c-9.332-2.296-13.062-9.658-15.577-17.796-.802-2.593-2.52-4.883-2.489-7.793.027-2.57 1.122-3.903 3.624-4.018 2.864-.132 5.738-.278 8.601-.185 3.024.1 4.142-1.134 3.282-4.023-.783-2.632-1.631-5.247-2.504-7.85-2.11-6.291.484-9.531 7.127-8.771 4.924.564 9.799-.277 14.699-.366 2.084-.037 2.016-1.411 1.623-2.912-1.142-4.359-2.172-8.75-3.457-13.067-.594-1.997-.038-2.599 1.884-3.123 4.3-1.175 8.454.066 12.591.585 7.624.955 15.326 1.794 22.552 4.716 3.035 1.228 2.985-1.205 2.835-2.684-.27-2.655.253-5.219.317-7.823.096-3.881 1.717-4.755 5.24-3.354 5.386 2.14 10.84 4.42 14.461 9.027 6.648 8.457 13.253 16.859 14.313 28.441.719 7.85-.888 15.182-2.168 22.682-.08 2.409-1.742 4.206-2.448 6.377-.457 1.163-1.109 2.204-1.868 3.193-4.284 5.583-6.261 5.569-10.624.011-2.88-3.669-5.404-7.639-8.977-10.732-2.846-2.465-6.139-4.145-9.609-5.516-13.188-6.038-24.228-.852-34.534 6.946-5.621 4.252-10.433 9.45-14.694 15.124-1.019 1.352-2.021 3.075-4.2 2.911z"/><path fill="#ADB6BF" d="M254.746 80.634c5.618-5.966 10.453-12.649 16.949-17.813 6.452-5.128 13.547-9.097 21.52-10.875 5.279-1.176 10.451 1.228 15.515 2.844-.164 2.32-2.082 1.912-3.396 1.934-15.971.263-28.136 8.112-38.405 19.455-9.99 11.032-17.419 23.758-24.357 36.894-6.512 12.327-13.258 24.548-19.923 36.804-4.281 7.873-8.057 16.024-12.796 23.654-7.946 12.796-16.076 25.476-24.366 38.05-3.125 4.74-6.268 9.462-7.992 14.94-.801 2.544-.844 4.952 1.673 6.668 3.015 2.058 2.82 4.663 1.594 7.674-2.119 5.205-1.741 6.011 3.516 7.88 3.225 1.146 5.641 2.821 5.968 6.595.275 3.175 2.688 4.434 5.347 5.011 7.972 1.729 15.979 3.614 24.214 2.584 5.055-.632 10.121-1.034 15.155-2.154 21.878-4.873 33.72-18.96 38.522-40.214 3.108-13.754 2.845-27.38.105-41.086-.297-1.48-.729-2.998-.179-4.504.643-1.761 1.609-3.434 3.717-3.364 2.012.064 2.641 1.871 3.011 3.492.706 3.097 1.329 6.245 1.672 9.381 1.464 13.393 1.696 26.766-1.907 39.928-2.388 8.717-5.631 17.06-11.183 24.311-6.535 8.534-15.441 13.561-25.35 17.224-14.345 5.302-29.011 4.94-43.805 2.912-3.723-.511-7.156-2.108-10.688-3.282-2.709-.9-4.743-3.018-5.577-5.782-.791-2.619-2.456-4.067-4.696-5.431-4.579-2.785-7.352-6.676-6.048-12.43.38-1.678.375-3.335-.617-4.803-3.425-5.072-2.305-10.192-.472-15.468 2.409-6.933 7.195-12.415 10.981-18.491 10.218-16.403 21.015-32.438 30.197-49.488 2.864-5.319 2.237-10.438.939-15.666-2.695-10.857-5.744-21.619-9.833-32.062-1.339-3.42-4.145-6.298-3.892-10.318l5.72-.2c7.334 13.926 10.825 29.119 14.947 44.455 2.264-2.288 3.34-5.398 4.798-8.184 5.126-9.801 10.471-19.477 15.884-29.122 4.219-7.517 9.031-14.634 13.538-21.953z"/><path fill="#C32418" d="M355.416 120.469c4.333 6.988 7.216 14.641 8.908 22.579 1.33 6.236 2.571 12.604 2.065 19.131-.256 3.298-2.377 5.783-3.207 8.796-1.428 3.014-4.142 4.543-6.919 6.01-5.128 2.259-10.51 2.407-15.878 1.488-10.298-1.762-16.594-8.761-17.559-19.177-1.143-12.334 1.447-24.179 4.789-35.915.456-1.602 1.326-3.036 2.619-4.16 4.114-1.005 8.258-1.682 12.512-1.061 2.992.438 5.988.304 8.989.101 1.707-.115 3.369-.051 3.681 2.208z"/><path fill="#ADB6BF" d="M356.929 175.983c1.925-1.87 3.835-3.758 6.254-5.008 1.815 10.745 3.83 21.408 2.24 32.47-.912 6.353-.648 12.936-2.624 19.089-4.59 14.306-11.065 27.441-21.475 38.772-7.703 8.387-16.82 14.528-26.232 20.344-5.656 3.494-12.213 5.499-18.657 7.425-.488.146-.89.582-1.331.886-6.298 2.568-12.966 3.555-19.65 4.132-4.374.378-8.749.648-13.079 1.417-5.727-.657-11.515-.223-17.238-.934-6.312-.742-12.723-.708-18.934-2.299-1.099-1.157-2.435-1.577-4.036-1.766-10.815-1.276-21.329-4.1-31.086-8.737-12.371-5.878-23.134-13.974-30.432-26.089-4.517-7.501-7.894-15.259-9.097-23.999-.59-4.292-5.175-5.387-7.757-8.12-1.294-1.369-2.957-2.391-4.454-3.57 1.167.012 1.793-.357 1.271-1.668-.838-2.097-1.294-4.28-1.326-6.545 1.294-.462 2.228.307 2.86 1.159 3.089 4.173 7.424 7.014 11.087 10.568 2.973 2.884 4.854 6.098 5.369 10.396 1.514 12.636 8.663 22.109 17.659 30.559 10.68 10.028 23.741 14.872 37.672 17.998 10.108 2.27 20.314 4.107 30.633 4.828 13.947.976 27.826.053 41.626-2.476 13.01-2.386 24.908-7.149 35.654-14.884 15.836-11.394 27.284-25.975 33.416-44.67 4.8-14.635 5.734-29.444 3.144-44.562-.287-1.664-.819-3.196-1.477-4.716z"/><path fill="#DF9548" d="M226.202 292.277c3.885-1.483 7.655.525 11.52.525 2.269 0 4.979-.395 7.156 1.157 4.427 2.577 9.379 3.805 14.175 5.399 1.652.548 3.017 1.222 3.942 2.692.656.196 1.442.227 1.937.622.898.721 2.448 1.226 1.983 2.768-.382 1.266-1.796 1.129-2.834 1.299-2.229.367-5.429-1.501-6.466.591-.739 1.491 2.375 3.479 3.478 5.427.362.641.824 1.47.13 2.298-.695.828-1.401.462-2.218.221-5.72-1.685-11.492-3.201-17.166-5.028-2.222-.717-2.392.048-2.124 1.832.314 2.104 1.707 4.882-.278 6.108-1.829 1.131-3.575-1.611-5.434-2.485-1.844-.864-3.827-1.929-5.089-3.452-4.096-4.944-9.907-5.391-15.513-6.478-1.147-.224-2.843.412-3.184-1.117-.361-1.618 1.222-2.289 2.468-2.864 2.991-1.38 5.896-3.289 9.044-3.893 3.57-.685 4.558-2.495 4.473-5.622z"/><path fill="#DF9347" d="M262.313 294.75c4.888-2.399 10.278-1.671 15.401-2.06 5.913-.45 11.39-3.24 17.39-2.729 2.509 1.811 5.686 1.503 8.44 2.691 3.24 1.399 6.439 2.847 9.563 4.488.878.461 1.995.808 1.766 1.911-.265 1.271-1.592 1.463-2.675 1.405-1.768-.097-3.518-.498-5.284-.591-.708-.039-1.779-.319-2.089.746-.21.723.352 1.246.874 1.726 1.908 1.755 4.574 3.982 2.929 6.378-1.385 2.014-4.195-.387-6.321-.925-4.115-1.043-8.176-2.318-12.228-3.602-2.637-.836-2.883.35-2.297 2.439.258.921.656 1.836.728 2.773.165 2.228-.609 3.01-2.957 2.059-4.352-1.767-7.724-4.907-11.224-7.807-3.422-2.833-7.302-3.021-11.349-3.007-.726.253-1.312-.212-1.965-.362-1.682-.385-3.577-.867-3.058-3.027.481-1.999 1.976-3.282 4.356-2.506z"/><path fill="#FAC000" d="M355.416 120.469c-.928-.697-1.537-1.544-3.148-1.251-3.755.681-7.549.202-11.37-.172-3.583-.351-7.281.496-10.929.816-1.846.512-3.787.585-4.823-1.21-1.119-1.944.633-3.304 1.685-4.705 4.29-5.713 10.421-8.494 16.981-10.518 2.615-.807 5.192.216 7.774.571 2.05.925 4.208 1.648 5.976 3.118 3.445 2.831 7.556 4.966 9.613 9.243.462.959 1.599 1.786 1.087 2.949-.548 1.241-1.908.681-2.927.917-3.301.767-6.675-2.045-9.919.242z"/><path fill="#AEB7BF" d="M357.562 107.119c-2.233.087-4.016-.963-5.704-2.254-2.809-12.818-6.646-25.267-13.235-36.723.448-2.246 1.537-4.154 3.076-5.823 9.619 13.4 14.79 28.374 15.863 44.8z"/><path fill="#FBF8F4" d="M262.313 294.75c-1.647.408-3.591 1.237-3.595 2.818-.003 2.326 2.909 1.886 4.262 3.079l.015 1.404c-4.605-1.626-9.172-3.378-13.836-4.817-1.944-.6-3.596-1.202-4.281-3.274 5.84-.372 11.672-.564 17.435.79z"/><path fill="#FEFEFE" d="M338.622 68.142c1.59.233 2.227 1.441 2.859 2.71 4.913 9.84 8.265 20.225 10.832 30.885.264 1.091.414 2.192-.458 3.127-9.518-1.839-17.138 1.968-23.449 8.539-4.19 4.363-3.886 4.658 1.562 6.459-3.143 8.335-4.837 17.021-5.879 25.814-.819 6.903-.996 13.858 1.608 20.518 4.128 10.556 15.909 13.489 26.831 10.896 1.47-.349 2.931-.735 4.398-1.106.926.143 2.033-.003 2.232 1.333 1.323 8.818 2.277 17.604 1.379 26.597-.757 7.567-1.736 14.968-4.375 22.161-3.518 9.589-7.933 18.552-14.405 26.595-4.72 5.864-10.07 10.973-15.827 15.658-12.434 10.118-26.911 15.806-42.646 18.121-11.521 1.695-23.055 2.594-34.829 1.969-16.032-.853-31.589-3.663-46.878-8.167-15.772-4.645-28.013-14.462-37.33-27.745-3.946-5.626-6.318-12.307-6.904-19.244-.282-3.335-1.437-5.851-3.765-7.878-4.966-4.327-9.767-8.816-14.293-13.6-.947-5.581-.619-11.145.083-16.729.796-6.325 5.058-10.536 11.053-10.771 1.06-.043 2.385-.095 1.652-1.902-.712-1.754-.691-3.652-1.561-5.475-2.582-5.404-3.456-11.306-4.226-17.224-.926-7.124 2.46-15.012 12.645-14.007 4.819.476 3.769-2.709 3.135-4.359-2.791-7.265-1.69-14.228.642-21.245 1.865-5.611 9.39-8.867 14.708-6.331 4.917 2.344 4.818 2.336 5.239-3.224.724-9.593 8.25-15.954 17.205-14.881 3.834 7.265 7.025 14.766 9.314 22.692 2.629 9.102 5.623 18.063 6.764 27.565.399 3.322-.987 5.688-2.273 8.083-7.335 13.671-15.404 26.914-23.927 39.883-4.955 7.536-10.132 14.948-14.681 22.724-2.598 4.442-4.828 9.312-4.214 14.822.076.685-.164 1.656.208 2.021 3.684 3.602 2.592 7.966 2.351 12.327-.195 3.536 2.574 5.777 5.141 7.371 2.725 1.692 5.223 2.813 5.839 6.594.371 2.274 2.654 4.339 5.07 5.091 19.956 6.219 39.621 6.298 59.162-2.182 15.029-6.521 23.522-18.109 28.66-33.119 3.748-10.952 4.605-22.212 4.485-33.537-.071-6.783-1.526-13.56-2.54-20.313-.211-1.397-.177-3.956-2.698-3.174-1.97.613-2.8 2.449-2.271 4.706 1.347 5.759 1.857 11.597 2.253 17.514.541 8.113.123 15.993-1.645 23.94-1.35 6.067-2.969 11.924-5.631 17.586-6.558 13.946-18.041 21.479-32.343 25.27-13.648 3.619-27.408 3.653-41.108.037-3.73-.982-7.129-2.157-6.884-7.237.151-3.145-2.746-3.749-5.135-4.49-6.133-1.903-6.978-3.86-3.859-9.615 1.316-2.427 1.629-4.438-1.172-5.877-3.49-1.788-3.384-4.59-2.423-7.771 1.701-5.633 4.975-10.423 8.077-15.304 5.228-8.23 10.515-16.421 15.756-24.644 3.771-5.916 7.641-11.774 11.216-17.807 3.204-5.406 6.129-10.98 9.065-16.541 3.768-7.134 7.372-14.355 11.146-21.486 4.036-7.625 8.062-15.259 12.312-22.765 8.953-15.809 18.189-31.488 33.183-42.519 7.688-5.656 16.233-9.585 26.096-9.79 1.869-.039 3.896.48 5.576-.902 7.706 2.536 12.921 8.052 17.386 14.483 1.097 1.579 2.186 3.182 3.451 4.621 1.615 1.833 3.354 2.391 5.024-.074 1.302-1.919 3.153-3.452 4.031-5.677z"/><path fill="#D9DDE2" d="M198.848 252.995c-1.048.253-1.825-.342-2.367-1.162-.781-1.183.417-1.682.985-2.363.646-.775 1.546-1.082 2.51-1.317 9.032-2.215 16.854-6.697 23.99-12.585 3.825-3.152 7.227-6.612 9.73-10.896.64-1.095 1.237-2.188 2.448-2.683.93-.382 1.891-.333 2.726.354.784.646.605 1.386.338 2.233-.793 2.522-1.92 4.794-3.703 6.823-6.436 7.325-14.373 12.749-22.581 17.767-4.221 2.579-9.059 3.69-14.076 3.829zM214.705 210.347c-2.094 3.623-3.975 7.621-6.536 11.119-3.23 4.41-7.215 8.193-11.582 11.562-1.632 1.258-2.912 1.513-4.188-.181-1.446-1.917.396-2.58 1.458-3.539 4.535-4.092 9.305-7.938 11.771-13.855 1.021-2.451 3.542-4.067 4.059-6.983.188-1.061 1.564-2.023 3.008-1.398 1.253.54 1.579 1.803 2.01 3.275z"/><path fill="#0C0C0C" d="M311.952 94.026c3 .172 4.902 1.509 4.921 4.231.02 2.685-1.998 4.361-4.464 4.412-2.41.05-4.386-1.13-4.397-4.221-.012-3.025 1.899-3.871 3.94-4.422z"/><path fill="#040404" d="M342.98 92.018c3.351-.031 5.01 1.492 4.989 3.94-.017 2.031-1.083 4.325-3.526 4.433-2.635.116-4.377-1.503-4.456-4.307-.069-2.437 1.447-3.641 2.993-4.066z"/></g></svg>