<svg xmlns="http://www.w3.org/2000/svg" width="480" viewBox="0 0 480 320"><g fillRule="evenodd" clipRule="evenodd"><path fill="#C0B2A5" d="M255.511 278.853c-4.341-1.664-8.935-2.415-13.35-3.946-9.983-3.465-18.295-9.111-25.235-16.915-1.472-1.653-3.16-1.899-5.188-2.096-11.839-1.146-24-.597-35.121-5.838-3.482-1.643-6.421-2.774-10.509-1.085-3.283 1.357-6.117-1.941-8.637-3.983-2.313-1.875-4.206-4.267-6.935-7.108v5.153c-.002 4.537-1.44 5.641-5.643 3.774-2.863-1.272-5.455-3.152-8.889-4.104 4.568 5.807 9.089 11.651 13.728 17.4 1.921 2.381 4.209 4.466 6.109 6.862 1.119 1.409 1.964 3.207.837 5.04-1.139 1.853-3.088 1.833-4.893 1.475-12.42-2.473-23.161-8.228-32.695-16.513-7.407-6.436-13.865-13.614-19.375-21.751-3.875-5.72-6.672-11.889-8.637-18.401-5.465-18.111-3.841-36.256 1.864-53.823 4.739-14.589 12.719-27.563 23.577-38.78 8.736-9.024 18.688-15.47 31.052-17.617 21.671-3.762 44.053 8.959 49.846 31.553.551 2.151 1.546 4.305 1.543 6.457-.005 4.716 1.684 7.028 6.721 7.22 10.415.397 20.813 1.233 31.218 1.888 2.388 1.5 1.817 3.367.659 5.311-7.113.627-14.229.138-21.282-.548-13.625-1.326-27.262-2.487-40.911-3.51-5.738-.43-11.471-.491-16.872 2.08-5.625 2.678-7.081 7.837-3.648 13.142 1.759 2.717 4.192 4.867 6.226 7.356 1.08 1.322 2.291 2.624 1.455 4.48-.811 1.797-2.553 1.995-4.266 2.099-2.778.17-5.602-.188-8.304.823-5.248 1.962-6.159 5.289-2.641 9.659 3.017 3.747 6.507 6.911 10.847 9.078 1.25.622 2.479 1.301 3.525 2.25 1.407 1.278 2.467 2.736 1.98 4.769-.466 1.943-2.069 2.438-3.776 2.819-2.559.571-6.029.678-6.459 3.68-.444 3.096 3.069 3.922 5.284 5.191 4.136 2.373 8.61 4.012 13.081 5.642 1.88.685 3.703 1.506 3.831 3.911.13 2.439-1.605 3.273-3.465 4.148-3.248 1.529-3.38 2.758-.285 4.89 7.195 4.959 15.306 7.369 23.958 8.114 15.323 1.319 30.701 2.279 46.011.681 18.103-1.891 35.552-6.324 50.253-17.87 5.267-4.137 9.957-9.005 13.557-14.771.637-.915 1.274-1.83 1.806-2.816 2.915-5.43 2.912-5.419-2.497-7.813-1.533-.68-3.326-1.246-4.194-2.663-2.025-3.303-4.438-2.864-7.487-1.622-9.688 3.951-15.286 2.06-20.604-6.913-1.382-2.332-3.026-2.121-4.942-1.234-3.803 1.757-7.782 2.181-11.869 1.619-4.822-.66-8.127-3.581-8.628-8.322-.46-4.355-.927-8.898 1.955-12.83 2.314-.302 3.714.984 4.825 2.773.265 1.952-.146 3.895-.101 5.852.104 4.591 1.842 6.295 6.446 6.062 2.257-.113 4.378-.848 6.426-1.783 1.781-.813 3.585-1.569 5.445-2.181 2.635-.867 4.504-.008 5.049 2.736 2.044 10.288 8.345 11.193 16.886 6.669 4.268-2.26 7.108-1.574 9.816 2.081 3.551 4.795 7.26 5.671 12.547 2.97 1.123-.574 2.114-1.359 3.186-2.017 2.227-1.366 4.151-.994 6.079.729 5.533 4.943 10.052 5.56 16.019 1.321 3.857-2.739 7.231-2.801 11.273-.872 3.204 1.528 6.699 2.523 9.715-.56 2.123-2.17 2.657-7.415.118-10.627-4.524-5.724-3.243-11.368-2.05-17.792 4.023-21.659 5.493-43.522-4.348-64.095-10.906-22.799-28.916-36.675-54.702-38.538-9.792-.706-19.411 1.008-28.336 5.829-10.064 5.438-15.216 14.402-18.808 24.653-.632 1.806-.447 3.938-2.186 5.292-1.676.579-3.3.859-4.601-.771 2.454-10.902 6.021-20.952 15.105-28.654 6.116-5.186 13.083-7.922 20.223-10.735 7.012-2.961 14.364-2.793 21.709-2.157 16.194 1.402 29.811 8.72 41.764 19.217 4.568 4.011 8.353 8.959 11.284 14.408 1.585 2.948 3.396 5.735 5.554 8.294-1.543.983-1.06 2.237-.556 3.576 5.729 15.222 7.294 30.838 5.861 47.077-.739 8.379-2.176 16.523-3.957 24.665-.355 1.624.085 2.587 1.028 3.741 3.976 4.864 5.104 10.241 3.358 16.414-1.329 4.695-4.406 7.062-8.864 7.542-2.936.316-3.76 1.477-4.447 4.283-3.319 13.565-10.282 25.397-18.554 36.466-7.346 9.829-16.348 17.882-27.167 23.772-3.571 1.944-7.972 2.365-10.699 5.857-3.704-.126-6.433 2.667-9.884 3.299-.947-1.265-2.024-1.202-3.571-.955-6.164.982-12.33 2.465-18.652 1.173-1.118-.229-1.861.305-2.175 1.409-3.364-.17-6.765-.176-9.744-2.115z"/><path fill="#DE0416" d="M363.533 102.647c-1.551.133-2.556-.449-3.239-1.947-3.251-7.124-7.649-13.625-13.306-18.894-7.69-7.165-16.292-13.163-26.502-16.554-10.055-3.34-20.247-4.292-30.751-3.248-2.193.218-4.208 1.707-6.513.881 2.36-11.627 6.466-22.436 13.665-32.079 5.932-7.944 13.116-14.239 21.807-18.837 5.993-3.171 12.613-4.592 19.146-6.115 4.802-1.12 9.642-2.021 14.691-1.285 7.553 1.098 10.656 5.496 8.391 12.738-1.813 5.795-4.957 10.985-8.353 16.686 5.747-1.539 10.858-1.571 16.237-.049 8.949 2.532 13.322 10.967 6.969 20.293-1.684 2.469-3.831 4.622-6.029 7.234 4.289 1.708 8.609 2.913 12.518 5.246 6.705 3.999 10.667 9.489 9.926 17.354-.715 7.587-6.359 11.454-12.742 14.092-5.095 2.108-10.427 3.639-15.915 4.484zM237.683 158.699l-.784-4.985c-.679-7.295 2.532-13.578 5.553-19.78 1.273-2.615 2.165-5.611 4.47-7.688 1.32-1.569 2.805-.455 4.203-.217 3.397.575 6.756.886 10.252.891 5.636.006 9.487-2.166 12.181-6.887 1.557-.59 2.713.218 3.738 1.191 8.254 7.833 14.001 17.077 16.931 28.211 4.167 15.834-8.529 30.174-23.817 30.958-5.82.298-11.715.593-16.787-3.206l-4.256-2.284c-3.599.075-4.923-3.217-7.318-4.929-2.025-2.139-3.139-4.817-4.354-7.427-.583-1.248-1.116-2.565-.012-3.848z"/><path fill="#FBC500" d="M273.996 119.967c-2.31 6.309-3.943 7.068-10.204 7.848-5.846.728-11.308-.448-16.87-1.571-2.67-1.477-5.26-3.132-8.028-4.4-7.114-3.261-13.116-8.283-19.78-12.25-1.613-.959-3.108-2.355-2.596-4.361.497-1.946 2.432-2.549 4.284-2.788 9.021-1.158 18.049-1.709 27.09-.169l4.714.365c8.521-.119 19.824 5.203 21.449 12.167.411 1.761 1.219 3.449-.059 5.159z"/><path fill="#F7B402" d="M289.653 279.34c2.91-2.259 5.707-4.853 9.887-3.296 2.201 5.248 3.479 10.758 4.406 16.344.68 4.103 1.439 4.749 4.909 2.608l8.235-3.997c1.024-.638 1.903-1.217 3.004-.354 1.594 1.248.113 2.292-.387 3.243-.701 1.333-1.722 2.499-2.937 4.198 3.014-1.244 5.69-2.118 8.516-2.352.802-.066 1.753-.486 2.2.499.435.955-.464 1.425-1.007 2.051-1.802 2.081-4.03 3.645-7.118 5.727 2.491-.243 4.055-.356 5.605-.558 1.208-.157 2.746-.833 2.995 1.013.157 1.17-.439 2.256-1.904 2.875-6.4 2.71-13.005 4.639-19.851 5.777-1.374.229-2.747.47-4.119.71-4.12.723-5.732-.319-5.283-4.476.752-6.948-2.02-13.004-4.127-19.224-1.203-3.555-2.418-7.077-3.024-10.788z"/><path fill="#F7B502" d="M255.511 278.853c3.245.723 6.91-.481 9.745 2.119-.547 4.67-1.039 9.351-1.657 14.015-.354 2.674.781 2.995 3.136 2.671 3.354-.464 6.769-.515 10.16-.69.979-.052 2.133.014 2.461 1.123.329 1.116-.74 1.702-1.463 2.301-1.687 1.4-3.542 2.514-5.716 3.38 2.663.119 5.329.209 7.989.372 1.165.072 2.909-.419 2.998 1.365.082 1.65-1.233 2.8-2.817 3.14-1.735.371-3.598.174-5.613 1.462 1.457.377 2.556.646 3.646.95 1.435.398 3.57.466 3.436 2.344-.15 2.098-2.35 2.046-3.994 2.115-2.634.11-5.296.313-7.904.052-4.814-.479-9.63-1.098-14.388-1.968-5.977-1.093-7.177-3.476-3.688-8.486 2.907-4.176 2.348-8.695 2.43-13.086.083-4.459.849-8.788 1.239-13.179z"/><path fill="#FEFEFE" d="M273.996 119.967c-.81-8.151-5.723-13.51-13.575-15.077-2.648-.527-5.211-1.488-7.813-2.251 3.07-19.486 17.221-33.662 37.879-35.887 13.853-1.492 26.518.731 38.444 7.24 10.151 5.54 17.996 13.645 24.279 23.498 6.289 9.861 9.691 20.581 11.079 31.958 1.111 9.103.478 18.294-.174 27.443-.487 6.837-2.13 13.438-3.764 20.057-.759 3.077.265 5.776 2.422 8.048 2.378 2.505 2.998 5.728 2.829 8.878-.369 6.865-5.934 9.812-12.682 6.378-4.044-2.058-6.712-2.484-10.738.671-6.113 4.791-12.006 3.623-17.12-1.934-1.744-1.895-3.436-1.655-5.066-.163-1.93 1.767-4.197 2.868-6.665 3.283-4.033.681-7.632.22-9.957-4.017-2.429-4.43-4.418-4.79-8.761-2.469-1.227.654-2.512 1.21-3.806 1.723-9.503 3.77-13.025-1.717-14.229-8.03-.745-3.922-1.93-4.011-5.274-2.676-4.405 1.757-8.502 4.757-13.888 3.548-3.614-.81-5.003-2.417-4.699-6.007.2-2.352-.162-4.758.905-6.994 6.036 2.026 12.309 3.032 18.561 2.16 12.163-1.697 22.48-11.287 21.654-24.544-.906-14.537-9.036-25.602-19.841-34.836zM237.683 158.699c.645 4.11 2.877 7.467 5.129 10.818 1.329 3.273.122 6.614.17 9.915.207 14.583 9.646 23.279 24.255 22.022 2.231-.192 4.292.048 5.534 2.095 6 9.884 14.686 9.735 24.217 6.617 5.525-1.807 10.172 1.771 9.623 7.384-6.939 10.627-16.302 18.226-27.814 23.642-15.667 7.371-32.129 9.807-49.231 10.182-14.777.323-29.444-.14-43.951-2.975-5.625-1.101-10.784-3.593-15.355-7.175-1.229-.963-2.618-2.043-2.227-3.607.316-1.264 1.633-2.148 3.157-2.436 1.752-.327 3.799-.483 3.688-3.068-.103-2.385-2.036-2.642-3.764-3.232-5.683-1.944-11.218-4.216-16.315-7.467-1.719-1.098-3.522-2.308-3.295-4.446.225-2.122 2.408-2.946 4.14-3.705 1.367-.598 2.954-.809 4.464-.929 1.383-.111 2.485-.37 2.864-1.871.353-1.395-.182-2.467-1.31-3.261-1.137-.802-2.23-1.722-3.475-2.304-4.888-2.29-8.809-5.746-12.223-9.838-3.474-4.162-2.744-8.089 1.975-10.597 3.087-1.643 6.437-1.642 9.81-1.46 1.5.08 3.234.557 4.09-1.223.903-1.876-.738-2.577-1.797-3.691-2.271-2.39-4.462-4.894-6.379-7.571-4.29-5.99-1.566-12.722 5.904-15.312 5.282-1.831 10.725-1.776 16.121-1.402 14.216.987 28.412 2.258 42.617 3.398 6.457.519 12.919.999 19.378 1.497zM92.622 198.995c-1.095-31.015 10.085-57.021 33.375-77.187 15.892-13.76 32.626-15.59 50.739-4.986 9.809 5.743 15.372 15.262 17.378 26.442 1.293 7.207.927 7.235-6.494 7.004-7.367-.229-14.703-1.196-22.098-.802-9.583.51-15.813 4.996-18.451 13.445-.559.939-.709 2.072-1.635 2.852-3.137 2.64-4.265 6.103-3.934 10.113.268 3.245-.828 5.711-3.918 7.159-2.634 1.234-3.774 3.55-4.37 6.28-1.12 5.127-.95 10.215-.273 15.401.339 2.594 1.479 6.563-1.358 7.625-2.94 1.101-4.311-2.823-5.862-4.942-2.726-3.725-4.754-7.887-6.542-12.152-.412-.984-.693-2.425-2.022-2.368-1.521.064-1.875 1.562-2.096 2.771-.705 3.876-.768 7.842-.146 11.683 1.004 6.207 1.261 12.513 2.584 18.67.176.819.33 1.649.341 2.488.027 2-.022 4.155-2.133 5.057-1.852.79-3.128-.805-4.275-1.969-7.306-7.409-13.23-15.793-17.648-25.23-1.104-2.358-.379-4.967-1.162-7.354z"/><path fill="#EDE8E5" d="M92.622 198.995c2.962 12.725 10.979 22.355 19.493 31.651.912.995 1.733 3.122 3.54 2.114 1.385-.772 1.416-2.664 1.19-4.219-.946-6.542-2.046-13.064-2.911-19.617-.638-4.831-.88-9.695.193-14.522.38-1.708 1.029-3.368 2.966-3.621 2.169-.283 2.131 1.767 2.714 3.087 2.907 6.592 5.886 13.137 11.582 18.501 1.003-3.425.951-6.599.26-9.636-1.184-5.207-.267-10.254.795-15.262.415-1.952 1.314-4.303 3.485-4.967 3.789-1.159 4.988-3.571 4.458-7.232-.834-5.771 2.542-9.276 6.685-12.361.412 5.738 2.471 10.769 6.922 15.181l-6.459 2.161c-8.515 2.851-10.738 11.464-4.673 18.19 2.718 3.015 5.552 5.932 9.099 7.979 1.865 1.076 2.132 1.798.236 3.232-8.284 6.264-7.257 10.781 1.52 16.541 3.187 2.092 6.996 3.243 10.545 4.768 1.023.439 2.237.525 1.514 2.201-2.714 6.278-2.694 6.286.171 11.119-2.977-.291-5.238-1.551-6.918-3.635-4.352-5.396-9.027-10.576-11.821-17.07-.583-1.356-1.331-3.136-3.311-2.322-2.042.839-1.63 2.553-1.008 4.265 1.867 5.138 1.936 10.585 3.031 16.437-5.066-2.203-8.537-5.638-11.889-8.998-2.718-2.724-4.719-6.179-6.942-9.377-.863-1.24-1.784-2.42-3.353-1.738-1.746.76-.937 2.349-.675 3.663 2.265 11.36 9.336 20.047 16.074 28.923 3.504 4.616 7.235 9.046 11.041 13.573-6.915-1.628-13.518-3.941-19.298-7.824-11.451-7.689-20.869-17.54-28.48-29.027-4.077-6.153-6.822-12.896-8.093-20.275-.683-3.954-2.298-7.749-1.683-11.883z"/><path fill="#F0EDEA" d="M331.534 245.896c-5.184 7.636-12.244 13.315-19.986 17.983-21.614 13.03-44.516 14.974-68.243 6.685-7.356-2.569-14.174-6.296-19.587-12.135-.53-.574-1.432-.965-1.128-2.474 6.375.39 12.785-.289 19.212-.695 10.021-.634 19.682-2.916 29.151-6.148.912-.312 1.892-.431 2.839-.64 2.942 1.858 5.921.926 8.88.083 5.778-1.646 11.502-3.519 16.785-6.388 4.679-2.539 9.725-4.21 14.445-6.588 5.171-2.603 9.902-.721 14.396 1.336 3.628 1.661 2.646 5.783 3.236 8.981z"/><path fill="#FCFBFB" d="M331.534 245.896c-1.756-.865-1.5-2.492-1.502-4.011-.004-2.985-1.807-4.103-4.39-5.207-8.283-3.548-14.911 1.22-21.493 4.431-8.278 4.04-16.646 7.516-25.598 9.601-2.137.496-4.288.879-4.76-2.237 9.594-4.216 18.794-8.996 26.473-16.39 4.8-4.622 9.131-9.514 12.258-15.417 2.995-2.139 6.561-2.994 9.887-4.386 1.793-.749 3.325-.219 4.57 1.064 4.782 4.936 10.401 4.497 16.266 2.646 1.577-.496 3.139-1.356 4.826-.552.92.439.944 1.266.501 2.116-2.437 7.857-6.596 14.696-11.791 21.055-1.866 2.284-3.138 5.106-5.247 7.287z"/><path fill="#EDE8E5" d="M306.611 217.55c-1.271-5.783-4.988-7.625-10.313-5.986-8.095 2.494-17.662 3.883-23.933-6.84-1.11-1.897-2.594-2.64-4.822-2.335-14.864 2.027-25.619-7.493-25.64-22.544-.005-3.482.08-6.932.909-10.328 2.184 1.794 4.369 3.59 6.554 5.386-1.088 4.143-1.977 8.328-1.037 12.608 1.023 4.664 3.635 6.809 8.354 7.239 4.122.375 8.027-.187 11.713-2.206 2.616-1.435 4.618-.8 5.258 2.271 1.378 6.617 10.954 10.119 17.079 7.406 1.145-.508 2.351-.896 3.448-1.487 2.847-1.533 4.917-2.101 6.81 1.774 1.319 2.698 4.738 3.814 7.883 3.999 2.761.159 3.114 1.192 1.877 3.394-1.421 2.527-1.983 5.518-4.14 7.649zM348.572 217.554c-.63-3.019-2.655-1.463-3.822-.862-3.379 1.733-6.922 1.757-10.521 1.591-2.237-.104-4.725-.383-5.979-2.317-2.661-4.101-5.897-3.012-9.068-1.286-2.141 1.166-4.396 1.482-6.659 1.986 1.3-3.021 2.595-6.044 3.897-9.063 1.326-3.076 4.851-4.538 7.363-2.692 7.47 5.49 14.716 3.776 21.527-.872 2.132-1.455 3.202-.354 4.754.083 1.981.558 1.854 2.167 1.797 3.724-.132 3.561-2.439 6.388-3.289 9.708z"/><path fill="#FAE5ED" d="M334.167 118.932c.151 5.003-3.495 9.658-9.422 12.208-9.244 3.977-19.926-.85-21.866-9.881-.932-4.334 1.973-10.922 6.596-13.404 8.133-4.366 21.494-2.991 24.44 10.03.091.404.193.807.252 1.047z"/><path fill="#131118" d="M274.53 95.051c-.166 2.745-2.528 3.63-4.539 3.791-2.062.166-3.882-1.481-3.711-3.812.175-2.36 1.037-5.168 3.829-5.134 2.634.034 4.357 2.11 4.421 5.155z"/><path fill="#131217" d="M296.269 96.448c2 .259 3.975.887 3.821 3.95-.136 2.737-1.69 4.17-4.193 4.267-2.571.099-4.251-1.434-4.033-4.078.184-2.242 1-4.388 4.405-4.139z"/><path fill="#F7D2DF" d="M318.255 112.563c5.607-.002 8.431 2.117 8.42 6.321-.01 4.085-3.688 7.148-8.538 7.107-4.364-.037-8.356-3.221-8.227-6.562.146-3.721 3.963-6.863 8.345-6.866z"/></g></svg>