<svg xmlns="http://www.w3.org/2000/svg" width="480" viewBox="0 0 480 320"><g fillRule="evenodd" clipRule="evenodd"><path fill="#B3B0AC" d="M72.986 72.378c-2.002-1.688-.662-3.953-.325-5.51 2.52-11.649 5.482-23.383 11.834-33.488 6.542-10.409 15.738-17.985 27.83-22.379 11.652-4.234 23.337-5.513 34.969-2.526 14.478 3.718 26.857 11.109 34.469 24.981 3.395 6.187 7.438 11.996 10.744 18.299 3.839 7.32 4.374 15.18 5.51 22.953 1.167 7.979 1.38 16.094 2.468 24.087 1.526 11.216 6.8 20.834 13.673 29.651-.073 2.009-1.649 1.77-2.887 1.82-11.986.488-20.024 7.522-27.055 16.244-1.212 1.503-1.711 3.669-3.936 4.235-7.114-1.566-7.138-1.583-11.624 4.863-1.213 1.743-2.366 3.299-4.779 1.937-2.662-4.797-1.873-10.322-3.247-15.436-2.06-7.669-3.769-15.479-6.107-23.039-3.211-10.383-9.145-19.389-17.166-26.873-1.438-1.342-3.3-2.29-3.798-4.425 1.095-3.587-.336-6.131-3.43-7.834-10.475-5.765-21.35-10.102-33.48-11.249-7.809-.739-14.525 2.368-21.634 4.271-.765.119-1.457-.024-2.029-.582z"/><path fill="#69707B" d="M180.426 150.478c6.107-11.102 14.876-18.677 27.585-21.331 2.073-.433 4.317 1.208 6.148-.7 15.395.883 29.836 4.784 41.411 15.431 7.057 6.492 13.111 14.054 20.52 20.262 1.926 1.615 4.23 2.485 6.074 4.108 4.658 1.648 8.818 4.629 13.453 6.014 6.098 1.822 7.938 5.65 6.115 12.843-.203.803-.523 1.567-.932 2.29-4.219 4.302-9.643 6.365-15.266 7.928-3.518.978-6.203 1.688-4.631 6.658 1.324 4.185-2.449 8.431-9.119 9.98-5.096 1.185-10.15 3.433-15.637 2.455-1.748-.312-2.721-.063-2.561 2.278.357 5.17-1.443 6.969-7.057 7.873-13.804 2.223-27.631 3.666-41.629 1.913-2.78-.348-5.638-.487-8.442.13-1.965.266-2.873-1.428-4.241-2.278-4.473-1.621-7.529-4.993-10.51-8.468-4.684-3.479-6.702-8.437-8.169-13.878-1.689-6.268-3.366-12.496-3.4-19.042.626-3.637-.327-7.31.204-10.954 2.299-6.185 3.235-12.826 6.179-18.785.906-1.832 1.31-4.229 3.905-4.727z"/><path fill="#E0DFDD" d="M134.165 87.417c7.758 5.977 12.855 14.043 17.931 22.226 3.441 5.549 4.308 11.763 5.985 17.796 2.736 9.835 5.497 19.665 6.034 29.944-2.03 3.784-6.196 5.739-10.261 3.228-6.876-4.247-11.85-2.852-17.5 2.322-4.989 4.568-10.82 3.722-15.402-1.188-2.064-2.211-3.732-2.348-5.938-.526-1.153.953-2.504 1.634-3.885 2.242-7.956 3.508-14.071 2.564-16.337-6.433-.121-.479-.508-.848-.952-1.098-1.916-.883-3.658.606-5.521.407-2.539-.33-4.906.571-7.345.992-5.281.91-7.173-1.466-5.372-6.684 2.289-6.631 4.054-13.514 7.074-19.793 1.92-3.991.225-7.104-1.076-9.813-3.239-6.74-3.248-13.958-4.411-20.995-.829-5.019-3.101-9.746-2.925-14.949 3.782-2.215 7.778-.5 11.613-.383 5.25.161 10.491.843 15.773.631 8.599 1.781 17.271.221 25.897.587 2.289.099 4.719-.368 6.618 1.487z"/><path fill="#8C8A87" d="M300.165 189.289c.26-1.279.521-2.558.777-3.837 1.162-5.78.049-7.118-5.336-9.545-4.68-2.108-9.596-4.006-13.443-7.659 14.973.158 29.586-1.757 44.143-5.603 8.688-2.295 17.271-4.253 24.863-9.238 6.162 1.133 7.039 2.267 5.797 8.132-.484 2.282-.287 3.964 2.238 4.625 4.604 1.205 4.805 4.354 3.68 8.146-.52 1.75-1.176 3.443-1.906 5.112-.473 1.078-.979 2.277-.229 3.32 5.025 6.991 2.064 13.877-.199 20.77-.309.938-.836 1.809-.441 2.842l-9.877 9.909c-1.227.855-2.393.267-3.568-.138-15.08-6.905-29.057-15.861-43.691-23.598-1.329-.7-2.591-1.536-2.808-3.238z"/><path fill="#3E4149" d="M360.108 206.355l-2.424.969c2.285-5.738 4.6-11.076 4.453-16.991-.061-2.488.309-5.037-2.594-6.438-1.539-.743-1.301-1.988-.592-3.38.973-1.909 1.781-3.913 2.521-5.927 1.43-3.883 1.904-7.233-3.918-7.507-2.525-.119-3.066-2.612-2.23-4.099 2.979-5.292.414-7.774-4.156-9.575 2.051-4.419 7.119-5.431 10.021-8.807 4.525-5.266 8.766-10.778 13.127-16.187 1.713-1.479 3.727.012 6.287-.774-2.037-.525-5.582.595-3.402-2.998 5-4.364 8.771-9.886 13.76-14.321 3.201-2.848 7.131-4.074 10.484-6.424 2.127-1.49 2.826.474 3.096 1.72.578 2.678 1.057 5.448-1.039 7.919-.729.859-.752 2.3.025 3.219.852 1.01 1.844-.023 2.658-.38 4.01-1.755 4.74-.729 4.006 3.545-1.76 10.248-7.209 18.952-11.068 28.315-.975 2.36-3.383 4.276.738 6.516 1.68.912 1.434 4.179.475 6.863-3.199 8.948-8.771 16.022-16.135 21.728-8.839 6.847-15.729 15.694-24.093 23.014z"/><path fill="#373C43" d="M383.497 233.153c5.98-.841 9.6 2.018 11.604 7.405 1.961 2.567.6 4.602-1.162 6.442-1.455 1.521-2.799 3.188-4.625 4.321-20.82 14.856-44.053 22.021-69.598 21.843-1.041-.007-1.959-.134-2.807-.718-4.742.751-9.406-.455-14.109-.656-3.498-.15-6.955-1.238-10.432-1.911-1.338-.26-2.734-.392-3.861.455-11.631 8.748-25.357 9.415-39.059 10.26-1.746.108-3.469.58-5.203.884-2.988-2.328-1.057-5.223-.922-7.913 1.541-3.422 4.738-4.982 7.891-6.084 3.586-1.252 6.855-2.965 10.068-4.878 3.865-4.443 6.621.99 9.945 1.286 1.545-1.598-1.762-3.051-.01-4.365 1.445-1.083 3.215-.421 4.82-.368 3.621.119 7.225-1.199 10.854-.122 13.643 3.521 27.566 4.25 41.541 3.783 13.27-.444 25.938-3.585 37.834-9.656 6.955-3.55 12.332-8.357 14.258-16.291.391-1.612.248-3.876 2.973-3.717z"/><path fill="#C0B2A5" d="M262.044 263.316c-4.102 4.436-10.652 4.147-15.135 7.85-.867.717-1.738 1.428-2.609 2.141-6.068 1.809-12.351 2.293-18.598 3.018-7.922-.141-15.839.862-23.763.11-1.107.168-2.459.829-3.28.421-4.099-2.041-4.563.907-5.322 3.585-1.948-3.294-5.172-4.119-8.646-4.602-2.222-.309-4.665.268-6.581-1.455-3.192-2.485-7.258-2.191-10.878-3.187-14.353-3.944-27.453-10.357-39.754-18.607-14.904-9.996-24.353-24.336-30.83-40.513-4.486-11.202-7.3-23.126-8.349-35.233-.587-6.784-.027-13.667.018-20.506 1.345-2.381 3.659-1.924 5.797-1.979 1.329 1.341 1.361 3.212 1.046 4.691-1.159 5.451.433 10.878-.281 16.343-.951 7.285 2.131 14.03 3.922 20.872 2.601 9.936 6.042 19.617 11.261 28.571 1.183 2.03 2.425 3.949 4.231 5.461 1.804 2.28 4.343 3.521 6.847 4.811-.649 3.455 1.556 5.33 3.812 7.373 9.39 8.505 20.633 13.721 32.171 18.448.929.381 1.743.963 2.578 1.504 3.745 1.961 7.948 2.296 11.946 3.369 8.449 2.944 17.259 3.07 26.05 3.469 13.493.61 26.836-.833 40.168-2.617 6.73-.901 12.605-3.995 18.521-7.025 3.035-.53 5.867-.743 5.658 3.687z"/><path fill="#454A51" d="M383.497 233.153c-2.52 1.481-1.105 4.26-2.047 6.229-3.359 7.027-8.496 11.831-15.693 15.436-16.564 8.294-34.119 10.308-52.064 9.307-9.201-.514-18.617-.865-27.576-3.776-.35-2.326 1.457-2.748 2.998-3.169 3.137-.856 2.938-2.596 1.488-4.796-.547-.828-1.221-1.568-1.74-2.41-1.902-3.08-1.287-4.401 2.424-4.801 2.455-.265 4.949-.325 7.385.341 6.09 3.633 12.342 1.395 18.398.153 9.029-1.852 17.354-5.65 25.184-10.535 3.557-2.219 6.824-4.7 9.516-7.97 2.182-2.649 3.59-5.479 3.406-8.971 1.266.204 3.219.084 3.346 1.464.547 5.958 5.143 4.313 8.543 4.763 1.924.254 3.93-.016 5.271 1.819-.213.273-.51.635-.77.571-7.143-1.728-10.424 3.173-14.738 7.555-8.002 8.131-17.83 13.704-28.805 17.318-6.523 2.148-13.209 3.149-20.416 4.317 16.73 1.64 31.074 1.011 42.518-2.611 7.467-2.363 14.297-6.26 20.559-11.03 1.924-1.466 2.832-3.57 3.658-5.818 1.018-2.776.787-5.98 2.861-8.384 2.228 4.708 2.228 4.708 6.294 4.998z"/><path fill="#373C43" d="M377.202 228.154c-.158 9.869-5.057 15.771-13.787 20.667-8.814 4.942-18.023 7.71-27.561 8.785-10.279 1.159-20.836 1.095-31.254-2.039 3.191-.726 6.357-1.91 9.58-2.09 9.131-.509 17.377-3.807 25.156-8.069 7.188-3.938 14.789-7.813 19.242-15.144 3.559-5.857 8.393-5.368 13.756-4.028 2.106-.59 3.589.406 4.868 1.918z"/><path fill="#E9C39F" d="M225.994 275.297c6.105-.625 12.011-3.097 18.306-1.989.453 2.727-1.486 5.437-.055 8.171-.051 1.258-.354 2.748-.26 3.711.295 3.005-2.486 7.542 3.506 8.512 1.539.249 2.736 2.281 4.209 3.328 1.855 1.317 5.004 2.682 4.592 4.56-.547 2.495-4.227 2.355-6.439 2.659-7.701 1.056-14.508 4.348-21.426 7.469-1.242.562-2.596 2.396-3.898.8-1.289-1.581.682-2.579 1.539-3.689.49-.635 1.021-1.237 2.041-2.466l-13.476 3.841c-.729-2.552 2.526-3.169 1.487-5.495-2.231-.569-4.762-.747-7.386-.289-1.046.183-2.63.476-3.12-.783-.626-1.606.953-2.339 2.05-2.949 5.833-3.246 11.963-5.699 18.772-5.408 3.957.169 6.597.245 3.977-5.02-1.388-2.788-.596-6.541-3.352-8.939-.656-1.957-2.245-3.745-1.067-6.024z"/><path fill="#DB9E63" d="M178.111 274.384c4.533-.437 8.91.608 13.325 1.351 3.313.557.775 3.343 1.9 4.707-.884 5.476 4.218 7.138 6.834 10.279 1.114 1.338 1.735 2.384 1.239 3.8-.666 1.901-1.917-.021-2.885.193-1.121.249-2.568.151-3.304.826-5.351 4.903-13.026 5.045-18.684 9.276-.776.581-2.047.908-2.73.006-.783-1.032.329-1.748.979-2.468.655-.726 1.27-1.487 2.498-2.936-4.754-.399-8.19 2.602-12.482 2.5.785-2.478 2.598-3.901 4.669-5.336-3.961-1.288-7.619 1.21-11.328.235-.967-.254-2.556 1.1-2.836-.854-.184-1.275.886-2.178 1.905-2.698 5.142-2.625 10.356-4.887 16.312-5.185 9.037-.452 8.295 1.828 5.419-8.325-.507-1.793-.92-3.523-.831-5.371z"/><path fill="#373C43" d="M405.247 242.301c1.58.2 2.926-1.12 4.775-.187 2.863 1.447 5.967 2.684 6.5 6.139.551 3.556-1.973 6.045-4.412 8.152-5.203 4.495-12.031 5.446-18.139 7.985-9.242 3.839-18.992 5.754-28.648 8.051-2.133.278-5.354 1.729-5.959-.687-.535-2.141 2.83-3.218 5.01-3.912 5.83-1.856 11.146-4.327 16.172-8.123 3.162-2.39 7.869-2.943 10.928-6.131 3.535-2.144 5.906-5.327 7.754-8.917 1.353-2.629 3.146-3.775 6.019-2.37z"/><path fill="#363B42" d="M355.175 218.19c2.488 2.414 1.189 4.567-.275 6.918-4.205 6.755-10.721 10.729-17.436 14.278-10.547 5.575-21.77 8.975-33.832 9.29-2.125.056-3.492-.537-4.482-2.292 1.41-1.572 3.336-1.307 5.117-1.319 3.57-.024 6.904-1.055 10.131-2.361 3.154-1.279 4.959-3.452 3.076-7.029-1.803-3.426-.033-4.654 3.039-4.792 5.16-.23 10.221-1.16 15.293-1.978 8.584-1.384 10.762-4.008 10.844-12.623.004-.309.264-.58.516-.816l3.066.799c1.708.485 4.042-.637 4.943 1.925z"/><path fill="#74530C" d="M100.772 86.314c-6.465 1.364-12.835-.666-19.278-.688-2.311-.007-4.88.302-7.23-.53-2.762-.436-5.539-.795-8.282-1.328-2.984-.58-3.216-1.988-1.542-4.488 2.174-3.247 5.567-4.771 8.546-6.901l2.138-.142c6.159-2.087 12.083-.129 17.985 1.22 2.541.581 5.173 1.166 7.502 2.478 5.237 2.947 5.29 7.069.161 10.379z"/><path fill="#44484F" d="M392.122 254.357c-3.014 2.103-4.65 6.236-9.695 5.311-2.555-.469-2.816 3.682-5.379 4.665-4.148 1.592-8.064 3.798-12.459 4.755-1.834.398-3.363 1.233-4.752 3.062l5.486.292c-7.891 2.603-16.123.685-24.123 1.818-7.557 1.07-15.088-.654-22.639-.17-.994.064-1.234-.955-1.652-1.643 15.471-.232 30.324-2.865 44.965-8.42 6.717-2.548 12.902-6.472 20.086-8.049 2.748-.604 3.588-5.152 7.158-5.632.699 1.564 1.807 2.822 3.004 4.011z"/><path fill="#43474E" d="M225.994 275.297c-.076 2.084 2.695 3.662 1.067 6.021-8.458-1.196-16.957-2.184-25.122-4.884 1.406-1.838 3.353-.993 5.037-.855 6.356.517 12.657-2.059 19.018-.282z"/><path fill="#474C52" d="M392.122 254.357c-2.75-.026-4.762-.605-3.004-4.011 1.834-3.36 6.865-4.768 5.982-9.788 3.41.411 7.201-1.389 10.146 1.742-1.973.05-3.467.157-4.645 2.53-1.899 3.821-3.948 7.886-8.479 9.527z"/><path fill="#64676D" d="M377.202 124.642c.355.72-.494 2.858 1.658 1.473 1.254-.809 2.465-1.13 3.467.188.645.846-.119 1.572-.723 2.075-1.027.857-1.941 2.688-3.588.84-1.068-1.197-2.434-.696-3.699-.803.961-1.258 1.922-2.515 2.885-3.773z"/><path fill="#FEFEFE" d="M255.997 260.586c-5.307 4.139-11.439 6.217-17.994 7.281-14.986 2.435-30.08 3.598-45.217 2.497-7.371-.536-15.146.234-21.867-4.097-.073-1.857 2.109-1.963 2.81-3.804-5.015.146-9.776 1.867-14.621.875-6.896-3.224-13.968-6.124-20.638-9.762-6.779-3.696-12.72-8.611-18.261-14.098-2.771-2.744-.552-3.019.927-4.101 2.264-2.456 6.438-1.805 8.307-5.514-5.1 1.395-10.083 2.696-15.244 1.586-2.5-.682-3.57-2.816-4.727-4.789-7.835-13.369-12.137-28.082-15.196-43.063-1.955-9.57-.723-19.482-.161-29.242 2.775.229 1.971 2.758 2.531 4.243 1.896 5.028 4.779 6.531 10.035 5.069 3.236-.899 6.467-1.97 8.799-4.344 2.734-2.784 4.245-1.153 5.949.933 4.077 4.992 9.864 5.557 14.819 1.452.255-.211.497-.444.718-.691 4.59-5.126 9.551-6.873 15.716-2.341 3.999 2.939 7.944 1.997 11.434-1.296 3.491.354 3.547-3.007 4.829-4.783 3.606-4.998 6.154-5.631 11.482-2.121-5.2 7.183-5.777 16.148-9.248 23.998-1.196 2.452-3.583 2.763-5.864 3.241-5.342 1.122-10.816 1.499-17.116 2.818 6.673 4.291 12.848 4.271 19.27 2.164 1.763-.578 4.029-2.393 4.016 1.576.881 12.002 1.885 23.962 11.517 32.901-.614 2.565-2.586 3.271-4.856 3.404-3.476.203-6.758 1.183-10.836 2.415 6.292 2.549 12.158 2.602 18.023 2.113 2.634-.22 5.201-.604 7.776.215l2.974 3.12c5.084.856 7.568 5.602 11.744 7.897 2.613 1.438 5.992 2.425 6.84 6.033-.182 2.098-1.711 3.087-3.319 4.008-5.484 3.139-11.03 6.045-17.565 6.37-1.705.085-3.669.151-4.727 2.043 7.746 4.981 20.798 3.878 27.29-2.19 1.558-1.456 2.209-2.811.65-4.659-1.184-1.403-2.419-2.88-.859-4.814 3.725-.348 5.957 2.583 8.741 4.155 7.99 4.512 16.985 6.319 25.337 9.827 2.114.894 4.464 1.29 5.782 3.475z"/><path fill="#F6AA00" d="M100.772 86.314c4.332-6.004 2.952-8.246-4.508-10.533-6.968-2.135-14.009-2.884-21.14-3.544 6.408-2.634 12.613-4.87 19.996-4.717 13.218.275 24.485 5.495 35.697 11.31 3.254 1.687 6.339 4.137 3.347 8.588-9.876-.472-19.758.831-29.647-.096-1.396-.131-2.463-.83-3.745-1.008z"/><path fill="#C59AAA" d="M165.424 67.382c6.734-.181 12.318 4.167 12.385 9.645.044 3.617-5.812 8.245-10.535 8.324-5.495.092-10.716-4.542-10.837-9.619-.096-4.011 4.443-8.229 8.987-8.35z"/><path fill="#100E15" d="M97.123 58.579c-5.362.11-6.561-3.284-6.701-6.107-.179-3.604 3.559-3.895 6.177-4.231 3.473-.447 5.436 2.51 5.395 5.062-.049 2.963-1.522 6.352-4.871 5.276z"/><path fill="#120F17" d="M143.672 61.706c-3.877.176-6.509-.71-6.672-4.643-.154-3.71 1.935-5.603 5.498-5.564 3.111.033 5.211 1.827 5.255 4.99.039 2.832-.382 5.847-4.081 5.217z"/><path fill="#50555E" d="M214.173 242.349c-5.88-4.83-12.808-8.299-18.092-13.904 2.165-3.472 5.815-1.642 8.138-1.308 14.574 2.092 28.871-.129 43.203-1.903 4.795-.594 5.875-2.784 4.262-7.725-.914-2.802.26-3.394 2.619-2.92 8.369 1.681 15.803-1.006 22.963-4.885 2.748-1.487 3.941-4.198 2.268-6.697-2.855-4.262-.08-5.58 2.967-6.174 6.479-1.264 12.004-4.505 17.666-7.543 9.988 5.649 20.008 11.248 29.955 16.968 5.604 3.221 11.854 5.235 17.045 9.207 2.635 7.986.367 12.022-8.322 14.072-6.051 1.428-12.188 2.542-18.461 2.486-1.785-.016-3.645.071-2.246 2.619 2.674 4.867 1.348 8.076-3.873 9.762-4.945 1.597-9.941 2.352-15.113 1.98h-11.453c1.969 2.452 3.338 3.971 4.496 5.636 2.695 3.875 2.088 5.507-2.445 6.279-1.557.265-2.918.47-3.631 2.048-4.805-1.687-9.611 1.366-14.381-.545-.199 2.474 4.5 2.521 2.057 4.895-1.82 1.768-4.912.856-6.291-.902-1.984-2.527-3.443-2.47-5.457-.479-.912-3.355-3.617-2.737-6.047-2.73-13.545-5.002-27.738-8.493-39.728-17.104-1.195.536-1.666-.264-2.099-1.133z"/><path fill="#4B5057" d="M210.171 213.862c-2.941.492-6.792.19-10.037-2.568-1.161-.986-2.426-2.239-1.338-3.776.963-1.36 2.267-1.759 4.293-.95 9.102 3.633 12.836 2.528 19.708-5.308 1.277-1.456 2.432-1.934 4.293-.947 2.047 1.085 1.713 2.425 1.125 4.156-1.757 5.187-10.083 9.881-18.044 9.393z"/><path fill="#8B827A" d="M171.483 184.275c-.396-1.921-1.167-1.661-2.768-.937-6.771 3.063-13.521 2.839-20.159-.677-1.509-.8-2.389-2.107-2.099-3.442.288-1.326 1.939-.635 3.043-.703 7.39-.455 14.719-1.264 21.677-4.041l.306 9.8z"/><path fill="#4A5057" d="M195.307 183.913c-2.74-.945-7.109 1.58-9.881-2.68-.97-1.491-1.951-2.898-.664-4.442 1.127-1.353 2.694-.944 4.068-.116 2.526 1.521 4.994 1.796 8.019 1.081 3.291-.777 5.38-1.928 5.874-5.463.29-2.075 1.434-4.178 3.832-3.469 2.354.696 2.759 2.64 1.878 5.225-2.211 6.484-6.68 10.292-13.126 9.864z"/><path fill="#4A4F56" d="M240.905 209.178c-4.648.411-4.803-2.158-5.045-4.488-.289-2.766 1.873-2.604 3.338-2.081 6.518 2.328 9.92-1.51 12.891-6.238.969-1.544 1.822-4.044 3.852-2.641 1.697 1.174 3.094 3.138 1.547 6.225-3.801 7.59-10.983 7.92-16.583 9.223z"/><path fill="#474D53" d="M217.286 187.722c-2.032.09-4.222.304-4.548-2.458-.336-2.848 2.139-2.956 3.912-3.574.911-.317 1.971-.365 2.95-.305 4.008.248 6.86-1.109 7.563-5.385.438-2.659 2.719-3.353 4.421-2.938 2.071.504 2.447 2.605 1.839 4.89-1.822 6.832-6.408 9.711-16.137 9.77z"/><path fill="#8B827B" d="M193.106 225.324c-5.854.303-11.544 2.424-17.556 1.263-3.17-.612-6.504-.398-9.117-2.808-.533-.491-1.763-.361-1.451-1.551.257-.98 1.169-1.067 2.004-1.073 3.82-.024 7.299-2.176 11.175-1.798 2.05.2 3.346-1.189 4.838-2.181 2.493 3.803 5.724 6.69 10.107 8.148z"/><path fill="#4A5057" d="M252.294 183.313c-1.111-.174-2.934.663-4.117-1.079-.77-1.135-1.348-2.384-.809-3.728.613-1.524 1.885-.568 2.941-.679 3.891-.408 8.449.469 10.121-4.866.385-1.229.213-3.348 2.266-3.39 1.854-.038 2.861 1.581 3.787 2.899 1.082 1.539.629 3.071-.512 4.543-3.365 4.341-7.658 6.65-13.677 6.3z"/><path fill="#494F56" d="M223.216 160.312c-2.607.255-4.9.034-6.892-1.421-1.086-.794-1.897-1.565-1.448-3.288.538-2.06 1.758-1.321 3.017-1.337 3.97-.053 8.444 1.111 9.923-4.688.389-1.524 2.586-1.664 3.9-.727 1.718 1.225 2.703 3.519 1.513 5.157-2.466 3.392-4.792 7.568-10.013 6.304z"/><path fill="#BAB9B7" d="M315.667 171.885c2.324-.902 4.807-.194 4.844 2.26.033 2.36-3.016 3.135-4.973 2.758-2.012-.387-5.66 1.214-5.846-1.771-.201-3.254 2.866-3.944 5.975-3.247zM336.437 190.331c-1.934-.111-3.99.07-3.906-2.256.064-1.735 1.391-3.372 3.309-2.555 1.871.797 5.314-.134 5.406 2.228.083 2.194-2.964 2.452-4.809 2.583z"/><path fill="#BCBBB8" d="M339.948 168.289c1.607.091 3.709-.135 3.779 2.059.064 1.997-2.045 2.606-3.559 2.552-1.408-.051-3.721-.033-3.781-2.178-.06-2.07 1.811-2.413 3.561-2.433z"/><path fill="#2B2E34" d="M398.095 120.481c-.25 1.875-1.25 3.338-2.408 4.81-4.561 5.803-9.016 11.689-13.525 17.531-3.867 5.009-7.668 10.071-11.695 14.947-.982 1.19-2.973.924-4.25.267-1.734-.893-1.174-2.601-.396-3.916.92-1.561 2.041-3.013 3.158-4.446 6.773-8.688 13.533-17.387 20.396-26.003 1.273-1.599 2.102-3.327 2.967-5.129.682-1.418 2.053-2.969 3.859-2.307 1.71.628 2.109 2.434 1.894 4.246z"/><path fill="#2C2F34" d="M366.769 185.782c-1.611-.264-2.584-1.631-3.322-3.087-.613-1.213-.045-2.355 1.141-2.908 6.764-3.147 10.105-9.593 14.268-15.127 2.553-3.394 6.314-5.715 8.057-9.881.621-1.483 2.93-1.962 4.766-.365 1.715 1.491 1.305 3.101.168 4.365-6.344 7.05-10.613 15.869-18.52 21.587-2.236 1.616-3.246 4.704-6.558 5.416z"/><path fill="#63666C" d="M392.026 144.983c-.574 1.919-1.766 3.137-3.781 3.287-1.18.088-2.555-.183-2.434-1.684.141-1.732 1.098-3.126 3.107-3.189 1.265-.04 2.696-.229 3.108 1.586zM376.065 163.333c.064 2.055-1.268 2.972-2.98 3.315-1.617.325-1.875-.988-1.932-2.162-.072-1.533.02-3.037 2.17-3.096 1.434-.037 2.676.095 2.742 1.943z"/><path fill="#606369" d="M367.921 148.123c-.406 1.615-1.281 2.635-2.643 2.861-1.08.18-2.012-.604-1.814-1.762.215-1.253.627-2.678 2.352-2.682 1.134-.002 1.689.805 2.105 1.583z"/><path fill="#8C837B" d="M114.199 231.451c5.21-1.877 11.232-.314 16.086-3.781.239-.171.974.04 1.26.308.833.779.12 1.484-.271 2.183-2.226 3.98-5.954 5.042-10.138 5.219-3.267.376-5.466-1.134-6.937-3.929z"/><path fill="#928982" d="M159.108 263.339c4.881-1.518 10.232-.64 14.963-2.938.722-.351 1.441.002 1.55.645.123.73-.045 1.604-.354 2.296-.821 1.836-3.009 1.772-4.347 2.926-4.192.049-8.172-.754-11.812-2.929z"/><path fill="#887F77" d="M214.173 242.349l2.097 1.133c-.57 1.574.333 2.539 1.461 3.339 3.768 2.667 2.013 4.779-.595 6.925-7.35 6.047-21.102 7.401-29.306 2.815-.87-.485-1.812-1.129-1.658-2.254.194-1.42 1.662-1.619 2.653-1.831 5.595-1.199 11.473-1.38 16.582-4.306 3.038-1.739 6.8-2.453 8.766-5.821zM142.254 245.485c1.708-2.626 3.906-3.089 6.657-3.511 6.067-.93 12.356-.836 18.16-3.347 1.271-.55 3.097-1.216 3.944.579.653 1.384.088 2.734-1.112 3.989-6.493 6.788-20.616 8.492-27.649 2.29z"/><path fill="#8A8179" d="M140.516 209.008c-4.607-1.695-9.725-.536-13.762-3.736-1.078-.854-1.751-1.736-1.251-2.856.654-1.464 1.843-.59 2.949-.298 5.365 1.415 10.738 1.976 15.618-1.431 1.397-.976 2.687-1.891 4.419-1.759 1.526.116 3.612-1.642 4.445.293.786 1.827-.465 4.138-1.885 5.288-3.061 2.481-7.008 3.264-10.533 4.499z"/><path fill="#8D847C" d="M102.582 180.585c7.083 2.012 13.596.147 20.161-.363.943-.074 2.15-1.699 2.925.198.438 1.072-.24 1.907-.881 2.689-3.934 4.803-13.416 6.728-18.75 3.927-2.445-1.283-2.386-3.753-3.455-6.451z"/><path fill="#3A3F44" d="M284.36 237.581c-1.709-.917-3.41 1.022-5.219.247-1.295-.555-3.115-.553-2.936-2.723.152-1.829 1.266-2.636 2.959-2.722 1.826-.093 3.721.211 5.473-.171 5.285-1.149 10.076-3.109 12.398-8.652.646-1.54 1.055-3.506 3.863-2.498 2.705.97 1.746 2.34 1.477 4.222-1.122 7.861-10.771 13.182-18.015 12.297z"/><path fill="#393E44" d="M246.813 238.327c5.055.06 9.365-3.437 10.293-8.345.363-1.926.254-4.56 2.881-4.3 2.783.275 3.385 2.824 3.111 5.339-.766 7.022-9.477 15.234-16.984 13.349-1.959-.491-4.205-.768-3.869-3.494.346-2.806 2.25-3.373 4.568-2.549z"/><path fill="#383D42" d="M295.866 213.249c-1.521.29-2.912-.938-3.48-2.79-.619-2.019 1.295-2.544 2.639-2.933 3.902-1.126 7.66-2.252 9.016-6.792.393-1.314 1.672-1.509 2.92-1.222 1.555.358 2.217 1.501 2.113 2.96-.273 3.809-1.305 7.317-5.307 8.788-2.311.85-4.795 1.227-7.901 1.989z"/></g></svg>