<svg width="480" height="320" viewBox="0 0 480 320"><g fillRule="evenodd" clipRule="evenodd"><path fill="#7E858C" d="M366.979 44.905c6.522 2.958 13.531 1.4 20.28 1.938 16.308 1.302 32.69 1.641 49.028 2.604 8.771.517 17.597.228 26.307 1.772 8.366 1.486 14.776 8.363 14.817 16.89.127 25.505-.059 51.01.011 76.517.072 27.052.157 54.107.496 81.157.313 25.104-4.964 23.017-24.14 32.725-11.883 6.016-24.313 10.992-36.088 17.313-21.162 11.358-42.696 19.58-67.739 14.61-12.278-2.434-25.204-1.64-37.841-2.218-15.195-.692-30.397-1.215-45.59-1.951-27.807-1.35-55.613-2.74-83.414-4.226-26.375-1.407-52.73-3.336-79.121-4.313-17.196-.637-34.367-1.823-51.576-2.341-11.298-.342-22.746-.434-34.031-2.017-7.622-1.07-15.053-8.206-15.224-16.256-.227-10.751-.9-21.501-.001-32.312.686-8.255-.524-16.648-.44-24.976.077-7.665-1.143-15.433.555-22.97.896-3.978-1.375-7.178-1.191-10.885.926-18.632.845-37.269.322-55.917-.271-9.647-.175-19.346.538-28.964.446-6.015 3.464-11.313 9.359-13.932 24.187-10.74 48.267-21.754 72.734-31.822 12.44-5.12 25.923-3.182 38.922-1.735 5.787.644 11.628-.696 17.294 1.02.232 3.253-2.624 3.637-4.562 4.699-7.058 3.866-14.604 6.69-21.924 9.998-2.583 1.167-5.267 2.198-6.948 4.638-2.264 3.287-4.268 6.85-2.485 10.896 1.739 3.948 5.551 4.377 9.387 4.514 32.303 1.159 64.538 3.765 96.845 4.729 26.685.795 53.301 2.704 79.914 4.539 15.046 1.038 28.777-2.211 41.976-8.726 5.265-2.598 10.488-5.263 15.986-7.294 8.644-3.191 16.154-7.382 17.544-17.704z"/><path fill="#555B61" d="M366.979 44.905c1.31 8.208-1.768 12.802-9.294 15.896-9.55 3.929-19.007 8.176-28.183 12.91-14.062 7.253-28.721 7.4-44.018 5.989-11.731-1.081-23.59-1.157-35.393-1.876-22.958-1.401-45.97-1.992-68.939-3.069-22.113-1.038-44.226-2.626-66.359-3.422-5.837-.21-10.496-1.338-12.357-7.092-1.549-4.793 3.583-13.176 8.565-15.366 9.458-4.158 18.896-8.363 28.317-12.603.741-.334 1.289-1.094 1.926-1.657 18.833-10.852 39.098-4.96 58.782-4.686 17.84.247 35.664 1.802 53.492 2.817 18.271 1.042 36.53 2.562 54.816 3.068 16.037.444 32.046 1.164 48.051 2.171 4.722.3 9.755.504 10.594 6.92z"/><path fill="#ACB5BE" d="M375.591 277.155c-29.478-1.507-58.941-3.308-88.434-4.398-15.653-.578-31.25-1.999-46.916-2.537-16.042-.549-32.179-1.583-48.248-2.859-10.798-.858-21.748-1.121-32.632-1.669-13.081-.658-26.231-.483-39.248-1.746-15.508-1.508-31.062-1.164-46.564-2.314-14.888-1.105-29.802-1.853-44.708-2.71-1.945-.112-4.021-.362-5.838.151-6.24 1.766-8.376-2.096-8.068-6.8 1.026-15.611-.944-31.203.296-46.821.609-7.668-.7-15.473-.33-23.176.917-19.129-.154-38.256.263-57.394.28-12.854.239-25.837-.131-38.755-.114-4.004 2.019-5.799 5.426-5.686 11.451.378 22.888 1.152 34.336 1.661 8.774.388 17.378 2.434 26.365 1.171 5.856-.821 12.043.387 18.049 1.007 24.479 2.526 49.096 2.262 73.625 3.796 24.63 1.541 49.291 2.598 73.932 3.981 26.844 1.508 53.675 3.291 80.525 4.679 16.918.875 33.864 1.251 50.798 1.839 9.258.322 10.061 1.379 10.415 10.05 1.039 25.396.32 50.793.442 76.189.104 21.725.051 43.452.074 65.177.005 6.219.038 12.437.04 18.653 0 8.341-.333 8.65-8.913 8.62-1.521-.005-3.041 0-4.562 0l.006-.109z"/><path fill="#939BA2" d="M399.434 95.981c-2.677-.085-5.402.408-6.228-2.706-.908-3.426 1.27-5.302 3.987-6.573 11.091-5.194 21.95-11.043 33.408-15.248 10.039-3.683 19.56-8.5 29.573-12.18 3.721-1.368 6.943-2.147 8.593 2.214 1.763 4.661-2.108 5.658-5.292 7.103-11.532 5.23-23.428 9.554-34.781 15.31-8.71 4.418-18.384 7.003-27.01 11.867-.681.386-1.705.172-2.25.213z"/><path fill="#676D74" d="M119.989 53.063c15.654.062 31.241 1.262 46.774 3.018 3.124.354 5.903-.84 8.964-.613 18.75 1.404 37.515 2.623 56.277 3.856 2.598.171 5.212.165 7.816.112 13.865-.277 27.628 1.671 41.446 1.927 8.173.15 16.221 1.127 24.324 1.569 5.858.318 11.515-2.411 16.46-5.36 10.265-6.122 22.013-8.723 32.447-14.416 2.482-1.355 6.976-2.438 8.523 1.513 1.604 4.087-1.755 5.548-5.226 7.252-11.328 5.56-23.278 9.673-34.438 15.72-5.61 3.041-11.924 5.835-19.661 4.059-7.576-1.74-15.844-.334-23.794-.647-6.246-.247-12.554-.654-18.709-1.379-20.167-2.374-40.481-1.045-60.67-3.374-14.084-1.625-28.384-1.227-42.6-2.319-12.927-.994-26.024-.796-39.016-1.912-3.511-.302-8.637.331-8.552-4.374.106-5.793 5.632-4.643 9.635-4.632z"/><path fill="#292C31" d="M125.338 222.514c.225 1.72-.866 4.162 2.954 2.236 10.833-5.461 21.716-2.555 32.032 1.686 4.047 1.666 6.451 6.877 5.184 10.967-1.31 4.228-6.068 6.044-10.756 5.697-8.09-.602-16.286 1.067-24.297-1.549-7.393-2.414-8.493-3.812-6.812-11.384.454-2.04-.608-2.154-1.936-2.396-.174-2.708.905-4.552 3.631-5.257z"/><path fill="#282B2F" d="M365.049 206.68c-.135 9.029-.374 18.04-2.72 26.861-1.063 3.985-2.521 7.9-7.307 7.085-5.043-.86-7.877-5.353-7.609-9.925.618-10.479 2.302-20.898 3.593-31.337.13-1.035.275-2.254.881-3.012 2.52-3.147 4.623-7.671 9.322-7.096 5.419.665 2.674 5.983 3.675 9.107.809 2.531.165 5.528.165 8.317z"/><path fill="#292C30" d="M171.31 125.871c-11.245 6.553-22.872 3.792-34.324 1.026-5.068-1.224-5.872-6.473-5.879-10.555-.007-4.052 3.564-5.808 7.707-6.407 8.554-1.234 17-.606 25.263 1.399 9.289 2.255 11.02 6.307 7.127 14.642l.106-.105z"/><path fill="#282B30" d="M247.42 228.555c6.858-1.38 12.618.76 18.369 2.102 4.962 1.156 7.255 5.539 7.293 10.292.031 4.03-3.738 5.471-7.056 6.364-10.382 2.804-20.578 1.974-30.125-2.983-2.807-1.456-7.238-3.822-5.438-7.635 1.917-4.06 5.231-8.059 10.617-8.485 2.347-.188 4.703.943 6.34.345z"/><path fill="#26292D" d="M289.052 198.71c-1.591 10.993-1.143 21.227-3.663 31.253-1.097 4.366-3.881 4.934-6.926 5.354-3.164.438-4.806-1.473-5.861-4.714-1.03-3.168-1.593-5.987-1.169-9.378.938-7.462 1.287-15.004 1.77-22.519.441-6.872 6.634-15.729 10.71-14.185 7.092 2.692 3.973 9.768 5.139 14.189z"/><path fill="#292B30" d="M171.203 125.976c10.418-2.28 12.565.581 12.492 11.566-.062 9.226-1.704 18.183-2.171 27.287-.229 4.456-1.9 9.778-5.431 9.738-3.879-.043-8.256-4.043-8.667-9.217-.939-11.832-2.06-23.727 2.928-35.104.587-1.341.649-2.911.954-4.375l-.105.105zM85.101 213.429c.767-8.757 1.447-18.437 2.531-28.069.489-4.343 3.596-7.499 7.094-9.634 2.588-1.581 5.22-1.059 6.607 2.66 1.522 4.083.897 8.038.705 12.128-.395 8.404-.583 16.789-2.165 25.121-1.016 5.355-1.746 11.321-8.594 10.549-6.375-.716-6.154-6.782-6.178-12.755z"/><path fill="#292C30" d="M261.873 191.235c-7.283-.791-14.904.405-21.736-3.593-2.738-1.604-4.998-3.303-5.099-6.864-.104-3.757 2.389-5.727 5.242-6.645 11.8-3.792 23.528-4.107 34.477 2.7 5.328 3.313 4.753 7.2-.283 10.783-3.939 2.802-7.772 4.466-12.601 3.619z"/><path fill="#2A2D31" d="M152.447 186.362c-5.09-.61-10.168-1.571-15.273-1.743-6.016-.201-10.833-2.791-10.855-8.604-.021-5.564 5.332-8.937 10.48-9.134 8.836-.341 17.882-1.18 26.408 2.91 3.032 1.455 4.963 2.868 5.167 6.473.201 3.536-1.421 5.789-4.12 7.464-3.597 2.232-7.603 2.879-11.807 2.634z"/><path fill="#282A2F" d="M337.788 196.396c-8.448-.22-15.643-.964-22.317-4.54-4.493-2.406-5.932-7.526-1.921-10.297 3.965-2.739 7.742-5.753 13.878-4.902 6.262.867 12.704.586 18.974 2.325 4.462 1.236 8.165 3.882 7.951 8.178-.224 4.424-4.047 7.401-8.73 8.228-2.952.52-5.95.772-7.835 1.008z"/><path fill="#282B2F" d="M367.275 144.2c-.923 10.674.603 21.501-1.913 32.035-.649 2.718-.448 7.105-4.164 7.113-3.675.007-7.717-2.86-8.181-6.445-1.724-13.339-2.891-26.827 3.681-39.454 1.525-2.934 3.744-6.377 7.229-5.171 3.854 1.332 4.2 5.626 3.999 9.44-.045.837-.425 1.656-.651 2.482z"/><path fill="#2A2D31" d="M104.712 133.428c-.731 8.304-1.431 16.61-2.203 24.909-.405 4.343.786 9.808-5.834 10.489-3.328.343-8.969-6.364-8.397-10.977 1.267-10.219-.004-20.693 3.255-30.723.907-2.79 2.37-5.106 4.098-7.296 1.14-1.445 2.417-3.446 4.792-2.293 1.99.967 3.792 2.403 3.746 4.882-.07 3.677 1.39 7.296.543 11.009z"/><path fill="#292C30" d="M278.121 132.518c10.536-7.261 9.924-7.162 12.09 6.08 1.954 11.947-.51 23.378-1.751 35.001-.285 2.667-1.673 4.846-4.444 4.641-4.371-.323-6.852-3.623-7.896-7.415-.842-3.054-.564-6.438-.64-9.677-.231-9.687 2.35-19.111 2.749-28.742l-.108.112zM125.338 222.514l-3.63 5.257c-1.405 2.323-3.848 3.754-5.937 2.315-2.15-1.48-3.225-4.156-2.958-7.346.912-10.862-.057-21.82 1.757-32.662.738-4.409.329-10.13 6.313-10.036 5.562.088 7.367 5.385 7.744 10.233.848 10.909-.65 21.649-3.289 32.239z"/><path fill="#282B2F" d="M319.201 150.449c-.367 5.352-.635 10.712-1.133 16.052-.431 4.604-1.623 9.02-5.545 11.971-2.146 1.618-4.609 4.2-7.359 2.609-2.415-1.396-3.253-4.845-3.047-7.469.939-11.989 2.295-23.947 3.602-35.904.206-1.878.438-4.07 2.401-5.05 2.49-1.245 3.301 1.353 4.653 2.496 4.711 3.988 6.961 9.056 6.428 15.295z"/><path fill="#292C30" d="M263.83 134.983c-4.961.793-9.838-.185-14.658-1.011-6.155-1.055-9.558-6.031-11.039-11.155-.859-2.977 2.73-6.49 6.518-7.186 9.161-1.684 18.38-.728 27.565.098 2.972.268 4.905 2.543 7.255 4.009 1.295 2.843-.804 2.661-2.479 2.697-11.049.238-11.045.228-12.449 11.499-.051.407-.398.742-.713 1.049z"/><path fill="#292C31" d="M211.363 154.226c-.28 8.819-2.152 11.68-7.293 11.389-4.833-.272-8.155-4.094-7.955-9.151.229-5.769 4.708-11.755 8.691-10.89 4.4.954 8.49 2.929 6.557 8.652z"/><path fill="#292B30" d="M207.483 202.449c-.436 5.231-2.86 9.337-7.999 9.641-4.684.277-7.25-3.652-7.562-8.096-.425-6.05 3.929-10.819 9.23-10.442 5.613.397 5.669 4.952 6.331 8.897z"/><path fill="#292C30" d="M263.83 134.983c-.567-4.612-3.301-9.435 2.928-12.881 2.534-1.402 4.218-2.939 7.405-1.786 1.341.485 3.936 2.633 5.309-.578 4.246 4.756-1.037 8.505-1.351 12.78l.108-.112c-4.723 1.288-8.939 5.4-14.399 2.577z"/></g></svg>