<svg xmlns="http://www.w3.org/2000/svg" width="480" viewBox="0 0 480 320"><g fillRule="evenodd" clipRule="evenodd"><path fill="#3D8FCE" d="M76.084 302.363c-2.84.168-5.817-1.293-8.503.713-3.021-1.719-6.454.109-9.53-1.111-.266-.105-.56-.234-.744-.439-1.821-2.027-2.828-4.348-2.473-7.133.125-.979.108-1.922.036-2.926-.203-2.824.026-5.715.43-8.529.117-.813.245-1.465-.036-2.23-.146-.396-.285-.926-.14-1.277 1.292-3.129 1.316-6.393 1.151-9.686.74-1.082.279-2.443.826-3.572.614-1.445.686-3.049.898-4.537.476-3.32 1.281-6.563 2.372-9.668 1.047-2.979 1.432-6.314 3.123-8.914 2.785-4.281 5.115-8.912 8.549-12.734 3.45-3.842 7.451-7.102 11.714-10.02 1.844-1.262 3.729-2.463 5.596-3.691 2.083-.625 3.882.539 5.602 1.24 1.499.611 2.931 1.086 4.521 1.391 3.02.576 6.063 1.01 9.077 1.615.663.133 1.317.064 1.97-.063.943-.184 1.932-.385 2.846-.141 5.989 1.596 12.104.691 18.103.52 3.738-.107 7.64-.816 11.442-1.705 3.516-.82 6.753-2.348 10.242-3.109.697-.152 1.449-.469 2.014.313 2.703 1.959 5.528 3.773 8.073 5.92 2.719 2.291 5.67 4.295 7.833 7.307 1.386 1.93 3.309 3.428 4.637 5.58 1.892 3.068 3.695 6.145 5.06 9.467 2.229 5.428 3.833 11.066 5.125 16.77.969 4.271 1.484 8.65 1.773 13.035.291 4.412 1.25 8.756 1.125 13.215-.093 3.322.439 6.658-.173 9.977-.191 1.035-.503 2.006-1.489 2.574-1.883 1.09-3.572 2.578-6.107 1.869-.962-.271-2.289.662-3.204.342-2.674-.936-5.481.33-8.088-.734-.288-3.617-1.416-7.18-.735-10.863.12-.654.146-1.318.089-1.98-.607-6.994-.512-14.027-1.155-21.021-.127-1.385.411-2.762.064-4.17-.271-1.1-.425-2.307-1.924-2.232-1.43.072-1.417 1.264-1.504 2.289-.269 3.16-.079 6.326.329 9.443.356 2.727-.108 5.404-.021 8.105.036 1.098-.12 2.234.181 3.281 1.287 4.49.137 9.02.276 13.525.045 1.443.618 2.668.813 4.018-2.557-.035-5.206-.506-7.646.012-2.662.564-5.104-.443-7.744-.146-4.353.486-8.807.053-13.219.018-3.174-.025-6.393-.393-9.456.719-.915.332-1.507-.359-2.316-.254-3.848.502-7.697-1.338-11.571-.012-.491.168-1.159-.082-1.72-.234-2.695-.725-5.432.045-8.118-.238-2.914-.307-5.803.926-8.737-.146-1.848-.676-3.722.518-5.688.467l-4.047-.135c-2.651-.066-5.298-.338-7.957-.123-.22-3.971-.026-7.914.947-11.779.542-2.15-.049-4.275-.27-6.328-.318-2.963.188-5.854.218-8.758.04-3.873-.136-7.762.094-11.639.056-.941.247-2.158-.985-2.365-1.336-.225-1.557 1.014-1.867 2.01-.487 1.566-.788 3.129-.385 4.766.14.572.161 1.176.052 1.756-1.019 5.451-.402 10.979-.785 16.457-.262 3.738-.018 7.465-.05 11.195-.015 1.704.282 3.28 1.186 4.733z"/><path fill="#FEBD97" d="M73.03 207.451c-2.975-1.736-5.389-4.109-7.6-6.713-.567-.668-1.07-1.449-1.773-1.93-2.547-1.738-3.922-4.422-5.817-6.689-1.395-1.67-2.51-3.486-3.84-5.15-1.579-1.973-1.87-4.531-3.454-6.43.624-1.074 1.349-2.035 2.788-1.441 1.423.586 2.364 1.641 2.04 3.256-.336 1.672-.015 2.619 1.678 3.469 1.232.619 2.002 1.656 3.644.898 1.544-.715 2.423-.1 2.088 1.523-.341 1.65.992 2.02 1.652 2.752.556.617 1.135-.582 1.757-.879.6-.285 1.201-.563 1.835-.746 1.518-.443 3.262-.568 3.089-2.895-.043-.586.657-.938 1.21-1.168 1.554-.645 2.981-1.596 4.711-1.822 1.476-.191 2.186-1.092 2.627-2.557.701-2.33 2.151-4.121 4.764-4.563.457-.076.94-.188 1.104-.617 1.283-3.371 4.869-4.813 6.532-8.095-1.608.688-2.89 1.729-4.257 2.612-1.969 1.271-2.521 1.172-3.608-.816-.292-.533-.625-.963-1.134-1.305-2.552-1.708-2.51-2.312.714-4.362-2.373.164-3.395-.588-2.567-2.657.05-.124 0-.3-.068-.428-.877-1.658-1.055-3.216 1.002-4.519-1.948-.308-3.364.677-5.005.424-1.306-.201-1.957-.479-1.685-1.833.206-1.022-1.01-2.25.283-3.056 1.316-.819 2.349-.045 3.288.911.407.414 1.005.501 1.296-.105.414-.862-.465-.641-.837-.856-2.375-1.376-4.722.358-7.093.07-.486-.059-1.009.167-1.526.186-1.367.048-2.315-.363-2.279-1.965.014-.634.178-1.483-.736-1.589-.797-.093-1.087.677-1.315 1.283-.542 1.439-1.267 2.823-1.365 4.405-.073 1.188-.522 2.167-1.764 2.522-1.093.313-1.832-.272-2.409-1.122-.715-1.056-1.622-1.263-2.623-.483-.824.641-1.637.889-2.657.546-1.135-.382-1.713.137-1.675 1.289.085 2.586-.929 4.711-2.709 6.495-.692.694-.624 1.35-.349 2.198.988 3.049.174 4.426-2.915 4.986-.768.139-1.456.297-1.734 1.117-.311.916.328 1.354.959 1.758 1.739 1.111 1.688 2.771 1.403 4.508-2.012.701-4.04 1.166-6.147.402-1.201-.836-2.575-.842-3.954-.82-3.551-.254-7.031-.791-10.204-2.555-.54-1.078.425-1.41.979-1.914.923-.842 1.141-1.723.685-2.955-1.112-3.001.624-5.19 3.688-4.788 1.897.248 2.754-.442 2.726-2.359-.011-.748.2-1.445.261-2.578-2.422 1.049-3.732-.957-5.476-1.849-1.345-.688-1.35-1.825-.082-2.739.832-.6 1.726-1.106 2.506-1.79.653-.573 1.425-.806 2.219-.248.781.549 1.26 1.223.818 2.25-.219.509-.597 1.082.279 1.593 1.031-1.034-.432-2.237.213-3.272.661-1.06 1.967-1.249 2.852-2.258-2.499-1.552-.397-3.128-.067-4.733 1.011-.563 2.018-.059 3.014.048 3.004.323 4.001-.547 4.017-3.651.004-.806-.067-1.614-.079-2.42-.01-.707-.14-1.519.793-1.841.806 1.359 1.618 2.451 3.153.67.509-.591 1.367-.673 2.01-.116 1.494 1.295 2.152.52 2.65-.94.271-.793.783-1.441 1.631-1.671 1.93-.524 1.918-1.732 1.199-3.227-.436-.906-.564-1.833-.017-2.739.697-1.15 1.692-1.194 2.319-.035.584 1.08 1.405 2.101 1.289 3.566 1.609-2.507 4.455-2.616 6.78-3.625 1.639-.712 3.736 1.51 3.755 3.652.029 3.375.66 4.027 3.971 4.103.892.116 1.783.225 2.668-.048.816-.056 1.519-.618 2.365-.542.623.214 1.251.407 1.886.59 1.393.401 2.215 1.264 2.392 2.797.197 1.709 1.124 2.004 2.484.975 1.023-.774.976-1.896 1.154-2.972.111-.67-.207-1.631.799-1.821.836-.159 1.218.63 1.748 1.128 1.513 1.423 1.606 3.34 1.998 5.183.248 1.17-.955 1.077-1.339 1.707.55.686 1.189 1.078 1.987 1.151.416-.598.056-1.093.068-1.587.072-2.993 2.043-4.876 5.047-4.778.781.025 1.499.239 1.704 1.097.191.802-.475 1.152-.997 1.548-.712.539-1.647.603-2.531 1.194.855 1.199 2.098 2.441.357 3.859-.241.196-.206.551.036.78.424.401.945.372 1.448.206.967-.319 1.89-.842 2.968-.378 1.015.436 2.172.726 2.074 2.185-.104 1.543-1.28 1.31-2.292 1.348-.289.011-.58.077-.729.579 1.071.476 2.299.721 3.175 1.66 1.104 1.184 1.031 1.786-.453 2.394-.48.196-.986.324-1.503.297-1.103-.057-1.712.254-1.365 1.522.256.938-.161 1.662-.782 2.384-1.094 1.273-.85 2.182.728 2.789 1.096.423 2.285.522 3.437.746 2.152.418 3.188 1.544 3.194 3.749.004 1.355.66 1.77 1.819 1.998.596.115 1.871-.131 1.194 1.285-3.251 1.047-6.571.791-9.888.529-1.308-.711-.805-1.469-.011-2.299-1.269.363-1.249 1.631-1.854 2.416-2.144.793-4.354 1.234-6.635 1.395-2.812.197-3.249.84-2.986 3.566.509 5.273 2.531 10.066 4.537 14.873.254.609.533 1.209.716 1.848.143.533.3 1.068.186 1.631-.486 1.107-1.527 1.215-2.533 1.484-1.598.428-3.038.951-3.016 3.148.014 1.326-.155 3.102-1.891 3.34-1.65.227-2.774-.906-3.397-2.621.122 1.75.089 3.213-2.235 2.432-.25-.086.044-.123-.208.014-1.128.615-1.46 3.305-3.565 1.35-1.381.668-2.863 1.064-4.295 1.598-.413.15-.809.359-1.115.693z"/><path fill="#FEAF91" d="M197.546 177.861c-2.813-.463-4.324.965-5.026 3.506-.915 3.305-3.298 5.713-5.114 8.469-1.157-.262-2.292-.855-3.496-.09-.293.188-.741.176-1.079.053-3.439-1.254-6.717.01-10.038.611l-.42.127c-1.272.186-2.608.162-3.521-.76-.903-.91.182-1.895.434-2.941-.28.309-.018-.061-.176.059-2.58 1.957-5.225 3.057-7.733.064-.864-1.031-.838-2.504.037-3.719.825-1.145.199-1.377-.821-1.42-.774-.033-1.381.217-1.947.801-2.038 2.102-2.584 2.047-4.635-.299-.338-1.432.212-2.756.516-4.105.492-2.186.219-2.629-1.818-3.523-1.085-.477-2.541-.467-3.008-1.932.184-1.053 1.151-1.471 1.771-2.17.59-.666.802-1.398.371-2.223-.447-.856-1.209-.657-1.938-.539-.655.105-1.285.311-1.915.51-.823.262-1.608.131-2.341-.27-.884-.481-1.259-1.244-.928-2.218.309-.907 1.019-1.195 1.934-1.006.499.103.987.4 1.503.245.892-.271 1.785-.552.908-1.794-.689-.975-1.356-2.019-.091-3.093.391-.333.173-.626-.116-.906-1.269-1.227-.458-2.089.545-2.87.576-.448 1.237-.772 1.794-1.268 1.043-.928 1.416-1.886.851-3.299-1.043-2.61-.713-5.035 1.439-7.049.439-.411.89-.913 1.502-.787 1.789.371 2.222-.493 2.074-2.047-.042-.434.083-.878.195-1.304.429-1.614 1.271-1.942 2.195-.636 1.246 1.76 2.589 2.187 4.495 1.278.523-.249 1.179-.218 1.739-.043 1.774.554 3.323.577 4.321-1.364.25-.484.81-.668 1.351-.455 1.442.569 2.224-.307 2.889-1.327 1.332-2.045 1.31-2.058 3.284-.689.408.283.753.725 1.488.531.057-.989-.706-1.691-1.003-2.546-.259-.746-.373-1.453.346-1.991.765-.572 1.558-.499 2.171.204 1.359 1.557 2.804 2.981 4.656 3.968.851.453.682 1.376.734 2.175.03.457.199.904.737.937.472.029.497-.436.656-.753 1.368-2.734 3.219-3.092 5.195-.831 1.02 1.167 2.448 1.249 3.638 1.921.44 2.042.848 4.095 1.847 5.963.435.532 1.279.649 1.462 1.435-.104.762.086 1.372.616 2.002 1.742 2.074 1.939 3.647.52 5.762-.761 1.134-.931 1.964-.136 3.143 1.027 1.525.211 2.514-1.326 2.935-1.081.297-1.686 1.016-1.185 1.896 1.136 1.996.733 3.739-.515 5.497 2.323-1.732 3.936-3.849 4.674-6.595.206-.767.567-1.674 1.52-1.677 1.099-.004 1.319 1.037 1.586 1.854.767 2.35-.081 4.355-1.573 6.091-.903 1.053-1.136 1.656.228 2.568 1.296.867.987 2.354.501 3.607-.331.855-1.118.826-1.87.473-.602-.281-1.105-.721-1.667-1.066-.824-.508-1.362-.379-1.595.633-.231 1-.409 2.059-1.692 2.287z"/><path fill="#FEC99E" d="M154.267 182.313c1.591 1.219 3.099 2.461 4.213-.578.34-.93 3.468-.799 4.178-.006.582.65.229 1.07-.336 1.406-1.439.857-1.052 2.064-.686 3.291.407 1.365 1.33 1.832 2.684 1.631 1.155-.172 2.315-.305 3.469-.482.783-.119.864-.611.689-1.297-.115-.449.023-.973.57-.994.551-.02.637.516.658.957.021.438.001.883-.051 1.318-.083.688-1.276 1.373-.537 1.904.814.584 2.132 1.064 3.084.574 2.684-1.383 5.834-.385 8.467-1.852.444-.246.806.107 1.085.502.626.887 1.685 1.004 2.347.477 1.506-1.197 2.434-.678 3.305.672-.556 1.82-1.963 3.029-3.013 4.488-2.621 3.643-6.447 6.057-8.973 9.699-.471.678-1.004 1.262-1.919 1.297-.562.021-1.126.334-1.23.791-.389 1.709-1.825 1.932-3.084 2.65-3.734 2.127-7.444 4.275-11.325 6.143-.899.432-2.573.045-2.693 1.764-1.481.039-2.954.283-4.276.902-4.74 2.223-9.842 2.787-14.911 3.709-4.254.771-8.509.539-12.729.66-2.917.084-6.04.773-8.975-.541-.748-.336-1.766-.328-2.6-.168-4.044.781-7.776-.957-11.662-1.289-3.865-.328-6.949-2.766-10.664-3.334-.601-.82-1.546-1.129-2.419-1.42-4.932-1.646-9.446-3.996-13.274-7.57-.139-.129-.416-.113-.628-.166.17-1.313 1.198-1.592 2.229-1.703.994-.109 1.851-.367 2.528-1.135.177-.199.643-.459.649-.451 1.785 2.449 1.889.23 2.726-.809.632-.785 1.771-.199 2.617.303.599-.688-.187-1.236-.138-1.863.071-.893.492-1.424 1.381-1.326 1.102.119.353.709.307 1.227-.122 1.383 1.204 1.471 2.051 1.861.95.439 1.273-.393 1.503-1.098.202-.621.395-1.268.443-1.914.16-2.152 1.228-3.445 3.383-3.613.955-.074 1.664-.443 2.394-.928 1.001.627 1.324 1.982 2.552 2.367 1.933 2.939 3.984 5.752 6.678 8.094 5.438 4.73 11.493 8.053 18.814 8.498 2.747.166 5.444-.684 7.851-1.844 4.167-2.01 7.68-4.906 11.034-8.211 3.723-3.666 5.643-8.338 8.396-12.514 1.373-2.082 2.063-4.811 2.545-7.406.191-1.035.364-2.021 1.293-2.673z"/><path fill="#1B1E1D" d="M60.551 49.359c1.567-1.864 3.818-.854 5.723-1.298.478-.111 1.126.046 1.709-.01 2.693-.258 3.093-.884 1.813-3.291-.932-1.753-1.642-3.53-1.911-5.515-.142-1.048.194-1.661 1.147-1.678 3.71-.063 7.377-.614 11.157-.013 1.908.303 3.999.793 5.987.503 2.585-.376 5.066.367 7.604.361-.804 4.874-1.138 9.734-.612 14.699.376 3.544.234 7.155.583 10.722.339 3.471.142 6.939.913 10.437 1.002 4.543 1.527 9.212 2.383 13.807-1.117 1.232-2.448.813-3.625.273-3.592-1.646-7.088-3.482-10.283-5.838-2.424-1.787-3.248-1.796-5.601-.04-.533.397-1.131.667-1.709.982-3.656 1.985-7.007 4.356-9.833 7.462-.725.797-1.28 2.307-2.92 1.595-.831-2.134-.095-4.34-.25-6.519-.372-5.219-.704-10.475.2-15.694.05-.289.116-.6.042-.874-1.413-5.215.107-10.621-1.042-15.852-.111-.505-.135-1.052.04-1.526.561-1.526-.206-2.248-1.515-2.693z"/><path fill="#1C1E1D" d="M115.43 38.792c1.409.381 2.819.805 4.229.006.425-.241.836-.141 1.268-.005 4.287 1.349 8.754.289 13.08.952 3.688.565 7.332 1.419 10.995 2.146.017 4.379-.004 8.758-.007 13.137-.003 4.154.285 8.308.614 12.44.148 1.854-.443 3.634-.074 5.459 1.003 4.955.832 10.055 1.829 15.012.086.431.183.862.184 1.305.006 2.425.125 4.807 2.412 6.367-.411.756-1.131.695-1.729.471-3.815-1.426-7.706-2.59-11.372-4.488-3.959-2.049-7.507-4.751-11.505-6.71-1.856-.909-3.303-2.462-4.696-3.934-1.329-1.402-2.582-2.345-4.561-1.644-.147-.259-.293-.539-.245-.832 1.022-6.164.391-12.32.065-18.492-.146-2.778-.735-5.621-.424-8.302.347-2.991-.694-5.974.256-8.874.468-1.424-1.13-2.61-.319-4.014z"/><path fill="#0D0D0D" d="M115.43 38.792c.852 1.97 1.351 3.938.489 6.08-.259.644-.132 1.464.29 2.12.577.898.547 1.759-.005 2.667-.826 1.356.015 2.701.089 4.053.303 5.507.682 11.013.829 16.524.054 2.042-.435 4.034.302 6.123.282.801-1.736 1.639-1.121 3.085.69 1.123-.109 2.138-.293 3.17-.541 3.027-1.291 6.012-2.136 8.973-.469 1.644-1.496 2.226-3.125 2.049-4.501-.487-8.717-1.945-12.836-3.736-.632-.274-1.11-.723-1.091-1.501-1.543-4.438-1.502-9.212-2.734-13.659-.89-3.212-.871-6.434-.963-9.561-.104-3.555-.871-7.097-.372-10.73.244-1.773-.763-3.642-.503-5.672.371-2.907.223-5.887.189-8.835-.012-1.045.938-.986 1.342-1.523 5.346-.435 10.692.242 16.027.333 1.822.031 3.804-1.109 5.622.04z"/><path fill="#FEAE91" d="M48.7 177.867c-.475-.381-.403-.92-.387-1.426.041-1.271-.243-2.238-1.628-2.768-.637-.244-1.644-.865-1.204-1.805.412-.879.67-1.973 2.225-1.975 3.102-.002 3.931-1.559 2.597-4.425-.479-1.029-.543-1.771.575-2.605 1.837-1.37 2.652-3.448 2.644-5.707-.009-2.434.294-2.783 2.667-2.008.811.265 1.113-.111 1.662-.556 1.281-1.039 2.648-1.394 3.565.519.396.826.949 1.357 1.898 1.06.847-.266 1.375-.905 1.312-1.822-.138-2.013.989-3.655 1.592-5.438.246-.726.757-1.753 1.928-1.386 1.117.349 1.348 1.092.993 2.241-.379 1.227.329 1.916 1.533 1.611 1.982-.502 4.148.194 5.996-.848 1.698-.958 2.764 1.419 4.457.706.243-.103.356 1.161-.146 1.666-.51.514-.943 1.551-1.935.708-.38-.323-.605-.823-.937-1.211-.628-.736-1.481-.729-2.213-.352-.875.452-.035.982.128 1.459.28.82-.08 1.585-.199 2.586 1.691-.56 3.465.659 5.083-.96.676-.677 1.593.501 1.99 1.232.419.773-.431.65-.855.834-1.553.67-1.336 1.799-.53 2.84.571.737.915 1.241.105 2.033-.802.786-.259 1.222.579 1.178.59-.031 1.148-.096 1.717.099.429.146.884.309.83.851-.049.493-.526.453-.87.444-.733-.021-1.242.344-1.726.832-.724.732-.918 1.354.261 1.797 1.224.461 2.314.794 2.485 2.567.127 1.32 1.417.914 2.248.293 1.518-1.139 3.047-2.244 4.781-3.046.447-.207.854-.75 1.257-.008.322.594-.063.913-.52 1.249-2.056 1.512-3.024 4.117-5.392 5.348-.389.201-.722.816-.784 1.281-.218 1.617-.88 2.326-2.645 1.988-1.054-.201-3.682 2.719-3.684 4.18-.002 1.938-1.247 2.783-2.688 2.865-2.049.113-3.496 1.494-5.34 1.947-.687.17-.817.695-.586 1.395.413 1.25-.032 1.865-1.409 2.086-1.873.301-3.702.781-5.059 2.361-.822.955-1.602 1.115-1.379-.625.025-.195-.112-.59-.139-.586-3.095.363-1.079-1.561-1.114-2.521-.038-1.051-.342-1.693-1.421-.928-.65.461-1.396.414-2.062.697-.767.324-1.288.215-1.38-.74-.043-.449-.162-.922-.702-.98-2.297-.252-2.755-1.439-2.019-3.512.446-1.256-.224-2.113-1.348-2.9-1.3-.908-1.63.219-2.324.703-.167.117-.42.105-.634.154-.542-.359-.367-.822-.246-1.328.347-1.467-.241-1.881-1.603-1.344z"/><path fill="#0E0D0D" d="M149.86 95.748c-3.244-.964-2.695-3.697-2.909-6.12-.163-1.849-.538-3.677-.734-5.524-.252-2.375-.594-4.762-.55-7.137.023-1.226-.818-2.066-.724-3.319.358-4.753.04-9.546-.254-14.267-.33-5.292-.221-10.541-.11-15.811.012-.563.276-1.12.422-1.68 3.383.537 6.731 1.266 9.985 2.317 3.467 1.12 7.103 1.946 10.119 4.09 1.734 1.233 3.97 1.344 5.529 2.826.794 1.555.841 3.253.812 4.927-.06 3.357-.631 6.719-.665 10.032-.041 4.005-.563 7.985-.427 11.982.096 2.824-.792 5.491-1.147 8.242-.141 1.089-.912 1.417-1.94 1.198-1.668-.437-2.903-1.663-4.384-2.453-4.729-2.523-6.94-1.511-7.367 3.839-.178 2.234-.915 4.273-1.403 6.392-.446 1.941-2.565 2.114-4.253.466zM197.469 147.468c-.713-2.018-2.056-3.894-1.399-6.22-1.305-2.745-1.314-5.747-1.585-8.669-.225-2.42-.705-4.791-1.266-7.118-1.08-4.477-2.311-8.972-4.47-13.045-1.278-2.41-2.405-5.039-4.576-6.903-.768-.66-.856-1.485-.684-2.401.463-2.464-.041-4.982-.205-7.371-.428-6.229.162-12.398.114-18.589-.028-3.671.418-7.302.403-10.961-.009-2.193.582-2.797 2.273-2.648 1.129.493 1.667 1.483 2.358 2.447 1.575 2.193 3.23 4.333 4.835 6.511 1.44 1.953 2.506 4.029 3.49 6.222.723 1.61 2.343 2.771 2.542 4.697.66.809.235 2.114 1.261 2.756 1.782 3.88 2.067 8.246 3.921 12.11.268.559.262 1.281.007 1.924-.31 6.08-.236 12.207-1.1 18.222-.826 5.757-.391 11.557-1.211 17.316-.416 2.912-1.221 5.867-.733 8.949.357 2.264-1.184 3.188-3.975 2.771zM60.551 49.359c.78.273 1.388-.275 2.321-.547-.093 2.654.107 5.233.064 7.737-.05 2.933 1.206 5.939-.208 8.854-.138.284.194.821.357 1.221.655 1.602.76 3.163.375 4.916-.379 1.723-.668 3.493-.222 5.385.602 2.554-.586 5.213.064 7.852.655 2.656-.17 5.354.071 8.03.035.219.076.49-.061.636-2.869 3.054-3.612 7.369-6.263 10.549-.876.806-.591 1.962-.882 2.945-1.84 4.707-2.887 9.646-4.231 14.497-.504 3.294-1.667 6.457-1.945 9.795-.228.663-.564 1.301-.483 2.042-.042.35-.186.64-.478.851-1.447.39-1.635-.699-1.716-1.622-.307-3.504-1.021-6.962-1.238-10.464-.119-1.921-.156-3.804-.918-5.599-.114-.269-.242-.58-.196-.853.75-4.424-.887-8.71-.708-13.125.135-3.354-.648-6.704-.739-10.077-.063-2.305-.46-4.656.8-6.808.64-2.434 1.335-4.771 2.75-6.982 1.304-2.037 2.45-4.223 3.632-6.34 1.097-1.964 2.445-3.634 3.997-5.024 1.714-1.536 1.388-3.784-.258-5.09-2.348-1.861-3.772-4.405-5.161-6.931-1.188-2.163-.632-2.88 1.854-3.586 2.084-.592 4.233-1.008 6.181-2.053 1.012-.544 2.148-.312 3.241-.209z"/><path fill="#1C1F1E" d="M186.074 63.542c-1.781-.011-1.672 1.43-1.739 2.499-.293 4.648-.249 9.309-.575 13.967-.129 1.84-.087 3.877.014 5.824.176 3.394-.706 6.836.486 10.193-1.742 2.322 1.148 4.952-.486 7.28-.964.232-1.535-.327-1.983-1.04-2.301-3.662-5.763-6.204-8.851-9.091-1.713-1.602-3.328-3.327-5.231-4.729-.448-.331-.903-.8-.621-1.5.697-.003 1.612.663 1.717-.821.265-3.746 1.137-7.418 1.017-11.229-.08-2.523.482-5.061.239-7.625-.24-2.531.545-4.993.671-7.522.144-2.896-.274-5.751-.097-8.624 4.345 2.798 8.73 5.543 12.367 9.286.552.786 1.322 1.323 2.106 1.844l.966 1.288z"/><path fill="#FEC59C" d="M197.546 177.861c1.023-.707 1.172-1.891 1.244-2.914.117-1.66.819-1.4 1.797-.82.439.26.86.551 1.29.828.662.426 1.466 1.643 2.067.406.436-.896.914-2.402-.664-3.195-1.678-.846-1.751-1.551-.364-2.883 1.956-1.878 2.563-4.364 1.578-6.538-.174-.384-.259-.927-.777-.965-.676-.049-.745.551-.92 1.031l-1.03 2.66c-.448 1.222-.66 2.54-2.279 2.944-.719.18-.794 1.172-1.192 1.775-.252.385-.328 1.139-1.048.824-.649-.283-.678-.945-.493-1.525.129-.404.418-.771.691-1.111.854-1.063 1.096-1.978.168-3.287-1.104-1.562-.5-2.714 1.294-3.167 1.689-.427 2.071-1.303.881-2.647-1.001-1.133-.938-1.807.034-2.949 1.629-1.912 1.757-4.651-.535-5.822-1.379-.704-.745-1.462.017-2.186 1.327-1.988 3.539-1.271 5.363-1.734.243-.062.543.141.829.035 1.915.343 3.941.403 5.718 1.1 2.378.934 4.544 1.992 6.046 4.636 1.721 3.03 1.22 6.23 2.136 9.12 1.016 3.203.083 5.764-.763 8.386-1.165 3.613-3.733 6.021-7.646 6.984-3.225.793-6.549.605-9.77 1.379-1.129.272-2.443-.22-3.672-.365z"/><path fill="#1D1F1E" d="M44.313 85.573c-.654 5.07-.125 10.113.622 15.11.23 1.543-.12 2.997-.027 4.508.197 3.199 1.534 6.33.522 9.658-.409 1.347 1.147 2.605 1.125 4.125-.066 4.536 1.164 8.948 1.327 13.466.026.708-.238 1.869 1.226 1.301.82 2.175-.062 3.976-1.256 5.708-.608.519-.471 1.349-.346 1.848.539 2.144-.359 4.099-.642 6.118-.141 1.007-1.191.793-1.996.686-1.649-.22-3.302-.411-4.953-.614-.695.141-1.333.021-1.904-.414-.949-1.181-.705-2.723-1.217-4.037-.231-2.672-.353-5.359-.729-8.011-.274-1.931.61-3.882-.446-5.841-.445-.825.008-2.485.257-3.163 1.05-2.853.025-5.734.657-8.615.456-2.077.892-4.39 1.089-6.644.366-4.19.889-8.47 2.451-12.523.486-1.26.614-2.779 1.002-4.14.837-2.928 1.352-5.994 3.238-8.526z"/><path fill="#FEC300" d="M19.284 16.774c.991.492 1.381 1.258 1.87 2.109 1.844 3.216 3.35 7.057 7.812 7.304 2.451.136 4.948-.389 7.412-.707 1.093-.141 2.72-1.217 3.122-.288.486 1.124-1.363 1.814-2.271 2.163-3.081 1.18-4.913 3.631-6.557 6.162-.754 1.16-.813 2.874-.884 4.352-.116 2.417-1.115 4.659-1.216 7.066-.021.483.021 1.144-.619 1.279-.629.132-.769-.537-1.095-.9-2.348-2.617-3.988-5.8-6.677-8.158-1.818-1.595-3.911-.894-5.866-.879-1.953.016-3.959.084-5.876.682-.431.134-.909.161-1.119-.355-.2-.489.045-.904.497-1.07 3.127-1.145 4.721-4.274 7.472-5.825 4.532-2.556 3.388-6.881 3.713-10.782.036-.43.051-.862.102-1.291.03-.269.108-.531.18-.862z"/><path fill="#FEC201" d="M180.768 27.688c2.649.313 5.171.438 7.78-.8 1.53-.726 2.532-1.703 3.287-2.967.995-1.667 1.729-3.494 2.509-5.282.37-.848.973-1.963 1.705-1.736 1.03.318.745 1.885.528 2.528-1.294 3.847.503 6.613 2.834 9.271 2.072 2.363 4.823 3.765 7.482 5.304.694.401 1.521 1.026 1.191 1.859-.373.941-1.124-.119-1.642-.037-1.834.289-3.59.897-5.502.951-1.003.028-2.019-.055-3.033.033-2.284.197-3.955.879-5.268 3.113-1.206 2.051-2.175 4.264-3.604 6.189-1.473.179-.706-1.181-1.166-1.697-.699-1.303-.904-2.761-.862-4.167.137-4.619-1.79-7.9-5.945-9.907-.445-.215-.813-.588-1.216-.888-.606-1.065.306-1.339.922-1.767z"/><path fill="#FEC69D" d="M38.142 147.027c.578.206 1.332-.269 1.774.459.244.458.51.905.142 1.432-.691.988-1.32 1.89.47 2.522.714.253.583.919-.147 1.286-.722.363-1.476.682-2.145 1.126-.619.411-1.203.922-.507 1.788.736.916.468 1.823-.254 2.572-.453.47-.943.116-1.347-.243-.896-.797-.639-1.527.124-2.233.684-.634.106-1.018-.29-1.438-.435-.462-.914-.8-1.525-.333-.341.26-.666.569-.92.914-.759 1.028-2.985.732-2.717 2.422.179 1.133 2.075.981 2.833 2.077.591.855 1.609.843 2.597.43.364-.153.83-.531 1.22-.158.488.469.067.963-.155 1.397-.35.686-.373 1.306-.192 2.094.391 1.701-1.528 3.34-3.121 2.729-1.127-.433-2.213-.624-2.962.485-.669.991-1.5 2.036-.511 3.372 1.14 1.541.387 2.758-.862 3.773-.5.406-1.223.574-1.249 1.395-3.102-2.428-4.36-6.051-4.518-9.558-.093-2.051.417-4.479.868-6.691.143-.7.288-1.287.219-2.032-.233-2.524 1.457-4.56 2.808-6.147 1.491-1.753 3.857-3.264 6.586-3.145.828.036 1.319-.555 1.998-.771.621.05 1.249.084 1.783.476z"/><path fill="#FEC100" d="M28.922 250.515c.091 2.883-.135 5.736-.708 8.975l-2.022-3.205c-.541-.959.189-2.102-.439-3.051-3.587-4.236-8.199-6.52-13.67-7.15-.523-.061-1.086-.086-1.173-.723-.096-.703.387-1 1.005-1.193.541-.17 1.166-.199 1.547-.723 1.228-.906 2.723-1.334 3.966-2.215 3.81-.613 5.687-2.471 5.19-6.688-.198-1.684 1.639-3.385 1.158-5.418-.028-.119.234-.406.404-.451.55-.146.753.281.937.684.98 2.148 1.858 4.352 2.956 6.438 1.762 3.346 4.113 5.982 8.345 5.887.421.379.972.098 1.418.268 1.146.436 1.548 1.043.324 1.902-1.843.902-4.112.723-5.708 2.25-1.921.876-2.684 2.676-3.53 4.413z"/><path fill="#1A618D" d="M166.147 302.383c-1.878-.637-1.729-2.57-1.437-3.617.632-2.268-.276-4.426.146-6.629.58-3.025-.52-6.004-.557-8.959-.028-2.213-.485-4.539.243-6.838.483-1.527-.124-3.311-.346-4.861-.425-2.961-.246-5.861-.189-8.783.023-1.188.806-1.926 2.053-1.754 1.028.141 2.298.086 2.353 1.693.148 4.371.088 8.768.575 13.104.266 2.365-.221 4.795.625 7.096.025.068.075.156.053.209-1.318 3.08.83 6.25-.292 9.379-.73 2.039.542 4.051.557 6.143.009 1.162.04 2.289-.198 3.424l-3.586.393z"/><path fill="#FEC301" d="M189.025 221.23c3.496.09 6.54-1.424 9.726-2.23 2.23-.564 2.732-3.006 3.595-4.797.532-1.102 1.364-1.988 1.849-3.254.014 3.148 1.674 5.711 2.295 8.564.737 3.383 1.929 4.508 5.315 5.059.711.117 1.223.463 1.692.928.28.277.412.859-.018.855-1.549-.014-2.803 1.248-4.418.885-2.917-.656-4.44.986-5.965 3.545-1.251 2.1-.534 5.119-3.199 6.512.69-8.291-5.047-12.121-10.872-16.067z"/><path fill="#1A618D" d="M76.084 302.363c-1.483-.408-1.709-1.396-1.779-2.861-.286-6.033-.007-12.059.106-18.082.072-3.828-.267-7.705.768-11.482.194-.707.033-1.447-.206-2.166-.652-1.965.307-3.799.676-5.639.198-.984 1.231-1.92 2.549-1.619 1.359.313 1.562 1.436 1.438 2.604-.428 4.033-.22 8.113-.188 12.123.022 2.813-.469 5.641-.142 8.555.307 2.721.747 5.678-.193 8.691-.78 2.5-1.13 5.443-.471 8.199.212.889-.293 1.168-.716 1.623-.604.306-1.222.187-1.842.054z"/><path fill="#1C1E1D" d="M205.498 146.622c-1.936 1.034-4.276.594-6.192 1.699-.507-.512-1.42-.149-1.837-.854 3.171-.304 3.571-.823 3.204-3.899-.104-.866-.186-1.81.045-2.628 1.163-4.13 1.279-8.421 1.422-12.615.068-1.994-.3-4.377.083-6.173.738-3.458.716-6.921 1.025-10.36.324-3.598.266-7.235.885-10.815.046-.269.232-.513.354-.768.941 3.012 1.111 6.16 1.532 9.256.303 2.227.066 4.523.297 6.764.552 5.361.137 10.68-.139 16.035-.152 2.957-.776 5.978.043 9.035.338 1.26-.157 2.89-.852 4.208-.238.451-.339.79.13 1.115z"/><path fill="#FEE285" d="M45.633 219.809c1.358-2.279-1.322-1.316-1.743-2.17.875.018 1.78-.098 2.613.098.556.131 1.555.096 1.567.877.012.801-.757 1.172-1.562 1.217-.29.017-.583-.013-.875-.022z"/><path fill="#FEE48D" d="M36.396 226.473c.163-2.289 1.523-3.992 3.529-4.414-1.531 1.187-1.969 3.248-3.529 4.414z"/><path fill="#FEDE6E" d="M209.476 70.637c-.322.581-.985.985-.92 1.767-.504-.04-1.028-.008-1.507-.139-.506-.138-.94-.498-.798-1.11.121-.518.588-.561 1.049-.548.725.02 1.451.02 2.176.03z"/><path fill="#444543" d="M38.142 147.027c-.733.361-1.301.097-1.786-.475.803-1.09.682-2.296.438-3.517.735 1.234 1.166 2.57 1.348 3.992z"/><path fill="#FEDD6E" d="M216.579 87.366c.487.498.235 1.504 1.166 1.697-.021.453.307 1.125-.405 1.217-.639.083-1.071-.526-1.113-1.063-.047-.604.221-1.233.352-1.851z"/><path fill="#FEC69D" d="M38.599 177.449c1.566-.92 2.788-.184 3.954.82-1.26-.554-2.755.028-3.954-.82z"/><path fill="#95C3E5" d="M57.101 266.172c.279 1.318.434 2.609-.826 3.572.233-1.199-.544-2.635.826-3.572z"/><path fill="#FEEAA8" d="M24.901 217.188c-1.021 1.279-2.483 1.766-3.966 2.215 1.002-1.311 2.434-1.854 3.966-2.215z"/><path fill="#FEE38A" d="M33.227 229.191c1.041.889.845 1.955.439 3.051-1.396-.836-.501-2.004-.439-3.051z"/><path fill="#5B5C5B" d="M185.108 62.253c-1.224-.019-1.946-.611-2.106-1.844 1.081.182 1.676.919 2.106 1.844z"/><path fill="#BEBEBE" d="M200.56 86.175c-1.535-.409-1.205-1.67-1.261-2.756 1.092.611.907 1.807 1.261 2.756z"/><path fill="#1A618D" d="M88.36 224.955c.19-.938-.421-1.766-.606-2.682-.181-.896.195-1.631.828-2.143.713-.576 1.445-.049 2.006.369 1.135.848 2.18 1.965 2.465 3.301 1.056 4.949 4.641 8.43 7.12 12.535.694 1.15 2.216 1.809 3.374 2.67.344.256.69.102 1.001-.139 1.21-.932 2.711-1.447 3.907-2.289 3.328-2.346 6.633-4.713 10.073-6.898 1.251-.797 2.616-1.268 3.928-1.891.437-.207.895-.459 1.439-.078 2.732 1.904 6.087 3.301 8.063 5.795 1.937 2.441 4.816 3.225 6.72 5.404.542.619.826.369 1.536-.063 3.429-2.092 5.082-5.662 7.467-8.598 1.834-2.258 2.231-5.27 3.451-7.873.891-1.9 2.087-2.629 3.643-1.607.381.252.917.627.72.992-.967 1.787-.417 3.832-1.395 5.762-1.308 2.578-2.761 5.047-4.264 7.492-2.236 3.639-5.046 6.768-8.935 8.688-1.815.896-3.852-.053-5.144-.916-2.221-1.484-4.25-3.383-6.352-5.094-2.024-1.646-3.897-3.594-6.359-4.68-1.342-.592-2.475.326-3.121 1.037-1.456 1.598-3.413 2.41-5.056 3.684-2.396 1.854-4.878 3.605-7.267 5.49-2.06 1.627-7.327.363-8.851-2.102-.72-1.162-1.54-1.936-2.674-2.707-1.125-.766-1.842-2.207-2.562-3.5-1.553-2.791-3.257-5.496-4.88-8.248-.291-.494-.635-1.016-.275-1.711z"/><path fill="#B92547" d="M154.267 182.313c-.923 3.15-1.616 6.396-2.842 9.424-.992 2.449-2.529 4.703-4.035 6.9-.486.709-1.134 1.191-1.237 2.172-.062.596-.509 1.234-.95 1.691-4.197 4.34-8.291 8.939-14.017 11.225-3.445 1.375-7.083 2.508-11.07 1.379-2.428-.688-4.971-.938-7.252-2.166-3.966-2.133-7.593-4.684-10.83-7.857-1.954-1.914-3.315-4.164-4.696-6.445-.84-1.355-1.732-2.676-2.643-3.984-1.476-3.592-3.157-7.115-4.355-10.797-.808-2.484-1.004-5.18-1.342-7.799-.199-1.547 1.286-2.574 3.599-2.553 2.419.023 4.684-.674 6.968-1.316.414-.42.844-.365 1.282-.043 3.541.156 7.066-.018 10.576-.51 1.348-.102 2.694-.215 3.956-.766.429-.074.85-.043 1.266.076.607.281 1.254.553 1.904.303 2.12-.82 4.302.102 6.433-.297 3.214.256 6.437.053 9.655.162 4.609.158 9.091 1.762 13.747 1.059.5-.074 1.038.01 1.367.514.91 1.086 2.337 1.051 3.51 1.521 1.708.686 2.459 1.814 1.993 3.643-.377 1.475-.661 2.975-.987 4.464z"/><path fill="#FEC69D" d="M115.42 171.227c-1.281.643-2.542 1.479-3.997.406-.543-.557-1.243-.311-1.882-.361-1.547-.125-2.242-.848-1.929-2.473.314-1.632-.818-2.997-2.571-3.261-1.153-.173-2.321-.297-3.449-.579-1.13-.282-1.979-1.028-2.295-2.177-.288-1.047.666-1.32 1.3-1.769.929-.655.747-1.461.354-2.339-.644-1.439.026-1.979 1.374-1.651 1.224.298 2.072-.368 3.433-.764-1.42-.854-1.973-2.35-3.654-2.215-.562.045-1.34.094-1.383-.694-.047-.879.744-1.155 1.447-1.429.708-.276 1.761 1.137 2.167-.419.122-.467.173-1.117-.467-1.316-1.054-.328-2.017-1.36-3.265-.435-.98.728-2.001.884-2.974-.05-.504-.484-1.048-.992-.036-1.503 1.981-1 1.243-1.934-.061-2.85-.344-.242-.916-.354-.782-.898.122-.495.663-.47 1.093-.569.852-.195 1.741-.347 2.426-.947.34-.298 1.09-.404.749-1.123-.259-.545-.818-.56-1.342-.547-3.494.086-5.032 2.284-3.968 5.707.308.99-.025 1.19-.954.984-1.523-.339-2.594-1.229-3.392-2.479.384-.831.93-.214 1.375-.269.352-.043.938-.008.83-.455-.577-2.395-.895-4.953-3.4-6.619-.403 2.106.16 4.338-2.108 5.632-.9.514-1.508.296-2.228.053-.904-.305-.836-.956-.646-1.787.362-1.588-.727-2.257-2.037-2.504-.761-.143-1.455-.199-1.766-1.028-.085-.232-.044-.438.125-.62.41-.393.938-.353 1.447-.4 2.243-.206 3.756-1.436 4.201-3.586.807-3.898 5.798-5.78 8.761-5.704 2.07.054 4.958 2.59 5.087 4.221-1.062.94-2.22.265-3.343.195-.897-.056-1.874-.138-2.118 1.005-.242 1.133.475 1.754 1.473 2.096.414.142.978.089 1.238.387 1.439 1.645 2.633.684 3.852-.28.846-.094 1.424.408 2.007.899.572.746.979 1.648.341 2.421-1.074 1.301-.331 2.115.508 3.013.706.757 1.616 1.278 2.312 2.035.606.659 1.169 1.412.723 2.365-.41.876-1.245.89-2.091.828-.615-.046-1.442-.439-1.715.422-.21.667.565.944.988 1.313 1.71 1.497 2.829 3.542 4.703 4.91.97.708.463 1.765-.026 2.599-.615 1.049-.436 1.832.343 2.764.824.987 1.371.315 2.198.126 1.558-.356 3.071-1.032 4.72-.959.66.029 1.43-.059 1.6.799.209 1.053-.613.849-1.253.972-.789.152-1.535.505-1.934 1.447 1.071-1.651 2.398-1.574 3.857-.769 1.125.621 2.465.367 3.628.847.973.4 2.065.855 1.827 2.123-.22 1.168-1.35 1.217-2.321 1.186-1.449-.047-2.9-.023-4.487-.236 1.359 1.121 2.669 1.616 4.354 1.473 2.776-.238 3.266.426 2.556 3.06-.172.637.279 1.336-.268 1.898-2.282.604-4.682-.152-6.958.613-.46.154-.805-.252-1.052-.641.082-.805 1.022-1.25.913-2.121-.062-.498-.199-1.064-.813-1.104-.552-.035-.613.504-.717.91-.194.746.022 1.605-.628 2.221zM47.852 139.449l1.256-5.708.086-.875c.898-.201 1.862-.027 2.68-.475.327-.053.013-.403.119-.127.022.057-.043.071-.176.111-1.013.31-1.836.144-2.327-.895-.385-1.632.465-3.077.755-4.597.355-1.867 1.047-3.669 1.117-5.599.988 2.29 3.053 3.037 5.219 3.62.963.259 1.756.714 2.275 1.596.313.532.717.983 1.417.727.639-.234.48-.831.499-1.326l.008-1.1c.027-.887-1.282-1.776-.193-2.606 1.354-1.031 2.277-2.811 4.353-2.701l.22-.007c4.261-.211 7.263-2.049 8.122-6.473.328-1.688 1.305-2.292 2.898-2.406 1.622-.116 3.157-.649 4.639-1.32.926-.043 1.956-.576 2.641.545-.305 2.236-1.582 3.757-3.662 4.458-.967.325-1.521.723-1.666 1.735-.084.588-.364 1.215-.878 1.479-1.144.587-1.045 1.389-.617 2.334.122.269.249.564.146.849-.467 1.299-2.11 1.513-2.581 2.897-.531 1.563-1.827 1.438-3.125 1.053-.272-.081-.569-.135-.91.286.719 1.306 1.649 1.914 3.12.963.923-.597 1.892-1.124 2.723-1.865 1.178-1.049 2.103-2.121.952-3.757-.314-.447-.404-.983-.042-1.44.432-.544 1.063-.514 1.616-.27 2.33 1.03 5.358.67 6.806 3.481.453.878 1.645.513 2.327 1.091-.527 1.732-2.113 2.51-3.31 3.625-1.962 1.828-3.737 3.72-3.718 6.648.003.434-.124.871-.423 1.223-.587.24-.857-.177-.931-.594-.303-1.717-1.482-2.274-3.006-2.262-1.141.009-2.211.36-2.597 1.618-.459 1.5-.833 3.016.691 4.208.23.18.45.374.688.543.46.494 1.555.291 1.501 1.352-1.754.429-3.156-.193-4.324-1.469-.567-.619-.973-1.271-.491-2.168.843-1.569-.158-2.722-1.125-3.663-.976-.949-1.927-.704-3.003.341-.709.688-2.155.143-3.19.977-.668.538-1.514.746-1.706 1.766-.071.376-.259.989-.805.859-.537-.126-.871-.804-.715-1.213.45-1.181-.116-1.942-.819-2.711-.364-.398.162-1.646-.969-1.237-.954.345-1.128 1.333-.876 2.249.15.544.736.997.804 1.531.148 1.18.506 2.73-1.284 2.907-1.524.15-1.92 1.007-2.259 2.224-.494 1.774-1.577 2.151-2.812.817-.896-.968-1.374-.708-2.139-.023-.619.554-1.071 1.705-2.09 1.294-1.032-.416-.867-1.576-.909-2.52z"/><path fill="#FDFDFD" d="M74.807 138.621c-2.398-1.949-2.778-3.126-1.63-5.792.642-1.491 2.137-1.865 3.486-1.61 1.245.235 3.169.099 2.978 2.357-.03.357-.037.736.321.98.831 1.009 1.346 2.158 1.525 3.454l-.104.49c-.657.465-1.209 1.161-2.16.983-1.508-.107-2.945-.57-4.416-.862z"/><path fill="#FECA9E" d="M100.847 172.143l-1.282.043c-.393-1.564 1.02-2.02 1.792-2.85.271-.291.692-.146.944.188.347.461.161.91-.268 1.086-.727.3-1.338.595-1.186 1.533z"/><path fill="#E18078" d="M94.695 194.65c1.245 1.086 2.588 2.109 2.643 3.984-1.654-.105-1.714-1.564-2.235-2.633l-.408-1.351z"/><path fill="#FEAE91" d="M53.568 151.543c-.062.461-.144 1.011-.699.877-.64-.153-1.138-.697-1.298-1.324-.15-.593.336-.962.895-.928.816.051.891.801 1.102 1.375z"/><path fill="#FECA9E" d="M74.807 138.621c1.545-.085 3.02.186 4.416.863-.885.313-1.771.314-2.656.004-.379-.714-1.376-.168-1.76-.867z"/><path fill="#FEC69D" d="M87.254 145.21c-.634 1.079-1.116 1.335-1.804.853-.135-.095-.277-.434-.219-.51.458-.6 1.045-.198 2.023-.343z"/><path fill="#FEAE91" d="M83.035 178.859c.723.543.807 1.123.853 1.887-1.036-.262-1.325-.766-.853-1.887z"/><path fill="#FECA9E" d="M81.045 109.326c-1.32 1.699-3.335 1.571-5.148 1.869-1.011.166-1.778.179-2 1.489-.849 4.999-3.486 7.318-8.832 7.297-2.284-.008-2.678 2.322-4.463 2.729-.233.053-.032.539.216.712 1.505 1.046.065 2.583.633 3.837.246.542-.534.772-1.07.733-.675-.05-1.647.348-1.845-.68-.308-1.607-1.436-1.967-2.749-1.929-1.515.045-2.189-2.693-4.261-.795.426-1.394.129-2.349-.165-3.305 1.246-4.927 2.341-9.898 4.378-14.588.855-.812.181-2.127.975-2.96 1.304-1.826 2.117-3.848 2.918-5.954.709-1.864 2.453-3.333 3.74-4.977 2.231-1.902 4.328-4.027 6.418-6.004 2.74-2.592 6.412-3.399 8.992-6.07 1.021-1.057 2.934-.113 4.102.834 3.449 2.797 7.541 4.456 11.37 6.571.693.383 1.704.189 2.567.262.296.315.54.814.897.917 4.511 1.29 8.751 3.509 13.549 3.839 1.243.085 1.817-.428 2.064-1.415 1.025-4.09 1.985-8.197 2.97-12.297.837-1.756 1.738-2.012 3.14-.54 2.486 2.612 5.039 5.121 8.357 6.63 2.807 1.277 4.99 3.478 8.004 4.616 2.431.918 4.744 2.499 7.275 3.516 2.215.89 4.445 1.634 6.782 2.083 2.742 1.162 2.705.928 3.805-1.847 1.282-3.232 1.427-6.716 2.696-9.933.433-1.097.851-1.333 1.893-1.127 2.543.502 4.901 1.391 6.993 2.959.573.43 1.049 1.051 1.839 1.144 2.536 2.341 5.114 4.638 7.595 7.035 2.768 2.675 5.865 5.049 7.882 8.44.235.395.798.595 1.209.885-.175 2.071 1.961 2.589 2.796 4.055 1.929 3.385 3.946 6.771 5.125 10.427 1.478 4.586 2.971 9.261 3.347 14.097.125 1.609.958 3.398.705 4.466-.437 1.838 1.239 3.266.324 4.897-1.77-.029-3.35-.465-4.247-2.167-.524-.995-1.376-1.059-2.261-.82-.948.255-1.79.708-1.74 1.939.031.759.011 1.609-1.104 1.429-.984-.16-1.635-.841-1.479-1.849.13-.843.384-1.606-.641-1.982-1.879-.689-3.089-2.15-4.251-3.651-.474-.611-.902-.919-1.644-.452-.821.518-.516 1.042-.12 1.655.352.545.601 1.156.9 1.735.231.447 1.178.785.394 1.387-.497.382-1.233.531-1.858.069-.41-.304-.795-.645-1.175-.987-.885-.798-1.372-1.092-1.948.467-.52 1.407-1.476 3.098-3.614 1.914-.706-.391-.91.023-1.092.559-.657 1.925-2.08 2.071-3.714 1.521-1.016-.342-2.063-.594-2.979-.027-1.934 1.198-3.127.352-4.158-1.254-.267-.417-.43-1.117-1.014-1.024-.825.13-.359.976-.576 1.464-.284.641-.049 1.275-.066 1.905-.023.837-.016 2.045-1.528 1.751-1.731-.336-3.894 1.336-4.069 3.205-.116 1.243-.023 2.475.426 3.681.783 2.105.19 3.553-1.796 4.604-.323.171-.703.259-.99.473-1.063.791-2.021 1.612.054 2.352.354.125.687.307 1.168.526-2.758 1.665-2.771 1.742-.842 3.798.313.333.769.805.25 1.037-1.027.46-1.684 2.164-3.199 1.137-.869-.59-1.616-.832-2.071.391-.188.504-.108 1.109.382 1.387.68.382 1.418.856 2.257.481.743-.331 1.483-.554 2.304-.655.916-.113 1.865-.746 2.326.661.408 1.244.607 2.428-.668 3.334-.655.467-1.29.961-1.935 1.441-2.863 0-5.794.725-8.574-.145-3.273-1.023-6.653-.402-9.949-1.061-2.116-.42-4.373.717-6.555-.131-.187-.869-1.121-1.564.019-2.652 1.017-.97.187-1.794-1.021-1.8-1.995-.01-4.016.396-5.709-1.201-.227-.215-1.129.109-1.04-.639.102-.859.898-.979 1.545-.754 1.499.52 3.04.113 4.547.337.591.087 1.301.001 1.468-.675.197-.791-.479-1.19-1.091-1.439-1.804-.732-3.888-.422-5.618-1.638-.549-.386-1.302.322-1.554 1.155-.133.443-.248 1.129-.928 1.006-.25-.045-.467-.527-.608-.85-.24-.549-.05-1.061.455-1.322.829-.43 1.573-1.137 2.62-.986.292.042.618.154.652-.276.014-.176-.116-.445-.265-.538-.578-.361-5.827.849-6.201 1.427-.146.226-.178.525-.314.954-.656-.63-1.156-1.23-1.77-1.675-1.388-1.005-1.609-2.049-.475-3.429.833-1.014.747-1.826-.576-2.616-2.141-1.279-3.078-3.809-5.212-5.249-1.306-.88-.095-1.594.887-1.856.385-.103.865.055 1.278.175.75.217 1.595.392 1.914-.459.315-.841-.321-1.583-.974-2.044-1.334-.941-2.567-1.947-3.401-3.384-.255-.44-.776-.943-.051-1.258 1.516-.659.979-1.717.69-2.763.408-.293.766-.054 1.133.098 1.462.505 2.863.87 3.238-1.312 1.057-5.856-1.691-9.114-6.186-11.888-4.142-2.556-8.558-3.155-13.096-.853-.436.221-.917.499-1.449.201-1.37.415-2.479-.045-3.132-1.234-.761-1.384-1.795-1.908-3.366-1.963-.969-.034-1.918-.666-2.875-1.032-.361-.138-.762-.22-.986.141-.126.202-.135.598-.018.807.441.797 1.543 1.402 1 2.486-.597 1.192-1.658 2.059-2.717 2.836-.759.557-1.655.913-2.375 1.57-.716.654-1.508.339-2.248-.062-.896-.485-1.513-1.359-1.587-2.231-.08-.95.805-.8 1.458-.503 1.692.769 2.949.662 3.386-1.495.072-.354.542-.811.901-.892 1.842-.412 1.53-1.421.784-2.56-.575-.878-.522-1.392.672-1.391.06 0 .168-.072.174-.121.475-3.862 5.226-3.792 6.417-6.987.076-.203.088-.429.13-.644 5.683-2.832 11.496-4.766 17.915-2.648 1.082.357 2.194.432 3.166-.298.908-.682 1.757-1.574 1.471-2.764-.39-1.622-1.683-2.613-3.23-3.008-3.771-.961-7.563-1.154-11.456-.453-2.691.484-5.234 1.288-7.778 2.211-1.747.634-2.278 1.903-2.257 3.608.014.942.514 1.878.017 2.814z"/><path fill="#FEC99E" d="M177.317 186.523c-.89.176-1.483-.213-1.511-.783-.042-.871.735-1.324 1.49-1.15.852.195 2.402.004 2.369.998-.048 1.445-1.85.103-2.348.935zM170.03 188.082l2.637-1.303c-.925 1.496-.925 1.496-2.637 1.303z"/><path fill="#FEAF91" d="M182.364 191.211c.611.037.96.434 1.006 1.072.017.236-.18.703-.214.697-.689-.123-1.072-.643-1.318-1.229-.117-.274.107-.522.526-.54z"/><path fill="#FECA9E" d="M49.49 131.48c1.17 1.334 2.563-.168 3.864.218-1.139 1.454-3.029 1.955-4.16 1.168-.73-.639-.243-1.018.296-1.386z"/><path fill="#6E5847" d="M56.715 103.736c-.181 1.034.187 2.249-.975 2.96.13-1.05-.396-2.318.975-2.96z"/><path fill="#FECA9E" d="M115.42 171.227c0-.586-.005-1.172.001-1.758.011-.906.145-1.888 1.015-2.262.706-.304 1.086.466 1.451 1.033.606.939.653 1.75-.337 2.447l-.887.635-1.243-.095z"/><path d="M87.581 123.146c2.196-1.475 4.84-2.569 7.233-2.284 3.345.397 6.801 1.111 9.544 3.754 2.37 2.284 4.356 4.496 4.79 7.95.158 1.258-.154 2.262-.363 3.373-.958 1.521-2.25 2.043-3.959 1.329l-.886-.368c-.665-.181-1.284-.441-1.75-.979-.724-1.063-.801-2.364-1.297-3.511-.859-2.458-4.856-4.33-7.524-3.439-2.867.957-5.075 2.529-5.81 5.78-.528 2.336-2.788 3.393-6.073 3.26-.707-1.063-1.745-1.98-1.525-3.454-.237-5.659 4.113-8.253 7.62-11.411z"/><path fill="#FECA9E" d="M100.894 132.41c1.38.82 1.272 2.19 1.297 3.511-.526.6-1.021 1.232-1.596 1.782-.231.221-.919.382-.928.36-.829-1.867-3.071-1.395-4.256-2.584-.711-.714-.783-1.593-.384-2.623.424-1.095 1.229-.818 1.981-.869 1.319-.09 2.546.686 3.886.423zM113.513 164.166c.003.416-.251.696-.6.761-.477.086-.812-.193-.871-.684-.049-.412.244-.695.589-.762.482-.092.782.204.882.685zM99.864 139.335c-.088.624-.387.904-.865.964-.293.037-.645-.023-.625-.399.029-.561.413-.931.941-1.012.171-.026.397.317.549.447z"/><path fill="#010101" d="M81.045 109.326c-.232-1.051-.67-2.106-.651-3.153.033-1.745.63-3.204 2.563-3.886 4.462-1.574 9.064-2.849 13.743-2.684 2.643.093 5.726-.062 8.025 2.054 1.296 1.193 2.394 2.384 1.313 4.331-1.081 1.945-2.404 2.66-4.778 1.846-3.986-1.367-8-1.144-11.842.015-2.064.622-3.972 1.847-6.219 2.021-.592-.682-1.595.269-2.154-.544z"/><path fill="#FECA9E" d="M77.482 125.823c1.1-.085 2.154.033 2.284 1.026.098.748-.755 1.484-1.578 1.5-1.045.021-1.774-.803-1.93-1.74-.169-1.013.817-.714 1.224-.786zM51.186 127.199c.575.052.946.343 1.016.916.071.581-.237.987-.779 1.106-.667.146-.876-.294-.887-.874-.009-.51-.015-1.021.65-1.148z"/><path d="M155.675 133.123c-.839-1.781-2.39-3.125-3.86-4.088-1.361-.891-3.537-.414-5.242.03-2.717.707-4.319 2.533-4.749 5.466-.332 2.261-2.389 3.311-4.634 2.691-2.509-.692-3.245-2.185-2.594-4.803 1.036-4.166 3.177-7.707 7.004-9.548 4.084-1.965 8.446-2.819 12.947-.482 2.646 1.374 4.792 3.109 6.769 5.312 1.297 1.446 1.528 3.185 2.306 4.759 1.43 1.88 1.157 3.109-1.065 4.802l-2.468.865c-3.235-.11-3.639-2.72-4.414-5.004z"/><path fill="#010101" d="M145.441 100.102c3.928-1.367 8.171.202 12.461.785 2.138.292 3.763 1.849 5.512 2.929.408.252 1.56 2.26.541 3.815-1.083 1.653-2.169 3.009-4.33 1.915-3.419-1.731-7.21-2.121-10.868-2.775-1.755-.314-3.867.279-5.735.707-1.834.419-3.098-.547-4.556-1.075-.627-.227-.572-.926-.436-1.544.612-2.779 3.417-4.917 6.27-4.758.22.011.439.001 1.141.001z"/><path fill="#FDFCFC" d="M162.558 137.262c.979-1.463 2.213-2.869 1.065-4.803 1.423-.838 2.67-1.389 4.582-.796 1.771.549 2.75 1.391 2.922 2.95.185 1.674-.974 2.975-2.375 3.656-1.5.729-3.216.887-4.926.719-1.116-.109-1.192-.897-1.268-1.726z"/><path fill="#B82746" d="M122.425 157.095c-1.233-.244-2.385-.625-3.597.205-.437.3-.834-.342-.562-.961.467-1.061.77-2.242 1.441-3.15.791-1.07 1.883-1.98 3.236-.543.194.206.479.325.717.49.899.626 2.065 1.319 1.715 2.507-.378 1.29-1.887 1.118-2.95 1.452z"/><path fill="#FEAF91" d="M155.675 133.123l.167.14c1.121 1.951 2.664 3.721 4.248 4.864-3.361.089-4.452-1.147-4.415-5.004z"/><path fill="#BD9779" d="M104.826 137.268c1.626.471 2.745-.572 3.959-1.329-.493 2.061-1.983 2.562-3.959 1.329z"/><path fill="#FEAF91" d="M172.494 137.323c.418.031.894.124.884.528-.022.852-.86.869-1.427 1.095-.349.139-.795-.007-.794-.48.001-.88.784-.914 1.337-1.143z"/><path fill="#E86269" d="M302.307 256.049c.572-2.754.811-5.566 2.045-8.189.766-1.625 1.211-3.449 1.504-5.234.553-3.371 2.354-6.279 3.785-9.205 1.309-2.68 3.154-5.279 5.033-7.723.391-.506.521-.797.184-1.289.107-.521.621-.711.891-1.102 2.891-2.137 4.961-5.193 7.91-7.225 1.506-1.035.627-2.283.846-3.43 2.387.479 4.623 1.24 5.938 3.502.482.834 1.211 1.459 1.717 2.262 1.848 3.287 3.754 6.541 5.785 9.717 1.006 1.574 1.418 3.535 3.045 4.705.926 1.242 1.045 2.93 2.225 4.033 2.201 2.154 3.381 5.146 5.83 7.105.398.318.721.729 1.105 1.068 3.572 3.158 6.576 2.686 9.307-1.225 1.758-2.518 3.949-4.705 6.031-6.965.752-1.949 2.734-2.988 3.578-4.869 1.035-1.449 1.506-3.174 2.336-4.723 1.064-1.338 2.811-2.283 2.514-4.4 1.119-1.76 1.395-3.859 2.309-5.703 1.357-2.205 3.734-2.52 5.92-3.195 3.852 2.785 7.467 5.834 10.502 9.523.496 1 1.818.6 2.416 1.424.016.023-.02.109-.053.137l-.191.082c-.926 1.355.154 2.211.885 3.002 3.074 3.322 4.666 7.469 6.504 11.473 1.957 4.266 2.643 8.938 4.096 13.367.33 1.006.207 2.168.232 3.262.027 1.188.143 2.328.875 3.338.936 1.291.09 2.764.344 4.195.584 3.268.736 6.654 1.066 9.955.268 2.684.359 5.441.527 8.115.129 2.084.439 4.287.037 6.488-.256 1.406.291 2.967.182 4.506-.305 4.277-2.004 7.486-6.979 6.678-2.443-.396-4.965-.361-7.436.201-.635.145-1.318.098-1.889-.344-.039-.217-.141-.441-.115-.648.727-5.617-.074-11.289.648-16.914.402-3.146-.184-6.305-.541-9.418-.498-4.355-.918-8.732-1.697-13.057-.039-.215-.039-.441-.111-.65-.215-.621-.391-1.426-1.193-1.365-.688.053-.793.83-.84 1.396-.176 2.131-.35 4.371.467 6.314 1.098 2.611.563 5.342 1.047 7.992.373 2.037.184 4.369.363 6.479.463 5.363.006 10.639-.563 15.922-.195 1.832.139 3.109 1.744 4-.457.773-1.193.852-1.926.629-3.092-.943-6.217-.379-9.342-.438-3.178-.059-6.381-.201-9.549-.094-3.686.127-7.367-.057-11.061.115-3.424.16-6.908-.17-10.381-.105-5.891.109-11.789.092-17.68.063-5.225-.025-10.467.504-15.688-.172 1.463-1.156 1.51-2.625 1.457-4.412-.096-3.277-1.115-6.539-.283-9.844.107-.422.088-.895-.031-1.316-1.465-5.221.338-10.291.684-15.428.215-3.213.379-6.428 1.223-9.561.133-.492-.076-.885-.58-1.018-.795-.213-1.18.223-1.508.908-1.275 2.66-1.51 5.551-1.477 8.381.025 2.004-.195 3.975-.504 5.883-.791 4.898-.654 9.777-.406 14.684.193 3.842.656 7.67.574 11.523-3.002.76-6.139.73-9.133.666-2.357-.051-5.236-.584-6.729-3.203-.973-.844-.643-1.938-.57-2.982-.115-2.484-.498-4.992-.279-7.447.285-3.191-.158-6.52.51-9.508.551-2.465-.377-4.916.533-7.096 1.246-2.982.594-6.107 1.232-9.102.639-1.432.409-3.012.749-4.494z"/><path fill="#FEB295" d="M274.908 178.742c-.787-.973-1.602-1.385-3.043-1.488-1.773-.129-3.764-1.037-5.143-2.213-6.443-5.5-8.039-10.406-6.82-19.145.238-1.718.096-3.422.912-5.104 1.555-3.197 3.822-5.703 6.699-7.668.563-.384.846-.701.91-1.306 2.135 1.034 4.115-.03 6.143-.456 1.932-.025 3.672.751 5.346 1.525 1.814.837 2.994.552 3.775-1.285 1-.678 2.375.3 3.289-.721.092-.379-.215-.498-.391-.711-1.338-1.63-1.336-3.188-.016-4.216 2.031-1.58 3.867-1.506 5.242.075.691.796.65 2.48 1.902 2.389 1.014-.073 1.322-1.629 2.242-2.262.623-.429.854-1.153 1.188-1.808.861-1.697 1.658-1.776 2.938-.36 1.568 1.738 3.824 2.247 5.848 1.314 1.156-.212 2.18.188 3.184.679.582.294 1.133.564 1.842.603 2.859.156 3.738 1.036 4.102 3.891.154-1.165.459-2.245 1.867-2.222 1.436.023 1.771 1.13 1.934 2.262.258 1.812 1.107 3.516 1.01 5.38-.039.773.357 1.032.982 1.206 1.061.295 2.117.617 3.133 1.038 2.043.846 2.701 2.292 1.701 4.191-.713 1.353-.738 2.483.238 3.639.096.112.25.265.223.368-.73 2.886 2.188 6.351-1.391 8.788-.375.255-.592.672-.66 1.113-.301 1.945-2.074 1.158-3.096 1.742-1.377.789.711 2.545-.725 3.5-.428.285-1.023.164-1.445.699.416 1.236 1.859 1.262 2.633 2.08.473 1.188 1.592 2.143 1.309 3.605-1.09.385-1.959-.262-2.891-.623-.344-.135-.732-.73-1.008.041-.156.434-.17.939.455 1.004 1.406.145 2.826.451 2.699 2.195-.121 1.676-1.678 2.043-3.02 2.467-.568.178-1.09.434-1.533.836-1.902 1.732-3.924 3.236-6.59 3.568-.998.125-1.514.59-1.486 1.74.037 1.707-1.051 2.516-2.664 2.576-1.15.041-2.115.355-3.004 1.129-1.043.904-2.391 1.299-3.711 1.035-1.596-.316-1.941.244-1.615 1.645-1.195.785-1.68-.254-2.215-.934-.797-1.016-1.418-2.174-2.465-2.982-1.914-1.236-2.318-3.461-3.426-5.229-1.143-2.936-3.057-5.471-4.227-8.412-.623-1.566-2.193-1.449-3.607-.789-2.442.9-5.044 1.035-7.554 1.611z"/><path fill="#2E1F22" d="M341.975 34.808c2.322-.949 4.742-.509 7.131-.503 3.111.007 6.355-.594 9.297.343 3.789 1.208 7.992.037 11.518 2.288.926.705 1.273 1.562 1.307 2.797.195 7.179.01 14.357.643 21.542.486 5.515-.098 11.112.213 16.67.039.695-.188 1.306-.826 1.693-3.26-.319-3.666.01-4.176 3.572-.652 4.558-1.461 9.093-1.994 13.668-.059.51-.17 1.013-.283 1.514-.756 3.311-2.006 4.042-5.18 3.009-1.465-.477-2.883-1.053-4.248-1.793-2.193-1.19-4.467-2.203-6.898-2.851-1.105-.293-2.367-.629-2.141-2.269 1.422-2.493 1.307-5.302 1.059-7.919-.432-4.551.051-9.104-.428-13.642-.424-3.995-.273-8.026-.557-12.043-.342-4.867-1.193-9.752-.84-14.663.225-3.112-.893-6.08-.791-9.169.025-.774-.428-1.192-1.232-1.254-.68-.052-1.315-.241-1.574-.99z"/><path fill="#150C0D" d="M422.414 64.453c3.273 2.141 5.33 5.603 7.314 8.605 2.578 3.9 4.834 8.261 6.395 12.894 1.236 3.668 2.666 7.27 3.621 11.039.281 1.109.35 2.156-.084 3.219.305 3.521 1.061 7.002.572 10.587-.193 1.42.152 2.893.143 4.365-.043 6.421-.539 12.844.098 19.271.211 2.133-.977 4.253-.197 6.495.236.679-.574 1.274-1.34 1.512-3.309.199-6.656.211-9.682 1.879-1.232.701-2.475.811-3.729.056-1.695-1.198-1.107-2.886-.959-4.481.518-1.091.02-2.017-.492-2.939-.002-2.023-.76-3.934-.898-5.939.191-3.06-.207-6.089-.371-9.132-.121-2.274-1.092-3.835-2.938-5.029-1.1-.712-1.994-1.698-3.033-2.501-.598-.463-1.004-1.055-.984-1.86.211-1.386.256-2.781.236-4.18-.086-6.465.824-12.871 1.154-19.297.184-3.604.604-7.235.553-10.903-.063-4.638-.48-9.351.314-13.997.143-.835.33-1.638 1.238-1.906.791-.233 1.17.42 1.59.929.424.512.915.955 1.479 1.313z"/><path fill="#160C0E" d="M371.154 79.584c.973-1.647.105-3.381.172-5.067.145-3.765-.295-7.562-.014-11.309.176-2.341-.295-4.575-.426-6.838-.258-4.471.049-8.935-.205-13.38-.115-1.999.623-4.192-.762-6.055 3.281-.524 6.422.579 9.266 1.702 3.598 1.42 7.281 2.617 10.871 4.058 2.512 1.008 5.035 1.937 7.248 3.536 2.178.723 2.93 2.202 2.813 4.493-.221 4.313-1.193 8.549-1.092 12.909.039 1.629.34 3.189.447 4.787.313 4.581-.508 9.091-1.033 13.596-.338 2.885.016 5.686.057 8.52.031 2.197.018 4.397.094 6.595.033.996-.287 1.786-1.564 1.471-.316-.114-.6-.29-.863-.494-1.025-.671-2.002-1.419-3.127-1.933-4.947-2.763-9.521-6.024-13.613-9.966-1.895-1.824-4.326-2.963-6.344-4.648-.716-.598-1.708-.902-1.925-1.977zM283.818 141.71c-.541 2.663-.895 2.838-3.266 1.977-1.947-.707-3.939-1.281-5.912-1.914-3.527.394-4.494-.164-4.279-3.574.367-5.795.074-11.588.277-17.38.129-3.711.389-7.467-.123-11.189-.1-.733-.33-1.574.045-2.172 1.334-2.132.695-4.233.146-6.374-.381-1.479.064-2.925.318-4.364.363-2.075.932-4.118.83-6.253.584-2.823 1.648-5.515 2.41-8.289.438-1.589 1.629-3.158 2.625-4.625 1.85-2.728 3.207-5.807 5.656-8.116.523-.718.715-1.628 1.326-2.296 1.107-.573 1.889-1.319 2.498-2.53 1.07-2.128 2.758-3.846 4.889-5.04 1.213.026 1.291 1.009 1.473 1.831 1.051 4.805 1.416 9.638 1.334 14.584-.092 5.62.422 11.258 1.023 16.86.217 2.023.109 3.926-.561 5.818-1.25 3.039-2.82 5.951-3.674 9.151-.934 3.498-2.518 6.829-2.707 10.518-.016.295.002.615-.148.859-1.814 2.944-1.467 6.313-1.873 9.529-.094.738-.203 1.458-.584 2.101-.666 1.125-.83 2.356-.689 3.615.281 2.521-.793 4.835-1.034 7.273z"/><path fill="#150C0D" d="M341.975 34.808c.262.134.551.419.781.378 2.828-.492 2.721 1.474 2.854 3.308.357 4.93.824 9.843.709 14.811-.029 1.288.758 2.771.611 4.218-.389 3.814.533 7.556.615 11.36.127 5.927-.113 11.89.592 17.821.281 2.353-.197 4.801-.383 7.201-.066.851-.678.811-1.303.581-2.662.2-4.889-.987-6.865-2.495-3.574-2.726-7.781-4.355-11.467-6.873-.736-.503-1.402-1.06-2.063-1.641-1.006-.749-1.912-1.622-2.945-2.336-.863-.697-1.91-1.222-2.268-2.398-.797-6.37-.445-12.742-.078-19.116.25-4.318.824-8.619.264-12.972-.23-1.78.492-3.616-.082-5.455-.285-.911.645-1.16 1.232-1.54 1.246-.637 2.395-1.264 3.916-1.463 1.717-.225 3.391-1.164 5.115-1.735 3.526-1.17 7.138-1.378 10.765-1.654z"/><path fill="#2F2023" d="M396.709 98.061c.684.138 1.459.587 1.41-.774-.125-3.647-.156-7.312-.342-10.94-.223-4.397.764-8.587 1.096-12.876.154-1.984.404-4.082-.055-5.966-.885-3.636-.004-7.219-.125-10.819-.059-1.727.816-3.465.844-5.336.031-2.152-.119-4.002-2.232-5.12 4.348 1.271 7.793 4.11 11.305 6.75 2.354 1.77 4.711 3.626 7.033 5.395 2.459 1.872 4.846 3.671 6.771 6.079-.768.049-1.131-.573-1.646-.963-.469-.354-.658-1.284-1.545-.864-.811.384-.465 1.165-.496 1.757-.309 5.678-.662 11.354-.127 17.046.105 1.114-.348 2.291-.607 3.425-.244 1.06-.592 1.991.176 3.107.795 1.16-.646 2.176-.672 3.467-.129 6.289-1.172 12.541-.814 18.857.047.819-.029 1.612-.459 2.336-1.15.343-1.982-.275-2.738-.975-3.959-3.666-8.313-6.811-12.816-9.755-1.154-.755-2.047-1.861-3.379-2.389-.559-.221-.896-.757-.582-1.442z"/><path fill="#2D1E22" d="M322.18 39.659c-.156.556-1.014.748-.822 1.46 1.066 3.986.387 8.082.521 12.103.105 3.097-.475 6.324-.621 9.499-.18 3.865-.498 7.72-.07 11.615.17 1.529.201 3.164.105 4.751-1.291.481-1.635-.635-2.172-1.336-1.684-2.2-1.645-1.965-4.07-.993-3.119 1.25-5.242 3.653-7.691 5.699-1.414.138-2.291.912-2.678 2.267-.143.499-.291 1.031-.721 1.33-3.754 2.619-5.273 6.875-7.689 10.47-.639.95-.973 2.144-2.281 2.457 1.166-7.332-.5-14.566-.732-21.85-.055-1.731.24-3.472.232-5.207-.021-3.749-.889-7.399-1.438-11.085-.068-.453-.52-.847-.793-1.268 1.916-2.697 4.721-4.468 7.115-6.651 1.822-1.661 3.943-3.042 5.936-4.52 3.225-2.392 6.676-4.938 10.432-5.993 2.603-.731 4.423-3.451 7.437-2.748z"/><path fill="#160C0E" d="M437.439 187.189c-.188 3.371-.059 6.699.777 10.012.469 1.854 1.164 3.742.615 5.73.717 2.561.408 5.207.592 7.811.064.922-.023 1.854.113 2.803.195 1.355.385 2.824-1.215 3.629-1.404 1.408-3.447 1.293-5.09 1.598-5.453 1.012-10.744 2.957-16.396 3.008-.984.01-2.055.484-3.141.336-2.234.67-1.982-.998-2.102-2.268-.297-3.143.529-6.277.213-9.4-.244-2.412-.551-4.877-.23-7.209.438-3.178-.014-6.447 1.041-9.541 1.924-3.111 3.809-6.254 6.361-8.918.938-.838 1.621-1.803 1.576-3.139.037-.668.154-1.311.611-1.838.42-.406.732-.893 1.055-1.377 1.674-2.516 3.02-2.992 5.889-2.137.764.229 1.527.463 2.32.578.662.096 1.289.305 1.891.594 1.441.758 2.727-.127 4.072-.393 1.137-.063 1.973.174 1.58 1.609-.473 1.775.164 3.68-.633 5.416.031 1.032.656 2.046.101 3.096z"/><path fill="#FEC39C" d="M437.973 178.678c.053-1.41-.98-1.148-1.822-1.184-1.373.021-2.652.879-4.074.451l-1.695-.416c-1.379-1.123-1.604-2.115-.271-3.65 1.559-1.795 1.529-4.201.982-6.398-.43-1.729-.008-3.176.645-4.662.318-.725.891-1.147 1.715-1.166.805-.017 1.803.106 1.777-1.07-.025-1.038-.383-2.042-1.57-2.391-.561-.166-1.15-.25-1.662-.553-.713-.42-1.404-.908-1.379-1.833.023-.894.697-1.384 1.365-1.874.768-.563 2.277-.054 2.379-1.517.07-.992-.719-1.735-1.07-2.613-.135-.334-.156-.717-.498-1.098-.973.328-1.084 1.452-1.764 2.038-.813.698-1.67 1.335-2.746.627-1.131-.745-.889-1.721-.242-2.672 1.016-1.495.549-3.276.961-4.886.979-1.465 2.73-1.216 4.057-1.451 1.834-.324 3.797-1.005 5.725-.216.537.293 1.139.084 1.695.212.443.014.686.31.9.643.318.291.588.709.963.851 3.17 1.203 4.773 3.651 5.229 6.84.201 1.417 1.01 2.588 1.516 3.768 1.064 2.48.746 4.944.5 7.264-.359 3.399-1.004 6.93-3.219 9.768-1.707 2.189-3.674 4.15-6.584 4.723-1.37.266-1.239 1.621-1.813 2.465z"/><path fill="#2E1E22" d="M413.176 193.443c-1.25 2.828-.301 5.906-.994 8.902-.412 1.775-.355 4.291.146 6.549.371 1.662.584 3.639-.025 5.658-.631 2.086-.105 4.535.006 6.82.039.793.828.664 1.387.742-.27.221-.545.641-.805.631-3.135-.107-6.111.992-9.176 1.373-2.949.367-6.094-.516-8.896 1.012-.914-.197-1.961-.16-2.318-1.326.037-.215.195-.445.156-.629-.736-3.434.484-6.9-.203-10.352-.232-1.172-.752-1.814-1.813-2.148-.275-1.359.828-1.824 1.672-2.223 1.455-.689 2.793-1.59 4.273-2.219 1.709-.307 2.76-1.705 4.16-2.523 1.805-.373 2.373-2.326 3.895-3.064 1.852-1.063 3.697-2.133 4.602-4.227.121-.293.301-.545.518-.773 1.079-.822 1.575-2.556 3.415-2.203z"/><path fill="#2E1F22" d="M293.939 191.186c1.246.498 1.531 1.824 2.334 2.703.607.664.963 1.658 2.084 1.699l.291.09c.734.543.998 1.527 1.852 1.961 3.291 2.578 6.367 5.434 10.076 7.461 1.104.602 2.184 1.152 3.393 1.521 1.182.361 2.459.83 1.998 2.561-1.074 1.605-.609 3.416-.621 5.137-.016 2.256.369 4.506.01 6.775-.148.939.082 1.895.617 2.73-.162.6-.703.471-1.117.584-3.795-1.135-6.955-3.494-10.289-5.482-2.838-1.695-5.658-3.527-7.643-6.283-.684-.951-2.045-.826-2.596-1.877-.506-2.035-.068-4.088.006-6.113.166-4.507-.279-8.979-.395-13.467z"/><path fill="#160C0E" d="M293.939 191.186c1.049 1.535.807 3.289.922 5.008.268 4.018.074 8.027-.02 12.039-.021.889-.094 1.738-.514 2.533-1.48-.447-1.838-1.969-2.795-2.904-2.563-2.502-4.49-5.5-6.66-8.307-.551-.711-.789-1.664-1.17-2.508-.898-.883-.686-2.406-1.818-3.154-2.391-3.07-3.795-6.707-5.016-10.277-.572-1.672-.936-3.383-1.961-4.873.041-.83.658-.746 1.236-.854 2.115-.396 4.219-.852 6.326-1.283 2.844-.473 3.152-.365 4.139 2.131 1.078 2.73 2.924 5.031 4.143 7.678 1.54 1.271 1.603 3.528 3.188 4.771z"/><path fill="#FEC400" d="M256.33 103.657c-2.453-2.876-4.854-5.797-7.555-8.458-.871-.86-1.908-1.195-2.969-1.144-2.857.138-5.744-.001-8.559.709-.327.083-.712-.064-1.307-.132 1.059-2.084 3.3-2.435 4.689-3.809 2.02-1.996 4.635-3.576 6.1-5.898 1.775-2.811 1.627-6.275.682-9.538-.143-.492-.566-.982.09-1.302.67-.328.83.323 1.088.751 1.039 1.728 2.238 3.377 3.098 5.189.973 2.053 4.318 4.057 6.953 3.994 2.301-.055 4.438-.625 6.635-1.06.787-.155 1.855-.417 2.17.437.336.911-.652 1.284-1.418 1.581-3.182 1.237-5.283 3.726-7.092 6.437-.502.752-.459 1.968-.414 2.959.066 1.481-.385 2.866-.535 4.301-.232 1.054-.438 2.098-.221 3.196.217 1.106-.158 1.833-1.435 1.787z"/><path fill="#FEC401" d="M472.752 63.627c-3.557.653-6.932.442-10.186.923-2.898.429-6.035 1.103-7.111 4.931-.426 1.514-1.797 2.899-2.389 4.549-.119.334-.41.832-.982.608-.492-.193-.598-.674-.584-1.099.061-1.969-.271-3.882-.543-5.827-.561-4.016-1.354-7.718-5.836-9.192-.848-.278-1.709-.671-1.533-1.827.195-1.284 1.203-.739 1.961-.979 1.752-.555 3.354-.36 5.096-.103 1.588.235 4.063-2.019 4.758-3.542 1.08-2.371 2.359-4.652 3.557-6.97.172-.334.43-.731.801-.64.578.144.277.659.322 1.071.344 3.219-.27 6.581 1.957 9.497 1.508 1.972 3.264 3.682 5.254 4.982 1.741 1.138 3.526 2.228 5.458 3.618zM260.479 250.846c1.527 2.873 2.998 5.781 4.605 8.609.98 1.725 2.24 2.988 4.479 3.4 1.779.326 3.396 1.52 5.373 1.098.309-.064.596.174.576.504-.043.674-.551 1.125-1.113 1.191-1.332.158-2.518.738-3.777 1.096-3.721 1.057-6.525 3.725-6.158 8.496.131 1.715-.057 3.451-.068 5.178-.004.482-.123.994-.549 1.074-.439.082-.791-.4-.945-.801-.258-.68-.516-1.391-.584-2.107-.396-4.121-3.221-6.6-6.49-8.078-2.543-1.148-5.135-2.895-8.258-2.461-.652.09-1.117-.357-1.207-1.023-.096-.717.391-.971.988-1.227 2.32-.996 4.582-2.135 6.924-3.072 3.074-1.232 4.367-2.959 4.234-6.344-.055-1.404.898-2.436 1.029-3.732-.362-1.635-.265-1.819.941-1.801zM448.633 285.491c.367-.018.75-.111 1.098-.039 4.668.963 6.389-2.572 8.408-5.563.473-.699.553-1.92 1.621-1.709 1.047.207.295 1.234.373 1.895.27 2.283.422 4.563.344 6.873-.074 2.164 1.256 3.588 2.998 4.684 1.338.838 2.648 1.717 3.799 3.221-3.703.24-7.496-1.686-10.338 1.16-1.938 1.939-4.037 4.016-4.424 7.035-.49.348-.877.162-.969-.348-.141-.781-.291-1.592.059-2.373.654-3.758-.734-6.605-3.418-9.275-1.463-1.457-2.795-3.031-4.502-4.229-.332-.898.066-1.049.914-1.131 1.347-.125 2.709.159 4.037-.201z"/><path fill="#BA3C4A" d="M392.471 299.418c-1.93-.193-2.975-.678-2.406-3.164.615-2.689.848-5.596 1.004-8.271.152-2.598-.191-5.531-.34-8.293-.115-2.162.115-4.6-.383-6.496-.699-2.66.092-5.35-1.096-8.025-1-2.254-.799-5.115-.328-7.721.111-.623.582-1.033 1.152-1.24.75-.271 1.072.346 1.348.84.35.633.912 1.371.824 1.984-.313 2.188.689 4.168.744 6.334.098 3.85 1.25 7.664 1.465 11.52.193 3.449-.23 6.939-.498 10.402-.057.738-.043 1.408.043 2.139.398 3.352.133 6.674-.738 9.941l-.791.05z"/><path fill="#BB3C4A" d="M315.994 299.217c-1.459-1.133-.904-2.688-.693-4.057.184-1.191.48-2.277-.336-3.35-.201-.262-.26-.688-.26-1.039-.01-5.338-.479-10.732.158-15.992.512-4.229.742-8.465 1.152-12.689.148-1.521 1.199-2.674 1.301-4.273.066-1.043 1.592-1.098 2.625-.662 1.051.443.906 1.16.605 2.166-.654 2.186-1.293 4.412-1.002 6.758.053.436.148.934-.002 1.314-1.529 3.869-.166 8.178-1.848 12.012-.307.699.271 1.225.391 1.811 1.006 4.955-.07 10.021.945 14.971.32 1.566-.035 3.119-2.186 3.23l-.85-.2z"/><path fill="#2F2023" d="M271.855 90.466c.803 1.799.461 3.635-.035 5.386-.785 2.762-.697 5.449.203 8.137.189.567.498 1.204.117 1.691-2.285 2.931-.039 6.14-.637 9.096-.441 2.182.416 4.337-.182 6.335-.682 2.274-.314 4.555-.143 6.685.242 3.005-.309 5.908-.227 8.856.014.502-.061 1.01-.021 1.509.264 3.425.27 3.424 3.709 3.613-2.07.416-4.129 2.466-6.217.042-.371-3.414-.66-6.87-.865-10.262-.145-2.43.1-5.038.105-7.584.008-3.461.379-6.943.484-10.396.115-3.742.453-7.515.885-11.158.475-3.978 1.096-8.158 2.824-11.95z"/><path fill="#312125" d="M440.689 142.629c-.775.391-1.41.223-1.906-.486.832-.544 1.666-1.043.721-2.217-.547-.678-.49-1.644-.23-2.332 1.322-3.487.113-6.975.193-10.453.057-2.416-.189-4.799.326-7.281.521-2.503-.451-5.287-.129-7.869.49-3.958-.762-7.862-.004-11.781 1.42 1.476.785 3.515 1.422 5.206.229.916-.021 1.87.221 2.785.303 1.941-.029 4.049.414 5.815.707 2.814-.422 5.533.391 8.342.547 1.891-.207 4.127-.18 6.207.047 3.791-.258 7.556-.574 11.324-.362.879.042 1.944-.665 2.74z"/><path fill="#2E2023" d="M438.322 217.174c.711-1.354 1.061-2.656.447-4.244-.576-1.492.33-3.1-.037-4.77-.361-1.656.035-3.479.1-5.229 1.641 1.018 1.211 3.02 1.473 4.352.521 2.67 2.25 5.008 2.137 7.734-.059 1.445-1.936 1.289-2.83 2.098-.247.223-.85.051-1.29.059z"/><path fill="#FEE8A1" d="M259.941 79.483c.764-.512 1.309-1.022.957-2.142-.307-.987-.082-2.027.699-2.84-.121 2.403.842 4.828-.082 7.264-1.197-.375-1.107-1.515-1.574-2.282z"/><path fill="#FED75F" d="M427.744 237.145c-1.248.604-2.623.678-3.938.619-.736-.033-.867.199-1.014.713-.416-.252-1.045-.432-.959-1 .08-.529.711-.293 1.096-.406 1.616-.481 3.212.027 4.815.074z"/><path fill="#F4B2B6" d="M302.307 256.049c.689 1.654.469 3.158-.748 4.496.007-1.539-.465-3.158.748-4.496z"/><path fill="#FEDF78" d="M273.605 222.537c-1.275.096-.75 1.135-.941 1.801-1.176-.766-.281-1.957-.576-2.912-.061-.195.289-.523.607-.414.703.246.901.842.91 1.525z"/><path fill="#443D3E" d="M281.885 193.893c1.379.607 1.609 1.875 1.818 3.154-1.68-.434-1.256-2.078-1.818-3.154z"/><path fill="#B6AFAF" d="M440.689 142.629c-.199-1.015.051-1.922.664-2.741.127 1.036.568 2.069.027 3.111l-.691-.37z"/><path fill="#FED551" d="M430.713 251.98c.455.855-.516 2.189.91 2.721-.17.678-.779 1.133-1.018.371-.292-.931-1.074-2.121.108-3.092z"/><path fill="#F3ADB1" d="M299.563 293.697c.74.889-.158 2.092.57 2.982-1.401-.761-1.549-1.765-.57-2.982z"/><path fill="#CCCBCB" d="M283.873 67.14c-.322.835.08 2.087-1.326 2.296-.106-1.082.068-2.001 1.326-2.296z"/><path fill="#837A7C" d="M441.303 108.201c-1.461-.819-.033-1.866-.221-2.785.51.893.797 1.805.221 2.785z"/><path fill="#A39FA0" d="M437.439 187.189c.148-1.037-.869-2.039-.1-3.096.911 1.005.772 2.042.1 3.096z"/><path fill="#FEC99C" d="M315.967 208.84c-.389-.736-.971-1.322-1.744-1.557-4.633-1.41-8.189-4.529-11.881-7.428-.787-.617-1.502-1.324-2.25-1.99-.641-.713-.703-1.869-1.74-2.281l.006.004c-.268-.434-.609-.842-.779-1.313-.168-.469-.271-1.061.135-1.455.439-.426.764.129 1.135.285 1.48.621 3.158.475 4.172-.463 1.258-1.16 2.441-1.564 4.068-1.531 1.479.031 2.064-1.049 1.807-2.408-.221-1.17-.508-1.721 1.293-1.75 2.35-.039 4.477-1.412 6.234-2.975.975-.867 1.895-1.463 3.166-1.766 1.018-.244 2.342-.738 2.023-2.146-.26-1.143-1.256-1.398-2.473-1.1-1.369.338-1.516-.467-1.041-1.52.207-.459.5-.879.84-1.463.957 1.078 2.498 1.09 3.635 1.941.57.367.619.984.678 1.555.588 5.805 3.803 10.541 6.309 15.563.518.822.57 1.977 1.699 2.363 2.305 1.865 3.965 4.367 6.205 6.299.588 1.006 1.475 1.566 2.621 1.738 3.877 2.756 8.303 3.836 12.943 4.264.219.021.447-.004.656.055 5.711 1.592 10.248-1.002 14.756-3.98 3.643-2.408 6.896-5.133 9.566-8.646 3.012-3.967 5.273-8.271 6.639-13.02.398-1.381.877-2.619 1.74-3.734 2.016-1.98 2.664-1.996 4.754-.115l.156.154c3.199 2.846 3.197 2.844-.191 5.486-.408.32-.783.672-.711 1.477 1.412-.482 2.707-.492 3.9.652.676.646 1.691.01 2.555-.012.742-.018 1.508-.037 2.004.637.588.801-.021 1.408-.486 1.932-.771.867-.498 1.949-.76 2.912-.438 1.604-.793 3.234-1.838 5.137 1.219-.578 1.502-1.398 2.113-1.852 1.502-1.115 4.006-1.318 5.313-.059 1.402 1.352 1.77.705 2.367-.652.727-1.65 2.176-2.238 3.578-1.645.633.268 1.498.527.926 1.566l-.416.461c-1.256 1.889-2.916 3.334-4.871 4.457-1.492.82-1.619 3.352-3.936 3.139-1.613.42-2.432 2.105-4.037 2.541-1.873 1.67-4.674 1.846-6.297 3.916-1.852 1.52-4.191 2.23-6.098 3.676-.588.443-1.385.357-2.092.047-1.811 1.172-4.293 1.07-5.691 3.014-2.73-.426-5.299.238-7.979.738-3.178.594-6.521.787-9.816.676-2.949-.102-5.875.473-8.807.373-6.043-.203-12.07-.654-17.861-2.684-.285.801.467 1.578-.277 2.168-.438-.387-1.094-.691-1.279-1.176-1.09-2.84-3.85-3.305-6.121-4.469-3.512.075-6.278-1.429-8.52-4.036z"/><path fill="#FEFEFE" d="M331.887 218.521c.166-.725-.164-1.266-.623-1.783-.266-.301-.771-.643-.318-1.074.195-.188.73-.205 1.018-.082 3.303 1.43 6.863 1.695 10.334 2.389 1.59.318 3.068.781 4.539-.248.105-.074.305-.088.43-.043 5.094 1.818 10.281.076 15.412.178 2.486.049 5.365.387 7.961-.98 1.865-.984 4.07-1.006 5.986.375-.648 1.949-.734 4.131-2.332 5.693-.367 1.777-1.535 3.084-2.607 4.445-.461 1.797-1.094 3.512-2.32 4.949-.758 1.305-1.85 1.371-2.621.256-2.211-3.201-5.775-4.875-8.336-7.686-2.73-2.996-5.791-2.836-8.391.287-1.205 1.447-2.895 2.211-4.283 3.393-1.725 1.463-3.094 3.313-5.027 4.533-2.205-.986-2.406-3.383-3.473-5.133-1.884-3.09-3.978-6.082-5.349-9.469zM365.963 236.998c-2.182 2.816-4.723 5.318-6.828 8.221-2.143 2.951-5.697 3.273-8.598.912-3.115-2.539-5.566-5.711-7.627-9.168-.301-.428-.098-.766.195-1.086 1.15-1.08 2.477-2.006 3.074-3.566 1.75-2.375 4.227-4.023 6.195-6.193 1.002-1.104 4.418-.637 5.398.83 1.709 2.563 4.449 3.977 6.408 6.258 1.013 1.175 1.875 2.198 1.783 3.792z"/><path fill="#ACB6BE" d="M343.385 236.188l-.475.777c-1.633-.768-1.348-2.631-2.203-3.842 1.805-2.689 4.23-4.744 6.889-6.508.811-.537 1.666-1.043 2.135-1.834 2.082-3.512 6.271-3.309 8.566-.713 2.609 2.951 6.451 4.514 8.543 7.988.631 1.045 1.574 1.188 2.527.281-.625 1.928-2.871 2.67-3.404 4.662-1.33-2.869-3.254-5.191-6.107-6.666-.77-.396-1.098-1.205-1.457-1.883-.904-1.707-2.486-2.072-4.135-2.354-.646-.111-1.35-.129-1.805.504-1.678 2.332-4.18 3.846-5.998 6.037-1.02 1.189-2.356 2.103-3.076 3.551z"/><path fill="#160D0E" d="M315.967 208.84c2.67 1.701 5.346 3.393 8.518 4.037 1.691 1.217 1.285 2.277-.184 3.352-3.051 2.229-5.219 5.43-8.328 7.596-1.141.092-1.289-.598-1.283-1.523.025-3.979.025-7.961 0-11.939-.004-.924.128-1.621 1.277-1.523z"/><path fill="#170D0F" d="M382.318 214.236c2.984-.678 5.215-3.018 8.189-3.723 1.537-.383 2.334-.143 2.434 1.799.1 1.98.785 3.873-.031 5.914-.494 1.229.135 2.609.479 3.867.266.967.273 1.586-.889 1.711-2.971-3.375-6.51-6.115-9.957-8.961-.143-.118-.152-.4-.225-.607z"/><path fill="#F4B4B8" d="M371.686 227.391c.732-1.561 1.406-3.158 2.607-4.445.521 2.296-.986 3.404-2.607 4.445z"/><path fill="#FEC99C" d="M307.23 82.148c2.246-2.835 5.273-4.638 8.328-6.441 1.568-.927 2.432-.013 3.377.914.813.795 1.084 2.108 2.357 2.466l2.182 1.792c.873.74 1.266 2.089 2.695 2.121 3.07 1.797 5.719 4.248 9.17 5.479 2.283.814 3.963 2.759 6.057 4.015 1.625.975 3.434 1.184 5.055 1.993.051.563.355 1.071.84 1.2 3.949 1.054 7.381 3.356 11.197 4.67 4.865 1.677 5.453 1.168 6.023-3.845.572-5.042 1.34-10.055 2.342-15.03.754-3.756 1.086-3.886 4.301-1.896 4.359 2.792 8.525 5.861 12.301 9.393 2.951 2.763 6.514 4.573 9.777 6.846.979.709 1.898 1.52 3.094 1.874l.383.364c.424 1.776 2.314 1.913 3.455 2.681 3.803 2.561 7.268 5.574 11.139 8.03 1.76 1.116 2.75 3.239 4.92 3.85.686 1.624 2.303 2.565 3.543 3.339 2.928 1.826 3.797 4.246 3.793 7.401-.004 2.582.729 5.151.166 7.749-2.148.144-2.699-1.409-3.074-3.016-.221-.943-.467-1.551-1.584-1.763-2.42-.459-2.502-.738-1.459-3.165-1.275-.331-2.641.182-3.857-.522-1.125-.65-1.811-1.703-2.711-2.556-1.283-1.217-2.363-.842-2.611.951-.117.851-.453 1.119-1.219 1.214-5.461.678-6.072 1.409-5.998 7.063.002.06-.08.12-.123.182-1.521.859-3.104.042-4.652.179-1.057-.197-1.721-.921-2.002-1.86-1.217-4.046-4.586-5.708-7.996-7.318-1.063-.502-2.209-.819-3.363-1.06-1.479-.309-2.586-1.002-2.994-2.562-.279-1.072-1.004-1.608-2.117-1.518-1.205.097-1.719 1.025-1.66 1.991.148 2.417-1.119 3.365-3.18 4.286-2.635 1.177-4.297 3.47-4.672 6.474-.064.527-.227.984-.482 1.443-.904 1.628-.422 3.653 1.045 4.5 1.303.752 3.393-.01 4.279-1.586.434-.77.805-1.572 1.156-2.382 1.756-4.042 8.252-5.529 11.662-2.677.441.369.551.846.514 1.384-.184.933-1.32 2.099.625 2.509.143.03.248.154.34.271.746.957-.32 4.19-1.902 5.766-1.072 1.069-1.949 1.077-3.607-.084 1.854 1.867 1.73 3.883 1.531 6.176-.313 3.573-3.506 1.881-5 3.335.541 1.215 1.662 2.238 2.186 3.581.389.998.953 2.209-.314 2.964-1.205.716-2.443.25-3.029-.888-.973-1.888-2.477-.203-3.619-.814 2.125 1.571 2.064 4.182 3.135 6.217.301.572.313 1.44 1.158 1.393 2.527-.144 3.354 2.088 4.85 3.372.477.408.652 1.037.178 1.572-.438.493-.975.255-1.365-.105-.828-.763-1.563-.623-2.311.099-.848.82-1.709 1.548-1.363 2.993.627 2.641.564 2.654-1.947 3.637-5.418-.646-10.797-1.256-16.314-.904-3.057.195-6.25-.01-9.377-.248-1.58-.121-3.199.16-4.793.314-2.695.266-5.389.326-8.09.227-.809-.029-1.621-.074-2.412.105-2.795.637-5.621.998-8.482 1.086-1.48-.1-3.164-.961-4.08 1.084-.445.637-.373 1.621-1.297 1.936-1.744-.326-3.254-.916-3.469-3.02 2.662-.139 2.652-.135 1.879-2.473-.635-1.928 1.023-1.77 1.887-1.695 1.268.109 2.053.088 1.912-1.439-.082-.904.688-.956 1.209-1.316 1.355-.937 2-2.128 1.006-3.727l-.145-.159c.279-2.36-.223-4.57-1.156-6.734-.24-.554.297-1.061.641-1.554 1.094-1.562.66-2.868-1.162-3.551-1.635-.613-3.275-1.214-5.035-1.435 1.15-2.908-.65-5.39-.914-8.049-.061-.607-.904-.703-1.5-.516-.768.24-.971.8-.721 1.564.193.588.637 1.513-.254 1.604-.863.088-1.215-.824-1.225-1.741-.021-2.158-1.098-3.252-3.145-2.991-.924.118-1.551-.129-2.188-.656.428-.647 1.123-.648 1.76-.635 1.18.024 2.104-.46 2.922-1.24.426-.229.857-.053 1.289-.024 3.301.219 3.686-.064 4.531-3.305.727-2.788 3.492-4.953 6.684-5.234 4.842-.426 6.412.523 8.471 5.118 1.322 2.952 2.762 3.741 4.994 2.727 1.031-.468 1.744-1.252 1.518-2.41-.787-4-1.754-7.892-6.002-9.843-1.039-.478-1.875-1.396-2.938-1.909-1.027-.835-2.281-.547-3.449-.694-1.004-.434-1.131-1.457-1.547-2.289-.352-.699-.551-1.625-1.604-1.531-.854.077-1.73.566-1.842 1.354-.486 3.424-3.473 4.374-5.635 6.26-2.52 2.198-5.314 4.504-5.271 8.432.004.385-.193.696-.58.844-.877-.126-.986-.97-1.422-1.512-.699-.867-1.438-1.824-2.684-.912-1.193.873-3.184 1.321-2.332 3.519.303.786.535 1.494.07 2.267-.008.722-.66 1.334-1.061 1.151-1.738-.792-4.268.051-5.197-2.43-.164-.439-.451-.768-.947-.794-.668-.036-.982.528-1.002.977-.107 2.251-2.793 2.655-3.275 4.704-.139.59-1.248.724-1.732-.204-.238-.453-.387-.951-.617-1.408-1.342-2.666-3.129-3.006-5.379-1.035-1.035.907-.75 2.843.553 3.466.428.205 1.154.054 1.105.767-.041.594-.779.581-1.148.907-1.094.967-2.238.128-3.357.133-.395-1.527-.813-3.09.252-4.493.9-1.183-.119-2.329.105-3.538.508-2.733 1.701-5.353 1.506-8.205-.199-2.956 2.043-5.433 1.59-8.478-.109-.732.689-1.563.93-2.389 1.553-5.351 2.836-10.796 5.789-15.627 2.305-3.685 4.623-7.362 6.902-11.062.52-.844 1.135-1.605 2.068-1.875.908-.263 1.053-.914 1.227-1.629 1.121-.612 1.879-1.71 3.037-2.274z"/><path fill="#B72445" d="M321.322 174.385c.732-.604.307-1.654.891-2.314 1.213-.836 2.611-1.045 4.029-1.186 4.412.051 8.662-1.277 13.131-1.277 3.445 0 7.01-.195 10.52-.693 1.721-.244 3.887-.09 5.828.188 3.564.51 7.146-.182 10.695.098 3.377.266 6.816.117 10.109 1.146 1.324-.305 2.668-.342 4.02-.303 1.6.281 3.201.553 4.805.816 2.754 1.563 3.404 3.02 2.445 5.918-.412 1.248-.426 2.598-1.055 3.777-1.867 2.814-2.049 6.268-3.551 9.244-2.111 4.184-4.563 8.225-7.863 11.43-3.662 3.555-7.943 6.498-12.807 8.441-4.996 1.998-9.783.912-14.697-.393-1.891-.5-3.746-.98-5.531-1.77-.959-.422-1.781-.99-2.414-1.824-1.004-.391-1.744-1.189-2.66-1.719-2.414-1.711-4.098-4.148-6.158-6.209-.76-.596-.85-1.732-1.771-2.199-3.129-5.537-6.449-11.002-6.715-17.631-.057-1.306-1.53-2.114-1.251-3.54z"/><path fill="#FCFBFB" d="M313.914 134.588c-.807 2.851-3.217 1.524-4.971 1.908l-3.066-1.018c-.494-.53.16-1.281-.395-1.833-1.783-1.773-.076-2.87 1.023-3.614 3.061-2.077 3.846-1.729 5.609 1.895.699.82 1.74 1.41 1.8 2.662z"/><path fill="#AF7E67" d="M290.752 186.414c-1.777-2.154-3.266-4.543-4.234-7.111-.793-2.102-1.904-2.98-4.047-2.697 1.424-.811 3.066-.854 3.752.6 1.463 3.093 3.507 5.901 4.529 9.208z"/><path fill="#FEBE97" d="M386.74 180.555c-.063-1.445.012-2.816.623-4.219.98-2.252-.238-3.842-2.041-5.096-1.613-.375-3.25-.605-4.891-.807-1.311.295-2.613.357-3.906-.088 1.068-.719 2.273-1.152 1.064-2.961-.938-1.404 1.545-4.631 3.275-4.649.336-.004.551.092.758.307.387.399.617 1.581 1.328.733.557-.665-.627-.945-1.014-1.406-.607-.724-1.287-1.386-1.904-2.101-.303-.352-.758-.79-1.082-.619-2.189 1.152-1.91-.54-2.572-1.787-1.033-1.948-.625-4.782-3.311-5.801-.42-.16-.623-.686-.381-1.128.266-.488.746-.372 1.156-.16.799.411 1.529.842 2.338-.08.625-.712 1.012-.214 1.195.461.158.578.348 1.152.838 1.507.609.439 1.299.737 2.055.351.873-.444.414-1.128.246-1.724-.486-1.711-1.525-3.08-2.766-4.307-.303-.299-.705-.993-.338-.917 1.314.274 2.172-1.011 3.408-.739 1.537.337 1.924-.175 2.207-1.865.436-2.582.215-4.662-1.701-6.482-.297-.283-.359-.694.09-.889.422-.183.828-.075 1.164.324 1.492 1.773 2.209 1.745 3.289-.249.443-.821 1.111-1.51 1.285-2.519.191-1.114.648-1.763-1.133-2.247-2.076-.563.129-1.688.25-2.594 1.691.205 2.393 1.54 2.959 2.837.521 1.198 1.188 2.269 1.955 3.299-.311.719-1.168.806-1.602 1.39-.336.455-.432.916-.035 1.37.447.514.891.321 1.295-.074.721-.707 1.529-1.306 2.332-1.916.551-.318 1.117-.566 1.777-.461.689.177 1.299.558 1.963.802 1.039.188 2.09.93 3.082-.106 1.395-1.171 2.797-2.33 3.924-3.778 1.262-.589 2.789.096 4.24-.95-2.186-1.276-4.488-1.328-6.713-1.657l-.207-.228c-1.666-2.081-.025-6.923 2.586-7.456 1.314-.268 2.662-.705 4.273.318-.301-1.54-1.119-2.858.582-3.329 1.299-.36 2.369-.083 3.184 1.215 1.152 1.837 2.674 3.077 5.104 2.252.604-.205 1.4-.145 1.709.604.252.608-.303.888-.746 1.16-.385.235-.773.525-.594 1.037.197.565.734.744 1.256.662 2.045-.322 2.623.573 2.615 2.543-.006 1.413 1.219 2.252 2.514 2.77.377 1.94 1.072 3.833.906 5.857.121.985.502 1.931.438 2.943.689 1.245-1.135 2.876.609 3.958-.695.766-1.51.553-2.199.11-1.113-.715-2.322-.915-3.582-.892-1.939.034-3.828.043-5.266-1.622-.398-.462-1.125-.588-1.547.013-.432.613.27.871.609 1.196.375.358.75.711.955 1.197.25.591.209 1.157-.246 1.638-.467.495-1.031.495-1.627.266-.205-.079-.477-.131-.58-.302-2.414-3.989-7.35-2.56-10.563-4.908-1.1-.803-2.395.051-3.506.608 1.768-.546 2.896.512 3.973 1.62.379.391.439.934.119 1.429-.275.426-.752.554-1.166.397-1.283-.483-1.863.104-2.324 1.231-.508 1.243-1.549 1.895-2.871 2.16-1.076.215-2.045.785-2.096 1.961-.068 1.604-.961 2.54-2.123 3.402-1.064.791-1.344 1.584.139 2.249.816.366 1.42 1.053 2.172 1.503 1.342.804 1.889 1.662.971 3.229-.693 1.185.18 4.354 1.355 4.92 1.508.729 2.016 2.276 3.078 3.353.986.998-.262 1.834-1.271 2.146-1.703.525-3.158-.186-4.533-1.166 1.15 1.186 2.146 2.258 4.016 2.717 1.498.369 3.127 1.121 4.592 1.895.971.516 1.906 1.121 2.955 1.441 1.518.461 2.844 1.152 3.869 2.4.857 1.043 1.736 1.342 2.605-.053.52-.83 1.24-.979 2.061-.371.311.23.66.352 1.033.199 1.814-.738 2.141.441 2.217 1.889 1.232-.445 2.311-.895 3.398-1.318.533-.209 1.191-.574 1.619.006.396.537-.039 1.102-.375 1.586-.682.469-.178 1.277-.529 1.842-.811.924-1.145 2.092-1.639 3.176-2.451 2.525-3.906 5.781-6.195 8.424-1.404.406-1.902 1.914-3.111 2.557-.344-1.338-1.412-1.375-2.445-1.244-1.096.139-1.527 1.082-1.838 1.99-.791 2.32-.914 2.367-2.549.682-1.707-1.758-4.762-1.33-5.912.914-.422.824-.783 1.551-1.746.928-.826-.533-.355-1.176.051-1.877.936-1.619 1.693-3.381 1.395-5.291-.17-1.084.619-1.385 1.072-1.984.254-.338.789-.594.615-1.07-.211-.572-.82-.568-1.33-.52-.576.057-1.141.236-1.715.301-.504.059-1.289.244-1.477.002-1.127-1.434-2.176-1.555-3.77-.57-.795.492-1.318-.563-.879-1.326.477-.83.805-1.938 2.125-1.984.994-.035 1.299-.9 1.514-1.668.264-.939-.531-1.229-1.17-1.6-.436-.252-.963-.502-1.209-.9-1.271-2.066-2.618-1.673-4.054-.222z"/><path fill="#FEB093" d="M421.539 180.002l.125-1.623c-1.453.637-2.785 1.168-4.063 1.811-.406.205-.623.977-1.213.455-.363-.318-.672-.816-.324-1.377.225-.361.627-.73.082-1.113-.527-.369-.936-.166-1.293.338-.486.686-.846.91-1.35-.119-.676-1.379-1.236-.846-1.672.279-.621 1.602-1.863 1.465-2.643.414-1.32-1.779-3.115-2.717-5.086-3.15-1.627-.357-2.619-2.729-4.752-1.453-.246.146-.717-.412-.77-.914-.051-.479-.328-1.045-.775-.865-2.496 1.002-3.102-1.609-4.656-2.375-.512-.252-1.398-.709-.801-1.441.467-.568 1.311-.172 1.785.273.902.846 1.84 1.383 3.135 1.291.789-.055 1.525-.188 1.879-.908.541-1.107-.764-.75-1.076-1.211-1.525-2.243-4.012-3.903-4.205-6.953-.014-.217-.076-.44-.041-.648.143-.841 1.828-1.226 1.061-2.125-.91-1.065-2.223-1.856-3.486-2.531-1.941-1.038-2.096-1.674-.336-3.001 1.15-.87 2.385-1.4 2.051-3.413-.166-.994 1.18-2.12 2.615-2.181 1.58-.067 2.438-1.079 2.777-2.402.371-1.439.854-2.023 2.223-1.021.379.276.846.462 1.17.018.385-.529.072-1.013-.406-1.284-1.143-.642-2.113-2.037-3.709-.898-.363.259-.963.438-1.156-.045-.254-.63.455-.717.852-1.018 3.346-2.545 6.01.274 8.918 1.1.396.112.773.773 1.137.514 2.279-1.627 3.057-.074 3.865 1.67.199.429.695.77 1.127 1.025.469.277 1.01.777 1.58.182.607-.632.301-1.208-.209-1.725-.258-.261-.504-.566-.816-.733-.688-.367-1.736-.507-.889-1.653.668-.905 2.023-1.264 2.486-.551 1.766 2.716 4.418 1.82 6.754 1.896 1.615.053 2.498 2.015 4.244 1.337 1.125.932 2.225.38 3.324-.06.723 1.901.592 3.73-.623 5.381-.445.607-.729 1.035-.1 1.687.619.643 1.15.324 1.775.055 1.094-.472 1.043-1.717 1.736-2.439.439-.457.84-1.182 1.609-.916.789.272-.023.905.145 1.301.389.931.895 1.812 1.32 2.729.682 1.47.453 2.465-1.414 2.46-1.27-.003-2.377.646-2.395 1.761-.018 1.232 1.338 1.559 2.439 1.765 1.199.223 2.768 2.158 2.572 3.298-.148.871-.672 1.527-1.615 1.482-.752-.036-1.713-.767-2.098.313-.475 1.33-1.656 2.735-.824 4.148 1.291 2.19-.402 4.247.031 6.358.053.268-.268.822-.525.906-2.348.766-1.277 2.131-.656 3.43-1.113-.328-2.209-.852-3.34-.941-1.807-.146-3.674-.09-4.375 2.166-.176.566-.5 1.055-1.125 1.244zM425.068 139.912c-.494-.929-.811-1.885-.438-2.943.317.955 1.116 1.839.438 2.943z"/><path fill="#2F2023" d="M396.326 97.697c-1.439.049-2.27-.907-3.094-1.874 1.295.189 2.123 1.15 3.094 1.874z"/><path fill="#A88469" d="M326.17 82.999c-2.113.836-1.861-1.332-2.695-2.121 1.105.444 1.8 1.409 2.695 2.121z"/><path fill="#826455" d="M307.23 82.148c-.744 1.119-1.422 2.326-3.043 2.266.635-1.266 1.2-2.624 3.043-2.266z"/><path fill="#AB7E68" d="M419.371 185.02c-.084-1.383-.094-2.729 1.639-3.176-.035 1.322-.44 2.455-1.639 3.176z"/><path fill="#FEB093" d="M432.076 177.945c1.365-.08 2.637-1.02 4.074-.451-1.298.688-2.625 1.131-4.074.451z"/><path fill="#FEBE97" d="M404.777 200.918c1.625-1.484 3.248-2.971 4.871-4.457-.693 2.504-2.767 3.496-4.871 4.457z"/><path fill="#8C6B5A" d="M396.805 206.598c1.383-.787 2.125-2.596 4.037-2.541-1.213 1.056-2.291 2.33-4.037 2.541z"/><path fill="#FEB295" d="M298.352 195.584c1.686-.084 1.471 1.285 1.74 2.281-1.153-.324-1.037-1.613-1.74-2.281z"/><path fill="#D05963" d="M337.217 203.965c1.338-.123 1.975.836 2.66 1.719-1.471.332-2.221-.454-2.66-1.719z"/><path fill="#DA716E" d="M329.287 195.557c1.205.238 1.807.961 1.771 2.199-1.494-.006-1.21-1.442-1.771-2.199z"/><path fill="#DADEE2" d="M343.385 236.188c.229-1.873 1.492-2.85 3.078-3.549-.424 1.707-1.873 2.521-3.078 3.549z"/><path d="M391.102 135.082c-.77-.557-1.576-.861-1.816-2.123-.326-1.71-1.541-3.103-3.014-4.152-.355-2.125-2.488-2.005-3.697-2.271-3.613-.797-6.014.897-7.766 4.245-.9 1.718-1.191 4.001-4.111 4.178-2.422.146-2.838-1.636-3.936-2.842-1-1.102-.178-1.906.58-2.597.836-.762.029-1.758.375-2.411 1.432-2.699 2.881-5.69 6.055-6.493 1.879-.475 1.916-1.337 1.92-2.716.008-2.455.676-3.153 2.852-3.293 1.244-.081 1.943.321 2.105 1.623.205 1.648 1.186 2.308 2.842 2.671 3.914.859 7.271 2.751 10.047 5.789 1.311 1.436.914 3.729 2.781 4.73 1.449 2.81 1.139 4.246-1.273 5.884-1.117-.009-2.195.557-3.334.218-.247-.089-.448-.237-.61-.44zM313.914 134.588c-.844-.722-1.809-1.362-1.799-2.662.211-5.596 3.945-8.684 8.225-11.249 1.402-.84 2.113-1.853 2.414-3.35.143-.708.297-1.44.877-1.968 1.77-1.608 2.932-1.296 3.955.934.379.826.191 1.964 1.244 2.448 1.137.207 2.279.38 3.428.517 4.367 1.651 7.148 4.888 8.99 9.041.422.951-.129 1.974.428 3.081.6 1.194-.766 2.998-1.574 2.904-1.432-.166-2.93 2.226-4.41-.255-.758-1.271-1.523-2.557-2.248-3.859-2.012-3.609-3.926-4.386-7.947-3.47-3.17.721-5.025 2.621-5.715 5.755-.63 2.861-3.438 3.876-5.868 2.133z"/><path fill="#895E34" d="M392.412 106.361c-1.262-.479-2.623-.829-3.82-1.481-3.313-1.801-6.672-1.623-10.293-1.12-1.781.247-3.971 2.244-5.85-.28-1.432-1.925-.744-4.753 1.574-4.668 2.582.095 4.855-1.318 7.469-.841 3.4.622 6.91.659 10.055 2.396.855.472 1.961.194 2.793 1.053.994 1.024 1.586 1.889 1.055 3.434-.561 1.632-1.997.886-2.983 1.507z"/><path fill="#875D33" d="M327.846 97.988c1.301.08 2.574-.041 3.676 1.015.387.37 1.367.508 1.877.288 1.902-.823 3.105-.019 4.045 1.489.605.973.141 1.875-.543 2.59-1.238 1.294-2.98 1.746-4.414.954-2.932-1.615-5.965-1.217-8.799-.491-1.943.499-3.998 1.077-5.859 2-1.514.75-2.811.817-3.563-1.028-.678-1.661.104-2.764 1.441-3.759 2.941-2.189 6.699-1.37 9.758-3.011.623-.333 1.578-.047 2.381-.047z"/><path fill="#FEFDFD" d="M395.051 135.183c1.59-1.666 1.361-3.731 1.268-5.766 1.627-.942 3.287.272 4.924-.082l.006.008c1.393.612 2.746 1.259 2.74 3.105-.422 2.047-2.66 2.426-3.639 3.961-1.156.594-2.334.18-3.506.078-.674-.168-1.313-.405-1.785-.952-.154-.076-.207-.153-.158-.232.05-.08.099-.12.15-.12z"/><path fill="#BB2B49" d="M357.947 152.905c-.303.881-1.055.999-1.756 1.093-1.344.18-2.758-.226-4.027.622-.461.308-.904-.138-.98-.553-.229-1.224.236-2.451 1.064-3.151.582-.492 1.404-1.747 2.367-1.026 1.182.883 2.688 1.507 3.332 3.015z"/><path fill="#FEB295" d="M326.242 170.885c-1.297.549-2.549 1.256-4.029 1.186.949-1.737 2.281-2.167 4.029-1.186z"/><path fill="#534235" d="M332.258 119.258c-1.258.599-2.344.041-3.428-.517 1.24-.47 2.371-.22 3.428.517z"/><path fill="#FEB093" d="M380.432 170.434c1.693-.109 3.355-.031 4.891.807-1.702.165-3.274-.46-4.891-.807zM405.371 181.24c.141 1.107 1.256 2.07 1.533 3.426.223 1.082.336 1.959-.73 2.377-1.297.508-1.531-.607-1.893-1.512-.625-1.564-.385-3.176-.344-4.771.016-.594.434-1.266 1.053-1.195.785.089.666.798.381 1.675z"/><path fill="#FEC99C" d="M403.988 132.448c-.736-1.192-1.623-2.25-2.74-3.105 2.352-.627 4.486.354 6.662.943.506.137 1.24.363 1.162 1.111-.08.755-.889.772-1.383.842-1.218.174-2.466.153-3.701.209zM391.102 135.082l.438.092c.555.329 1.475-.127 1.742.816-.508 1.183-1.934 1.447-2.535 2.604-.375.719-.996.237-1.426-.192-.566-.567-1.246-1.13-.566-2.028.581-.772 1.261-1.415 2.347-1.292z"/><path fill="#FEB093" d="M405.33 140.293c1.471-1.069 2.188-2.063 2.723-3.237.357-.787 1.221-.849 1.9-.39.811.548.563 1.229-.016 1.857-1.093 1.188-2.462 1.649-4.607 1.77z"/><path fill="#FEC99C" d="M404.746 127.428c-.018.427-.092.979-.486.834-.777-.284-1.699-.599-1.957-1.491-.164-.578.41-.947.949-.878.881.11 1.355.725 1.494 1.535zM383.543 150.893c-.615-.29-.803-.316-.842-.406-.332-.767-1.484-1.095-1.199-2.172.08-.299.445-.479.701-.3.867.614 1.168 1.5 1.34 2.878z"/><path fill="#FEB093" d="M393.281 135.989l-1.744-.816 3.516.009c.049.117.051.235.006.353l-1.778.454z"/><path fill="#FEC99C" d="M396.844 136.487l3.506-.078c-1.135 1.57-2.334.206-3.506.078z"/></g>
</svg>